<svg width="216" height="181" viewBox="0 0 216 181" fill="none" xmlns="http://www.w3.org/2000/svg">
<g clip-path="url(#clip0)">
<path d="M12.5916 72.346C12.9535 69.9375 13.2249 67.4989 13.3756 65.0603C13.9486 55.8025 11.0085 46.4846 12.3202 37.3473C14.0843 24.9886 24.6536 17.7028 35.434 13.3826C70.6248 -0.737375 111.108 -2.64913 148.304 2.86035C160.879 4.72695 174.298 7.96339 183.54 17.2813C193.22 27.0509 197.019 42.9621 188.259 54.5983C184.053 60.183 177.765 64.6689 178.399 72.4665C179.092 80.9565 185.636 87.3692 189.601 94.4743C194.29 102.904 197.743 112.102 198.934 121.706C202.04 146.814 186.706 174.286 158.964 173.142C147.52 172.676 136.649 168.401 125.688 165.089C110.294 160.453 96.935 161.22 81.4505 164.577C65.408 168.054 48.8228 172.36 32.4336 168.356C16.7379 164.547 5.05287 151.963 1.26842 136.428C-2.32002 121.675 2.41431 106.065 7.42003 92.2163C9.74197 85.7735 11.5513 79.12 12.5916 72.346Z" fill="url(#paint0_linear)"/>
<path d="M199.716 88.1817C208.71 88.1817 216 80.903 216 71.9242C216 62.9455 208.71 55.6667 199.716 55.6667C190.723 55.6667 183.433 62.9455 183.433 71.9242C183.433 80.903 190.723 88.1817 199.716 88.1817Z" fill="url(#paint1_linear)"/>
<path d="M103.688 180.985C113.922 180.985 122.218 177.292 122.218 172.736C122.218 168.18 113.922 164.487 103.688 164.487C93.454 164.487 85.1577 168.18 85.1577 172.736C85.1577 177.292 93.454 180.985 103.688 180.985Z" fill="url(#paint2_linear)"/>
<path d="M20.0981 90.7408C22.1486 85.7582 21.9224 80.1885 22.2541 74.8145C22.5858 69.4405 23.7468 63.6751 27.7574 60.0624C29.431 58.557 31.4966 57.5485 33.2758 56.1636C37.5276 52.882 40.0154 47.4327 39.6988 42.0737C39.3972 36.9707 36.7587 32.1236 36.8793 27.0506C36.8492 27.0506 36.819 27.0657 36.7888 27.0657C31.3157 28.014 26.3251 24.8077 22.0431 20.9691C17.0524 25.0786 13.2981 30.4075 12.303 37.332C10.9913 46.4693 13.9464 55.7872 13.3584 65.045C13.2077 67.4836 12.9363 69.9222 12.5744 72.3307C11.5491 79.1047 9.72475 85.7733 7.40282 92.216C5.98554 96.1148 4.59841 100.164 3.42236 104.289C3.90484 104.138 4.37224 103.988 4.85472 103.822C11.3833 101.564 17.4746 97.1234 20.0981 90.7408Z" fill="url(#paint3_linear)"/>
<path d="M36.8044 27.0657C36.8345 27.0657 36.8647 27.0507 36.8948 27.0507C36.8948 26.855 36.9099 26.6593 36.925 26.4636C37.4376 18.8768 44.2074 13.3221 50.8566 9.61901C52.5 8.70077 54.249 7.78252 55.7869 6.66858C48.8513 8.49002 42.0513 10.7179 35.4323 13.3673C30.6829 15.264 25.9938 17.7478 22.0586 20.9692C26.3406 24.8077 31.3312 28.0141 36.8044 27.0657Z" fill="url(#paint4_linear)"/>
<path d="M108.513 3.86867C111.83 3.71813 115.403 4.12457 118.358 5.50947C119.353 3.82351 120.213 2.07733 120.921 0.240838C108.98 -0.270971 96.918 0.0451464 84.9917 1.33972C87.1025 3.13106 89.922 4.30521 92.6661 4.68154C97.9282 5.38904 103.22 4.09446 108.513 3.86867Z" fill="url(#paint5_linear)"/>
<path d="M38.7945 157.652C32.8238 158.992 27.034 161.145 21.6514 164.065C24.9533 165.977 28.5719 167.437 32.4167 168.385C36.563 169.394 40.7395 169.876 44.9008 169.981C44.3882 166.594 43.1217 163.327 41.1465 160.512C40.4379 159.489 39.6539 158.54 38.7945 157.652Z" fill="url(#paint6_linear)"/>
<path d="M36.9095 26.4635C36.8945 26.6592 36.8945 26.8549 36.8794 27.0505C40.9805 26.3129 44.2975 23.3475 48.1573 21.7819C58.018 17.8079 68.8437 23.4829 79.3828 24.913C94.6563 26.9903 110.578 18.6508 118.358 5.49433C115.388 4.10943 111.83 3.70299 108.513 3.85353C103.22 4.09438 97.9281 5.38896 92.6812 4.6664C89.922 4.29007 87.1176 3.11592 85.0067 1.32458C75.1159 2.40842 65.3306 4.15459 55.7866 6.65343C54.2487 7.75231 52.4997 8.68561 50.8562 9.60386C44.192 13.307 37.4222 18.8766 36.9095 26.4635Z" fill="url(#paint7_linear)"/>
<path d="M6.75471 132.95C5.26204 130 4.53832 126.688 2.84964 123.843C2.17115 122.699 1.26651 121.63 0.196004 120.787C-0.241243 126.026 -3.41004e-06 131.279 1.25143 136.427C4.11615 148.154 11.4589 158.194 21.6513 164.065C27.0339 161.145 32.8237 158.992 38.7944 157.652C29.4765 147.898 12.8912 145.128 6.75471 132.95Z" fill="url(#paint8_linear)"/>
<path d="M148.302 2.86011C139.331 1.53542 130.164 0.632229 120.936 0.240845C120.228 2.06229 119.368 3.82351 118.373 5.50947C120.137 6.32235 121.675 7.4965 122.836 9.07709C124.389 11.2146 125.052 13.849 126.183 16.2424C129.319 22.896 135.984 27.2313 142.829 29.9409C158.132 36.0073 175.833 34.8783 190.7 27.9237C189.026 23.9948 186.584 20.3369 183.553 17.2962C174.311 7.9782 160.876 4.72671 148.302 2.86011Z" fill="url(#paint9_linear)"/>
<path d="M184.564 123.707C183.146 129.247 178.94 133.658 174.311 137.015C169.682 140.371 164.511 142.93 159.942 146.393C155.163 150.005 151.182 154.597 148.182 159.775C153.368 159.895 158.495 160.603 163.455 162.153C168.401 163.704 173.09 166.097 177.266 169.183C193.188 160.784 201.269 140.597 198.932 121.736C197.741 112.132 194.289 102.934 189.599 94.5042C189.298 93.9623 188.981 93.4354 188.665 92.9086C186.162 97.56 184.775 102.814 184.729 108.097C184.669 113.306 185.875 118.635 184.564 123.707Z" fill="url(#paint10_linear)"/>
<path d="M148.196 159.775C146.221 163.177 144.683 166.82 143.613 170.583C148.664 171.923 153.76 172.931 158.977 173.142C165.882 173.428 172.004 171.938 177.281 169.168C173.104 166.082 168.43 163.704 163.47 162.138C158.509 160.588 153.368 159.88 148.196 159.775Z" fill="url(#paint11_linear)"/>
<path d="M38.7944 157.652C39.6388 158.54 40.4379 159.489 41.1465 160.497C43.1217 163.297 44.3731 166.579 44.9008 169.966C57.1739 170.252 69.4469 167.196 81.4335 164.592C82.4136 164.381 83.3785 164.185 84.3284 163.99C77.1515 160.106 69.266 157.517 61.1543 156.523C53.7061 155.59 46.1221 156.011 38.7944 157.652Z" fill="url(#paint12_linear)"/>
<path d="M131.144 161.205C127.526 161.837 123.892 162.635 120.379 163.704C122.128 164.095 123.877 164.562 125.671 165.104C131.642 166.895 137.582 168.988 143.598 170.583C144.669 166.805 146.222 163.162 148.182 159.775C142.498 159.639 136.753 160.227 131.144 161.205Z" fill="url(#paint13_linear)"/>
<path d="M52.5148 86.1798C51.9117 86.1798 51.4292 85.6981 51.4292 85.0959V72.9179C51.4292 67.3632 46.9059 62.8322 41.3273 62.8322C35.7637 62.8322 31.2254 67.3632 31.2254 72.9179V85.0959C31.2254 85.6981 30.7429 86.1798 30.1398 86.1798C29.5367 86.1798 29.0542 85.6981 29.0542 85.0959V72.9179C29.0542 66.159 34.5575 60.6646 41.3273 60.6646C48.0971 60.6646 53.6003 66.159 53.6003 72.9179V85.0959C53.5853 85.6981 53.1028 86.1798 52.5148 86.1798Z" fill="#A7A9AC"/>
<path d="M82.1723 82.9282H28.7227V150.186H82.1723V82.9282Z" fill="url(#paint14_linear)"/>
<path d="M21.5156 143.337V82.9282H14.2935V150.186L21.5156 143.337Z" fill="url(#paint15_linear)"/>
<path d="M28.7227 150.186V82.9282H21.5156V143.337L28.7227 150.186Z" fill="url(#paint16_linear)"/>
<path d="M21.5156 143.337L14.2935 150.186H21.5156H28.7226L21.5156 143.337Z" fill="url(#paint17_linear)"/>
<path d="M66.9591 93.8268C66.356 93.8268 65.8735 93.3451 65.8735 92.743V72.9179C65.8735 67.3632 61.3503 62.8322 55.7716 62.8322C50.208 62.8322 45.6697 67.3632 45.6697 72.9179V92.743C45.6697 93.3451 45.1872 93.8268 44.5841 93.8268C43.981 93.8268 43.4985 93.3451 43.4985 92.743V72.9179C43.4985 66.159 49.0018 60.6646 55.7716 60.6646C62.5414 60.6646 68.0447 66.159 68.0447 72.9179V92.743C68.0447 93.3451 67.5471 93.8268 66.9591 93.8268Z" fill="#D1D3D4"/>
<path d="M43.5586 106.562C46.3781 103.672 51.0822 104.349 53.9771 107.179L55.4095 108.579L56.8117 107.149C59.6312 104.259 64.3052 103.461 67.2151 106.276C70.11 109.091 70.1703 113.772 67.3508 116.663L65.9486 118.093L55.6658 128.615L45.1266 118.348L43.6943 116.949C40.7994 114.134 40.7391 109.452 43.5586 106.562Z" fill="url(#paint18_linear)"/>
<path d="M59.5858 122.338C59.3597 122.112 58.9827 122.112 58.7566 122.353L55.8617 125.303L55.6204 125.544L54.8364 124.776C54.6102 124.551 54.2333 124.551 54.0071 124.791C53.781 125.017 53.781 125.393 54.0222 125.619L55.2284 126.793C55.334 126.899 55.4847 126.959 55.6506 126.959C55.8014 126.959 55.9521 126.899 56.0577 126.778L56.706 126.116L59.6009 123.166C59.812 122.94 59.812 122.563 59.5858 122.338Z" fill="white"/>
<path d="M66.793 112.267C66.4914 112.267 66.2351 112.056 66.205 111.755C66.0994 110.972 65.8431 110.25 65.4209 109.587C65.2551 109.316 65.3305 108.955 65.6019 108.775C65.8733 108.609 66.2351 108.684 66.4161 108.955C66.9136 109.753 67.2453 110.641 67.3659 111.589C67.4112 111.906 67.185 112.207 66.8533 112.252C66.8382 112.267 66.8081 112.267 66.793 112.267Z" fill="white"/>
<path d="M64.667 108.444C64.5313 108.444 64.4107 108.398 64.2901 108.308C63.3101 107.525 62.0134 107.209 60.6413 107.405C60.3247 107.45 60.0232 107.224 59.9779 106.908C59.9327 106.592 60.1589 106.291 60.4755 106.246C62.1642 105.99 63.7775 106.396 65.0289 107.39C65.2852 107.585 65.3304 107.962 65.1194 108.218C64.9987 108.368 64.8329 108.444 64.667 108.444Z" fill="white"/>
<path d="M137.899 35.902L71.8442 36.0977L72.1609 150.216H156.926L156.64 54.5981L137.899 35.902Z" fill="white"/>
<path d="M133.165 48.3059L100.206 48.4113C99.8588 48.4113 99.5874 48.1403 99.5874 47.7941V45.8372C99.5874 45.491 99.8588 45.22 100.206 45.22L133.165 45.1146C133.512 45.1146 133.783 45.3856 133.783 45.7318V47.6887C133.798 48.0349 133.512 48.3059 133.165 48.3059Z" fill="url(#paint19_linear)"/>
<path d="M133.164 57.0669L100.205 57.1723C99.8582 57.1723 99.5869 56.9013 99.5869 56.5551L99.5718 51.4069C99.5718 51.0607 99.8432 50.7897 100.19 50.7897L133.149 50.6843C133.496 50.6843 133.768 50.9553 133.768 51.3015L133.783 56.4497C133.798 56.7959 133.511 57.0669 133.164 57.0669Z" fill="url(#paint20_linear)"/>
<path d="M149.177 66.43L79.6397 66.6407C79.2929 66.6407 79.0215 66.3698 79.0215 66.0235V64.1419C79.0215 63.7957 79.2929 63.5247 79.6397 63.5247L149.177 63.314C149.524 63.314 149.795 63.5849 149.795 63.9311V65.8128C149.795 66.159 149.524 66.43 149.177 66.43Z" fill="url(#paint21_linear)"/>
<path d="M87.7813 59.927C92.6443 59.927 96.5866 55.9911 96.5866 51.1359C96.5866 46.2808 92.6443 42.3448 87.7813 42.3448C82.9183 42.3448 78.9761 46.2808 78.9761 51.1359C78.9761 55.9911 82.9183 59.927 87.7813 59.927Z" fill="url(#paint22_linear)"/>
<path d="M83.0166 47.1318C84.1475 45.9727 86.0321 46.2437 87.1931 47.3727L87.7661 47.9296L88.3239 47.3576C89.4547 46.1985 91.3244 45.8824 92.4853 47.0114C93.6463 48.1404 93.6765 50.022 92.5306 51.1811L91.9727 51.7532L87.8565 55.9681L83.6348 51.8585L83.0619 51.3016C81.9009 50.1726 81.8858 48.2909 83.0166 47.1318Z" fill="url(#paint23_linear)"/>
<path d="M89.44 53.4542C89.3495 53.3639 89.1987 53.3639 89.1083 53.4542L87.9473 54.6434L87.8568 54.7337L87.5402 54.4327C87.4497 54.3424 87.2989 54.3424 87.2085 54.4327C87.118 54.523 87.118 54.6735 87.2085 54.7638L87.691 55.2305C87.7362 55.2756 87.7965 55.3058 87.8568 55.2907C87.9171 55.2907 87.9774 55.2606 88.0227 55.2154L88.279 54.9445L89.44 53.7553C89.5304 53.6951 89.5304 53.5445 89.44 53.4542Z" fill="white"/>
<path d="M92.3194 49.4199C92.1988 49.4199 92.0933 49.3296 92.0782 49.2092C92.033 48.893 91.9274 48.607 91.7616 48.3361C91.6862 48.2307 91.7314 48.0802 91.8369 48.0049C91.9425 47.9296 92.0933 47.9748 92.1687 48.0802C92.3647 48.3963 92.5004 48.7576 92.5456 49.1339C92.5607 49.2694 92.4702 49.3748 92.3345 49.4049C92.3496 49.4199 92.3345 49.4199 92.3194 49.4199Z" fill="white"/>
<path d="M91.4752 47.8845C91.43 47.8845 91.3697 47.8694 91.3244 47.8393C90.9324 47.5232 90.4047 47.4028 89.8619 47.4781C89.7262 47.4931 89.6056 47.4028 89.5905 47.2824C89.5754 47.1469 89.6659 47.0265 89.7865 47.0114C90.465 46.9061 91.1133 47.0716 91.6109 47.4781C91.7164 47.5533 91.7315 47.7039 91.6411 47.8092C91.6109 47.8544 91.5355 47.8845 91.4752 47.8845Z" fill="white"/>
<path d="M80.0918 75.2212C79.4736 75.2212 78.9761 74.7244 78.9761 74.1072C78.9761 73.49 79.4736 72.9933 80.0918 72.9933H141.472C142.09 72.9933 142.588 73.49 142.588 74.1072C142.588 74.7244 142.09 75.2212 141.472 75.2212H80.0918Z" fill="url(#paint24_linear)"/>
<path d="M145.573 75.2212C144.955 75.2212 144.458 74.7244 144.458 74.1072C144.458 73.49 144.955 72.9933 145.573 72.9933H148.664C149.282 72.9933 149.78 73.49 149.78 74.1072C149.78 74.7244 149.282 75.2212 148.664 75.2212H145.573Z" fill="url(#paint25_linear)"/>
<path d="M80.0918 81.9349C79.4736 81.9349 78.9761 81.4381 78.9761 80.821C78.9761 80.2038 79.4736 79.707 80.0918 79.707H90.8571C91.4753 79.707 91.9729 80.2038 91.9729 80.821C91.9729 81.4381 91.4753 81.9349 90.8571 81.9349H80.0918Z" fill="url(#paint26_linear)"/>
<path d="M93.9331 81.9349C93.3149 81.9349 92.8174 81.4381 92.8174 80.821C92.8174 80.2038 93.3149 79.707 93.9331 79.707H148.664C149.283 79.707 149.78 80.2038 149.78 80.821C149.78 81.4381 149.283 81.9349 148.664 81.9349H93.9331Z" fill="url(#paint27_linear)"/>
<path d="M80.0918 88.7088C79.4736 88.7088 78.9761 88.2121 78.9761 87.5949C78.9761 86.9777 79.4736 86.481 80.0918 86.481H99.4814C100.1 86.481 100.597 86.9777 100.597 87.5949C100.597 88.2121 100.1 88.7088 99.4814 88.7088H80.0918Z" fill="url(#paint28_linear)"/>
<path d="M104.532 88.7088C103.914 88.7088 103.417 88.2121 103.417 87.5949C103.417 86.9777 103.914 86.481 104.532 86.481H132.199C132.818 86.481 133.315 86.9777 133.315 87.5949C133.315 88.2121 132.818 88.7088 132.199 88.7088H104.532Z" fill="url(#paint29_linear)"/>
<path d="M136.798 88.7088C136.18 88.7088 135.683 88.2121 135.683 87.5949C135.683 86.9777 136.18 86.481 136.798 86.481H148.649C149.267 86.481 149.765 86.9777 149.765 87.5949C149.765 88.2121 149.267 88.7088 148.649 88.7088H136.798Z" fill="url(#paint30_linear)"/>
<path d="M148.649 133.236C149.267 133.236 149.765 133.733 149.765 134.35C149.765 134.967 149.267 135.464 148.649 135.464H87.2686C86.6504 135.464 86.1528 134.967 86.1528 134.35C86.1528 133.733 86.6504 133.236 87.2686 133.236H148.649Z" fill="url(#paint31_linear)"/>
<path d="M83.1827 133.236C83.8009 133.236 84.2984 133.733 84.2984 134.35C84.2984 134.967 83.8009 135.464 83.1827 135.464H80.0918C79.4736 135.464 78.9761 134.967 78.9761 134.35C78.9761 133.733 79.4736 133.236 80.0918 133.236H83.1827Z" fill="url(#paint32_linear)"/>
<path d="M148.649 126.522C149.267 126.522 149.765 127.019 149.765 127.636C149.765 128.254 149.267 128.75 148.649 128.75H137.884C137.266 128.75 136.768 128.254 136.768 127.636C136.768 127.019 137.266 126.522 137.884 126.522H148.649Z" fill="url(#paint33_linear)"/>
<path d="M134.823 126.522C135.441 126.522 135.939 127.019 135.939 127.636C135.939 128.254 135.441 128.75 134.823 128.75H80.0918C79.4736 128.75 78.9761 128.254 78.9761 127.636C78.9761 127.019 79.4736 126.522 80.0918 126.522H134.823Z" fill="url(#paint34_linear)"/>
<path d="M148.649 119.749C149.267 119.749 149.765 120.245 149.765 120.862C149.765 121.48 149.267 121.976 148.649 121.976H129.259C128.641 121.976 128.144 121.48 128.144 120.862C128.144 120.245 128.641 119.749 129.259 119.749H148.649Z" fill="url(#paint35_linear)"/>
<path d="M124.208 119.749C124.826 119.749 125.324 120.245 125.324 120.862C125.324 121.48 124.826 121.976 124.208 121.976H96.541C95.9228 121.976 95.4253 121.48 95.4253 120.862C95.4253 120.245 95.9228 119.749 96.541 119.749H124.208Z" fill="url(#paint36_linear)"/>
<path d="M91.9583 119.749C92.5765 119.749 93.0741 120.245 93.0741 120.862C93.0741 121.48 92.5765 121.976 91.9583 121.976H80.1074C79.4893 121.976 78.9917 121.48 78.9917 120.862C78.9917 120.245 79.4893 119.749 80.1074 119.749H91.9583Z" fill="url(#paint37_linear)"/>
<path d="M149.614 92.7732H78.9761V114.344H149.614V92.7732Z" fill="url(#paint38_linear)"/>
<path d="M137.959 54.5981L156.64 54.5379L137.898 35.8418L137.959 54.5981Z" fill="#D1D3D4"/>
<path d="M142.286 109.768H101.486V113.035H142.286V109.768Z" fill="#F1F2F2"/>
<path d="M141.05 109.768H102.723V105.809C102.723 105.056 103.341 104.439 104.095 104.439H139.678C140.431 104.439 141.05 105.056 141.05 105.809V109.768Z" fill="url(#paint39_linear)"/>
<path d="M137.717 104.424H106.055L108.98 97.5901C109.281 96.8976 109.96 96.446 110.714 96.446H133.074C133.827 96.446 134.506 96.8976 134.807 97.5901L137.717 104.424Z" fill="url(#paint40_linear)"/>
<path d="M138.109 113.035H105.678L106.326 122.006H137.446L138.109 113.035Z" fill="url(#paint41_linear)"/>
<path d="M108.407 150.216H135.38L136.029 141.229H107.743L108.407 150.216Z" fill="url(#paint42_linear)"/>
<path d="M108.995 122.006H106.326L107.743 141.229H136.029L136.21 138.941H110.246L108.995 122.006Z" fill="url(#paint43_linear)"/>
<path d="M108.995 122.006L110.246 138.941H136.209L137.446 122.006H108.995Z" fill="url(#paint44_linear)"/>
<path d="M134.445 129.383H124.977C124.69 129.383 124.464 129.157 124.464 128.871C124.464 128.585 124.69 128.359 124.977 128.359H134.445C134.732 128.359 134.958 128.585 134.958 128.871C134.958 129.157 134.732 129.383 134.445 129.383Z" fill="white"/>
<path d="M136.964 132.453H131.189C130.902 132.453 130.676 132.228 130.676 131.942C130.676 131.655 130.902 131.43 131.189 131.43H136.964C137.25 131.43 137.476 131.655 137.476 131.942C137.491 132.228 137.25 132.453 136.964 132.453Z" fill="white"/>
<path d="M129.711 132.453H122.459C122.172 132.453 121.946 132.228 121.946 131.942C121.946 131.655 122.172 131.43 122.459 131.43H129.711C129.998 131.43 130.224 131.655 130.224 131.942C130.239 132.228 129.998 132.453 129.711 132.453Z" fill="white"/>
<path d="M136.964 134.892H135.411C135.124 134.892 134.898 134.666 134.898 134.38C134.898 134.094 135.124 133.868 135.411 133.868H136.964C137.25 133.868 137.476 134.094 137.476 134.38C137.476 134.666 137.25 134.892 136.964 134.892Z" fill="white"/>
<path d="M134.084 134.892H127.088C126.801 134.892 126.575 134.666 126.575 134.38C126.575 134.094 126.801 133.868 127.088 133.868H134.084C134.37 133.868 134.596 134.094 134.596 134.38C134.596 134.666 134.37 134.892 134.084 134.892Z" fill="white"/>
<path d="M125.429 134.892H122.474C122.188 134.892 121.961 134.666 121.961 134.38C121.961 134.094 122.188 133.868 122.474 133.868H125.429C125.716 133.868 125.942 134.094 125.942 134.38C125.942 134.666 125.716 134.892 125.429 134.892Z" fill="white"/>
<path d="M111.181 127.832C112.252 126.733 114.031 126.989 115.116 128.058L115.659 128.585L116.187 128.043C117.257 126.944 119.021 126.643 120.122 127.712C121.223 128.781 121.238 130.542 120.167 131.641L119.64 132.183L115.75 136.157L111.769 132.273L111.226 131.746C110.141 130.692 110.111 128.931 111.181 127.832Z" fill="url(#paint45_linear)"/>
<path d="M117.242 133.808C117.152 133.718 117.016 133.718 116.926 133.808L115.825 134.922L115.734 135.012L115.433 134.726C115.342 134.636 115.207 134.636 115.116 134.726C115.026 134.817 115.026 134.952 115.116 135.043L115.569 135.494C115.614 135.539 115.674 135.554 115.734 135.554C115.795 135.554 115.855 135.524 115.885 135.494L116.126 135.238L117.227 134.124C117.333 134.034 117.333 133.883 117.242 133.808Z" fill="white"/>
<path d="M119.971 130C119.866 130 119.76 129.924 119.745 129.804C119.7 129.503 119.609 129.232 119.458 128.991C119.398 128.886 119.428 128.75 119.534 128.69C119.639 128.63 119.775 128.66 119.835 128.765C120.031 129.066 120.152 129.398 120.197 129.759C120.212 129.879 120.122 130 120.001 130.015C119.986 130 119.986 130 119.971 130Z" fill="white"/>
<path d="M119.172 128.54C119.127 128.54 119.067 128.525 119.037 128.495C118.66 128.193 118.177 128.073 117.664 128.148C117.544 128.163 117.423 128.088 117.408 127.968C117.393 127.847 117.468 127.727 117.589 127.712C118.222 127.621 118.841 127.772 119.308 128.148C119.398 128.224 119.413 128.359 119.338 128.464C119.293 128.51 119.233 128.54 119.172 128.54Z" fill="white"/>
<path d="M186.207 149.794C186.479 149.523 186.659 149.147 186.659 148.741V117.882C186.659 117.46 186.479 117.084 186.207 116.828L168.084 133.311L186.207 149.794Z" fill="url(#paint46_linear)"/>
<path d="M134.491 116.813C134.22 117.084 134.039 117.46 134.039 117.867V148.726C134.039 149.147 134.22 149.524 134.491 149.78L152.614 133.296L134.491 116.813Z" fill="url(#paint47_linear)"/>
<path d="M168.084 133.311L160.349 140.356L152.614 133.311L134.491 149.795C134.763 150.05 135.109 150.201 135.516 150.201H185.182C185.574 150.201 185.936 150.05 186.207 149.795L168.084 133.311Z" fill="url(#paint48_linear)"/>
<path d="M168.084 133.311L160.349 140.356L152.614 133.311L134.491 149.795C134.763 150.05 135.109 150.201 135.516 150.201H185.182C185.574 150.201 185.936 150.05 186.207 149.795L168.084 133.311Z" fill="url(#paint49_linear)"/>
<path d="M160.349 126.266L168.084 133.311L186.207 116.813C185.936 116.557 185.589 116.406 185.182 116.406H135.516C135.124 116.406 134.763 116.557 134.491 116.813L152.614 133.296L160.349 126.266Z" fill="url(#paint50_linear)"/>
<path d="M152.614 133.311L160.349 140.341L168.084 133.311L160.349 126.266L152.614 133.311Z" fill="url(#paint51_linear)"/>
<path d="M152.614 133.311L160.349 140.341L168.084 133.311L160.349 126.266L152.614 133.311Z" fill="url(#paint52_linear)"/>
<path d="M185.182 116.406H135.516C135.124 116.406 134.763 116.557 134.491 116.813L152.614 133.296L160.349 140.341L168.084 133.296L186.207 116.813C185.936 116.557 185.589 116.406 185.182 116.406Z" fill="url(#paint53_linear)"/>
<path d="M160.349 143.081C163.364 143.081 165.807 140.641 165.807 137.632C165.807 134.622 163.364 132.182 160.349 132.182C157.335 132.182 154.891 134.622 154.891 137.632C154.891 140.641 157.335 143.081 160.349 143.081Z" fill="url(#paint54_linear)"/>
<path d="M157.394 135.148C158.103 134.425 159.264 134.606 159.988 135.298L160.349 135.644L160.696 135.283C161.405 134.561 162.566 134.365 163.274 135.072C163.998 135.78 164.013 136.939 163.305 137.647L162.958 138.008L160.41 140.627L157.786 138.083L157.424 137.737C156.716 137.029 156.701 135.87 157.394 135.148Z" fill="url(#paint55_linear)"/>
<path d="M161.375 139.077C161.314 139.016 161.224 139.016 161.164 139.077L160.44 139.814L160.38 139.874L160.184 139.679C160.123 139.619 160.033 139.619 159.972 139.679C159.912 139.739 159.912 139.829 159.972 139.89L160.274 140.176C160.304 140.206 160.334 140.221 160.38 140.221C160.425 140.221 160.455 140.206 160.485 140.176L160.651 140.01L161.375 139.272C161.435 139.212 161.435 139.122 161.375 139.077Z" fill="white"/>
<path d="M163.169 136.563C163.093 136.563 163.033 136.502 163.018 136.442C162.988 136.247 162.928 136.066 162.822 135.9C162.777 135.825 162.807 135.735 162.867 135.705C162.943 135.659 163.033 135.69 163.063 135.75C163.184 135.945 163.274 136.171 163.305 136.412C163.32 136.487 163.259 136.563 163.184 136.578C163.184 136.563 163.169 136.563 163.169 136.563Z" fill="white"/>
<path d="M162.641 135.614C162.611 135.614 162.581 135.599 162.551 135.584C162.31 135.389 161.978 135.313 161.646 135.359C161.571 135.374 161.495 135.313 161.48 135.238C161.465 135.163 161.526 135.088 161.601 135.073C162.023 135.012 162.43 135.118 162.732 135.359C162.792 135.404 162.807 135.494 162.762 135.569C162.717 135.599 162.686 135.614 162.641 135.614Z" fill="white"/>
</g>
<defs>
<linearGradient id="paint0_linear" x1="15.3158" y1="180.28" x2="233.587" y2="-38.342" gradientUnits="userSpaceOnUse">
<stop stop-color="#1DC9DC"/>
<stop offset="0.2462" stop-color="#2AA7C8"/>
<stop offset="0.7875" stop-color="#4B5194"/>
<stop offset="1" stop-color="#582D7F"/>
</linearGradient>
<linearGradient id="paint1_linear" x1="53.253" y1="218.158" x2="271.525" y2="-0.465163" gradientUnits="userSpaceOnUse">
<stop stop-color="#1DC9DC"/>
<stop offset="0.2462" stop-color="#2AA7C8"/>
<stop offset="0.7875" stop-color="#4B5194"/>
<stop offset="1" stop-color="#582D7F"/>
</linearGradient>
<linearGradient id="paint2_linear" x1="55.7268" y1="220.628" x2="273.999" y2="2.00414" gradientUnits="userSpaceOnUse">
<stop stop-color="#1DC9DC"/>
<stop offset="0.2462" stop-color="#2AA7C8"/>
<stop offset="0.7875" stop-color="#4B5194"/>
<stop offset="1" stop-color="#582D7F"/>
</linearGradient>
<linearGradient id="paint3_linear" x1="-15.2076" y1="93.0156" x2="62.6003" y2="15.0823" gradientUnits="userSpaceOnUse">
<stop stop-color="#1DC9DC"/>
<stop offset="0.2462" stop-color="#2AA7C8"/>
<stop offset="0.7875" stop-color="#4B5194"/>
<stop offset="1" stop-color="#582D7F"/>
</linearGradient>
<linearGradient id="paint4_linear" x1="25.6927" y1="27.7787" x2="59.4184" y2="-6.00128" gradientUnits="userSpaceOnUse">
<stop stop-color="#1DC9DC"/>
<stop offset="0.2462" stop-color="#2AA7C8"/>
<stop offset="0.7875" stop-color="#4B5194"/>
<stop offset="1" stop-color="#582D7F"/>
</linearGradient>
<linearGradient id="paint5_linear" x1="93.155" y1="11.9324" x2="119.156" y2="-14.1108" gradientUnits="userSpaceOnUse">
<stop stop-color="#1DC9DC"/>
<stop offset="0.2462" stop-color="#2AA7C8"/>
<stop offset="0.7875" stop-color="#4B5194"/>
<stop offset="1" stop-color="#582D7F"/>
</linearGradient>
<linearGradient id="paint6_linear" x1="28.1652" y1="172.12" x2="44.7078" y2="155.551" gradientUnits="userSpaceOnUse">
<stop stop-color="#1DC9DC"/>
<stop offset="0.2462" stop-color="#2AA7C8"/>
<stop offset="0.7875" stop-color="#4B5194"/>
<stop offset="1" stop-color="#582D7F"/>
</linearGradient>
<linearGradient id="paint7_linear" x1="47.4231" y1="44.3772" x2="119.776" y2="-28.0922" gradientUnits="userSpaceOnUse">
<stop stop-color="#1DC9DC"/>
<stop offset="0.2462" stop-color="#2AA7C8"/>
<stop offset="0.7875" stop-color="#4B5194"/>
<stop offset="1" stop-color="#582D7F"/>
</linearGradient>
<linearGradient id="paint8_linear" x1="6.28515" y1="152.412" x2="24.244" y2="134.425" gradientUnits="userSpaceOnUse">
<stop stop-color="#1DC9DC"/>
<stop offset="0.2462" stop-color="#2AA7C8"/>
<stop offset="0.7875" stop-color="#4B5194"/>
<stop offset="1" stop-color="#582D7F"/>
</linearGradient>
<linearGradient id="paint9_linear" x1="137.129" y1="32.7332" x2="177.881" y2="-8.0845" gradientUnits="userSpaceOnUse">
<stop stop-color="#1DC9DC"/>
<stop offset="0.2462" stop-color="#2AA7C8"/>
<stop offset="0.7875" stop-color="#4B5194"/>
<stop offset="1" stop-color="#582D7F"/>
</linearGradient>
<linearGradient id="paint10_linear" x1="148.186" y1="166.865" x2="223.632" y2="91.2972" gradientUnits="userSpaceOnUse">
<stop stop-color="#1DC9DC"/>
<stop offset="0.2462" stop-color="#2AA7C8"/>
<stop offset="0.7875" stop-color="#4B5194"/>
<stop offset="1" stop-color="#582D7F"/>
</linearGradient>
<linearGradient id="paint11_linear" x1="148.942" y1="178.233" x2="173.571" y2="153.563" gradientUnits="userSpaceOnUse">
<stop stop-color="#1DC9DC"/>
<stop offset="0.2462" stop-color="#2AA7C8"/>
<stop offset="0.7875" stop-color="#4B5194"/>
<stop offset="1" stop-color="#582D7F"/>
</linearGradient>
<linearGradient id="paint12_linear" x1="47.1508" y1="175.212" x2="79.0357" y2="143.275" gradientUnits="userSpaceOnUse">
<stop stop-color="#1DC9DC"/>
<stop offset="0.2462" stop-color="#2AA7C8"/>
<stop offset="0.7875" stop-color="#4B5194"/>
<stop offset="1" stop-color="#582D7F"/>
</linearGradient>
<linearGradient id="paint13_linear" x1="126.859" y1="172.264" x2="149.146" y2="149.942" gradientUnits="userSpaceOnUse">
<stop stop-color="#1DC9DC"/>
<stop offset="0.2462" stop-color="#2AA7C8"/>
<stop offset="0.7875" stop-color="#4B5194"/>
<stop offset="1" stop-color="#582D7F"/>
</linearGradient>
<linearGradient id="paint14_linear" x1="28.7227" y1="116.56" x2="82.1775" y2="116.56" gradientUnits="userSpaceOnUse">
<stop stop-color="#FFDE39"/>
<stop offset="0.3266" stop-color="#FFC63C"/>
<stop offset="1" stop-color="#FE9843"/>
</linearGradient>
<linearGradient id="paint15_linear" x1="6.26909" y1="116.56" x2="32.9522" y2="116.56" gradientUnits="userSpaceOnUse">
<stop stop-color="#FFDE39"/>
<stop offset="0.3266" stop-color="#FFC63C"/>
<stop offset="1" stop-color="#FE9843"/>
</linearGradient>
<linearGradient id="paint16_linear" x1="17.8787" y1="116.56" x2="47.0963" y2="116.56" gradientUnits="userSpaceOnUse">
<stop stop-color="#FFDE39"/>
<stop offset="0.3266" stop-color="#FFC63C"/>
<stop offset="1" stop-color="#FE9843"/>
</linearGradient>
<linearGradient id="paint17_linear" x1="21.5081" y1="160.885" x2="21.5081" y2="144.025" gradientUnits="userSpaceOnUse">
<stop stop-color="#FFDE39"/>
<stop offset="0.3266" stop-color="#FFC63C"/>
<stop offset="1" stop-color="#FE9843"/>
</linearGradient>
<linearGradient id="paint18_linear" x1="55.4498" y1="80.7863" x2="55.4498" y2="163.881" gradientUnits="userSpaceOnUse">
<stop stop-color="#FFDE39"/>
<stop offset="0.0935256" stop-color="#FFC63C"/>
<stop offset="0.2863" stop-color="#FE9843"/>
<stop offset="0.4154" stop-color="#FE7D4B"/>
<stop offset="0.6521" stop-color="#FE4F59"/>
<stop offset="1" stop-color="#ED327F"/>
</linearGradient>
<linearGradient id="paint19_linear" x1="116.683" y1="33.8828" x2="116.683" y2="92.9953" gradientUnits="userSpaceOnUse">
<stop stop-color="#FFDE39"/>
<stop offset="0.0935256" stop-color="#FFC63C"/>
<stop offset="0.2863" stop-color="#FE9843"/>
<stop offset="0.4154" stop-color="#FE7D4B"/>
<stop offset="0.6521" stop-color="#FE4F59"/>
<stop offset="1" stop-color="#ED327F"/>
</linearGradient>
<linearGradient id="paint20_linear" x1="116.68" y1="33.8831" x2="116.68" y2="92.9929" gradientUnits="userSpaceOnUse">
<stop stop-color="#FFDE39"/>
<stop offset="0.0935256" stop-color="#FFC63C"/>
<stop offset="0.2863" stop-color="#FE9843"/>
<stop offset="0.4154" stop-color="#FE7D4B"/>
<stop offset="0.6521" stop-color="#FE4F59"/>
<stop offset="1" stop-color="#ED327F"/>
</linearGradient>
<linearGradient id="paint21_linear" x1="114.403" y1="43.595" x2="114.403" y2="80.7762" gradientUnits="userSpaceOnUse">
<stop stop-color="#FFDE39"/>
<stop offset="0.0935256" stop-color="#FFC63C"/>
<stop offset="0.2863" stop-color="#FE9843"/>
<stop offset="0.4154" stop-color="#FE7D4B"/>
<stop offset="0.6521" stop-color="#FE4F59"/>
<stop offset="1" stop-color="#ED327F"/>
</linearGradient>
<linearGradient id="paint22_linear" x1="87.7782" y1="23.5275" x2="87.7782" y2="67.1437" gradientUnits="userSpaceOnUse">
<stop stop-color="#FFDE39"/>
<stop offset="0.0935256" stop-color="#FFC63C"/>
<stop offset="0.2863" stop-color="#FE9843"/>
<stop offset="0.4154" stop-color="#FE7D4B"/>
<stop offset="0.6521" stop-color="#FE4F59"/>
<stop offset="1" stop-color="#ED327F"/>
</linearGradient>
<linearGradient id="paint23_linear" x1="87.778" y1="29.3748" x2="87.778" y2="105.518" gradientUnits="userSpaceOnUse">
<stop stop-color="#FFDE39"/>
<stop offset="0.0935256" stop-color="#FFC63C"/>
<stop offset="0.2863" stop-color="#FE9843"/>
<stop offset="0.4154" stop-color="#FE7D4B"/>
<stop offset="0.6521" stop-color="#FE4F59"/>
<stop offset="1" stop-color="#ED327F"/>
</linearGradient>
<linearGradient id="paint24_linear" x1="110.779" y1="68.5316" x2="110.779" y2="130.134" gradientUnits="userSpaceOnUse">
<stop stop-color="#E6E7E8"/>
<stop offset="0.5252" stop-color="#D1D3D4"/>
</linearGradient>
<linearGradient id="paint25_linear" x1="147.112" y1="68.5316" x2="147.112" y2="130.134" gradientUnits="userSpaceOnUse">
<stop stop-color="#E6E7E8"/>
<stop offset="0.5252" stop-color="#D1D3D4"/>
</linearGradient>
<linearGradient id="paint26_linear" x1="85.472" y1="68.5317" x2="85.472" y2="130.134" gradientUnits="userSpaceOnUse">
<stop stop-color="#E6E7E8"/>
<stop offset="0.5252" stop-color="#D1D3D4"/>
</linearGradient>
<linearGradient id="paint27_linear" x1="121.292" y1="68.5316" x2="121.292" y2="130.134" gradientUnits="userSpaceOnUse">
<stop stop-color="#E6E7E8"/>
<stop offset="0.5252" stop-color="#D1D3D4"/>
</linearGradient>
<linearGradient id="paint28_linear" x1="89.7899" y1="68.5315" x2="89.7899" y2="130.134" gradientUnits="userSpaceOnUse">
<stop stop-color="#E6E7E8"/>
<stop offset="0.5252" stop-color="#D1D3D4"/>
</linearGradient>
<linearGradient id="paint29_linear" x1="118.373" y1="68.5315" x2="118.373" y2="130.134" gradientUnits="userSpaceOnUse">
<stop stop-color="#E6E7E8"/>
<stop offset="0.5252" stop-color="#D1D3D4"/>
</linearGradient>
<linearGradient id="paint30_linear" x1="142.728" y1="68.5315" x2="142.728" y2="130.134" gradientUnits="userSpaceOnUse">
<stop stop-color="#E6E7E8"/>
<stop offset="0.5252" stop-color="#D1D3D4"/>
</linearGradient>
<linearGradient id="paint31_linear" x1="117.97" y1="68.5311" x2="117.97" y2="130.134" gradientUnits="userSpaceOnUse">
<stop stop-color="#E6E7E8"/>
<stop offset="0.5252" stop-color="#D1D3D4"/>
</linearGradient>
<linearGradient id="paint32_linear" x1="81.6374" y1="68.5307" x2="81.6374" y2="130.134" gradientUnits="userSpaceOnUse">
<stop stop-color="#E6E7E8"/>
<stop offset="0.5252" stop-color="#D1D3D4"/>
</linearGradient>
<linearGradient id="paint33_linear" x1="143.277" y1="68.5315" x2="143.277" y2="130.134" gradientUnits="userSpaceOnUse">
<stop stop-color="#E6E7E8"/>
<stop offset="0.5252" stop-color="#D1D3D4"/>
</linearGradient>
<linearGradient id="paint34_linear" x1="107.457" y1="68.5316" x2="107.457" y2="130.134" gradientUnits="userSpaceOnUse">
<stop stop-color="#E6E7E8"/>
<stop offset="0.5252" stop-color="#D1D3D4"/>
</linearGradient>
<linearGradient id="paint35_linear" x1="138.959" y1="68.5327" x2="138.959" y2="130.134" gradientUnits="userSpaceOnUse">
<stop stop-color="#E6E7E8"/>
<stop offset="0.5252" stop-color="#D1D3D4"/>
</linearGradient>
<linearGradient id="paint36_linear" x1="110.375" y1="68.5331" x2="110.375" y2="130.134" gradientUnits="userSpaceOnUse">
<stop stop-color="#E6E7E8"/>
<stop offset="0.5252" stop-color="#D1D3D4"/>
</linearGradient>
<linearGradient id="paint37_linear" x1="86.0222" y1="68.5332" x2="86.0222" y2="130.134" gradientUnits="userSpaceOnUse">
<stop stop-color="#E6E7E8"/>
<stop offset="0.5252" stop-color="#D1D3D4"/>
</linearGradient>
<linearGradient id="paint38_linear" x1="114.293" y1="87.9415" x2="114.293" y2="204.534" gradientUnits="userSpaceOnUse">
<stop stop-color="#FFDE39"/>
<stop offset="0.0935256" stop-color="#FFC63C"/>
<stop offset="0.2863" stop-color="#FE9843"/>
<stop offset="0.4154" stop-color="#FE7D4B"/>
<stop offset="0.6521" stop-color="#FE4F59"/>
<stop offset="1" stop-color="#ED327F"/>
</linearGradient>
<linearGradient id="paint39_linear" x1="121.889" y1="110.076" x2="121.889" y2="102.416" gradientUnits="userSpaceOnUse">
<stop stop-color="#BBBBBB"/>
<stop offset="0.045404" stop-color="#CCCDCD"/>
<stop offset="0.1083" stop-color="#DDDEDE"/>
<stop offset="0.1866" stop-color="#E8E9E9"/>
<stop offset="0.2966" stop-color="#EFF0F0"/>
<stop offset="0.6017" stop-color="#F1F2F2"/>
<stop offset="1" stop-color="white"/>
</linearGradient>
<linearGradient id="paint40_linear" x1="121.889" y1="106.073" x2="121.889" y2="93.5821" gradientUnits="userSpaceOnUse">
<stop stop-color="#BBBBBB"/>
<stop offset="0.045404" stop-color="#CCCDCD"/>
<stop offset="0.1083" stop-color="#DDDEDE"/>
<stop offset="0.1866" stop-color="#E8E9E9"/>
<stop offset="0.2966" stop-color="#EFF0F0"/>
<stop offset="0.6017" stop-color="#F1F2F2"/>
<stop offset="1" stop-color="white"/>
</linearGradient>
<linearGradient id="paint41_linear" x1="121.889" y1="107.456" x2="121.889" y2="121.163" gradientUnits="userSpaceOnUse">
<stop stop-color="#9D9E9F"/>
<stop offset="1" stop-color="#D1D3D4"/>
</linearGradient>
<linearGradient id="paint42_linear" x1="121.889" y1="107.456" x2="121.889" y2="121.163" gradientUnits="userSpaceOnUse">
<stop stop-color="#9D9E9F"/>
<stop offset="1" stop-color="#D1D3D4"/>
</linearGradient>
<linearGradient id="paint43_linear" x1="121.267" y1="106.241" x2="121.267" y2="154.706" gradientUnits="userSpaceOnUse">
<stop stop-color="#FFDE39"/>
<stop offset="0.0935256" stop-color="#FFC63C"/>
<stop offset="0.2863" stop-color="#FE9843"/>
<stop offset="0.4154" stop-color="#FE7D4B"/>
<stop offset="0.6521" stop-color="#FE4F59"/>
<stop offset="1" stop-color="#ED327F"/>
</linearGradient>
<linearGradient id="paint44_linear" x1="123.224" y1="115.295" x2="123.224" y2="167.949" gradientUnits="userSpaceOnUse">
<stop stop-color="#FFDE39"/>
<stop offset="0.0935256" stop-color="#FFC63C"/>
<stop offset="0.2863" stop-color="#FE9843"/>
<stop offset="0.4154" stop-color="#FE7D4B"/>
<stop offset="0.6521" stop-color="#FE4F59"/>
<stop offset="1" stop-color="#ED327F"/>
</linearGradient>
<linearGradient id="paint45_linear" x1="115.68" y1="150.142" x2="115.68" y2="167.513" gradientUnits="userSpaceOnUse">
<stop stop-color="#FFDE39"/>
<stop offset="0.0935256" stop-color="#FFC63C"/>
<stop offset="0.2863" stop-color="#FE9843"/>
<stop offset="0.4154" stop-color="#FE7D4B"/>
<stop offset="0.6521" stop-color="#FE4F59"/>
<stop offset="1" stop-color="#ED327F"/>
</linearGradient>
<linearGradient id="paint46_linear" x1="177.372" y1="127.359" x2="177.372" y2="179.662" gradientUnits="userSpaceOnUse">
<stop stop-color="#FFDE39"/>
<stop offset="0.3266" stop-color="#FFC63C"/>
<stop offset="1" stop-color="#FE9843"/>
</linearGradient>
<linearGradient id="paint47_linear" x1="143.329" y1="127.359" x2="143.329" y2="179.662" gradientUnits="userSpaceOnUse">
<stop stop-color="#FFDE39"/>
<stop offset="0.3266" stop-color="#FFC63C"/>
<stop offset="1" stop-color="#FE9843"/>
</linearGradient>
<linearGradient id="paint48_linear" x1="160.35" y1="127.359" x2="160.35" y2="179.662" gradientUnits="userSpaceOnUse">
<stop stop-color="#FFDE39"/>
<stop offset="0.3266" stop-color="#FFC63C"/>
<stop offset="1" stop-color="#FE9843"/>
</linearGradient>
<linearGradient id="paint49_linear" x1="160.35" y1="154.745" x2="160.35" y2="130.345" gradientUnits="userSpaceOnUse">
<stop stop-color="#FFDE39"/>
<stop offset="0.3266" stop-color="#FFC63C"/>
<stop offset="1" stop-color="#FE9843"/>
</linearGradient>
<linearGradient id="paint50_linear" x1="160.35" y1="127.359" x2="160.35" y2="179.662" gradientUnits="userSpaceOnUse">
<stop stop-color="#FFDE39"/>
<stop offset="0.3266" stop-color="#FFC63C"/>
<stop offset="1" stop-color="#FE9843"/>
</linearGradient>
<linearGradient id="paint51_linear" x1="160.35" y1="127.359" x2="160.35" y2="179.662" gradientUnits="userSpaceOnUse">
<stop stop-color="#FFDE39"/>
<stop offset="0.3266" stop-color="#FFC63C"/>
<stop offset="1" stop-color="#FE9843"/>
</linearGradient>
<linearGradient id="paint52_linear" x1="160.35" y1="154.745" x2="160.35" y2="130.345" gradientUnits="userSpaceOnUse">
<stop stop-color="#FFDE39"/>
<stop offset="0.3266" stop-color="#FFC63C"/>
<stop offset="1" stop-color="#FE9843"/>
</linearGradient>
<linearGradient id="paint53_linear" x1="160.35" y1="111.222" x2="160.35" y2="132.78" gradientUnits="userSpaceOnUse">
<stop stop-color="#FFDE39"/>
<stop offset="0.3266" stop-color="#FFC63C"/>
<stop offset="1" stop-color="#FE9843"/>
</linearGradient>
<linearGradient id="paint54_linear" x1="160.35" y1="120.52" x2="160.35" y2="147.55" gradientUnits="userSpaceOnUse">
<stop stop-color="#FFDE39"/>
<stop offset="0.0935256" stop-color="#FFC63C"/>
<stop offset="0.2863" stop-color="#FE9843"/>
<stop offset="0.4154" stop-color="#FE7D4B"/>
<stop offset="0.6521" stop-color="#FE4F59"/>
<stop offset="1" stop-color="#ED327F"/>
</linearGradient>
<linearGradient id="paint55_linear" x1="159.249" y1="131.161" x2="164.423" y2="155.878" gradientUnits="userSpaceOnUse">
<stop stop-color="#FFDE39"/>
<stop offset="0.0935256" stop-color="#FFC63C"/>
<stop offset="0.2863" stop-color="#FE9843"/>
<stop offset="0.4154" stop-color="#FE7D4B"/>
<stop offset="0.6521" stop-color="#FE4F59"/>
<stop offset="1" stop-color="#ED327F"/>
</linearGradient>
<clipPath id="clip0">
<rect width="216" height="181" fill="white"/>
</clipPath>
</defs>
</svg>
