<svg width="286" height="280" viewBox="0 0 286 280" fill="none" xmlns="http://www.w3.org/2000/svg">
<g clip-path="url(#clip0)">
<path d="M72.3921 16.8146C62.9571 30.328 74.0046 52.2315 60.0408 62.4095C46.4202 72.3125 29.7117 56.0826 16.8801 64.6102C-2.16142 77.264 1.3381 135.1 29.1284 170.999C37.4998 181.796 44.4989 185.991 47.5867 198.232C54.2426 224.468 30.8782 240.079 35.304 253.076C45.3223 282.304 199.267 306.821 261.057 219C289.911 177.979 294.234 118.767 268.434 73.7911C221.877 -7.49589 93.5265 -13.5133 72.3921 16.8146Z" fill="#F4F7FA"/>
<path d="M78.5334 229.866C77.9158 229.557 76.9209 229.9 76.2347 230.141C75.9259 230.244 75.7887 230.279 75.6857 230.382C75.0682 230.932 75.6171 232.411 76.3719 234.749C77.5727 238.462 77.7786 239.631 78.4305 239.7C79.048 239.735 79.5627 238.737 79.6313 238.634C79.9401 238.05 79.9058 237.5 79.8028 236.468C79.597 234.542 79.4254 233.27 79.3568 232.892C79.0137 230.485 78.9451 230.072 78.5334 229.866Z" fill="url(#paint0_linear)"/>
<path d="M82.7189 230.554L78.8419 232.72C78.6018 232.72 77.4696 231.757 77.5725 230.588L81.1406 227.906L82.7189 230.554Z" fill="url(#paint1_linear)"/>
<path d="M122.86 155.456C124.199 160.579 125.742 167.904 126.223 176.844C126.634 184.237 126.291 192.42 125.399 196.856C120.939 219.103 85.8067 230.794 81.6553 232.135C80.7976 230.966 79.9056 229.797 79.0479 228.628C83.4394 225.362 104.814 208.925 105.02 190.632C105.054 187.675 104.574 181.314 103.339 174.54C102.035 167.285 100.182 161.37 98.7069 157.278C106.77 156.66 114.832 156.041 122.86 155.456Z" fill="url(#paint2_linear)"/>
<path d="M118.435 91.7744L121.557 92.3934C121.557 92.3934 138.025 113.437 135.658 121.449C133.29 129.461 121.557 123.34 121.557 123.34L118.435 91.7744Z" fill="url(#paint3_linear)"/>
<path d="M97.7808 241.66C97.2661 242.107 97.1632 243.173 97.0946 243.861C97.0603 244.17 97.0603 244.342 97.0946 244.445C97.3347 245.271 98.913 245.339 101.383 245.58C105.26 245.993 106.427 246.268 106.735 245.718C107.01 245.167 106.324 244.273 106.255 244.205C105.843 243.689 105.329 243.483 104.334 243.173C102.515 242.554 101.28 242.245 100.903 242.142C98.5013 241.488 98.1239 241.351 97.7808 241.66Z" fill="url(#paint4_linear)"/>
<path d="M100.08 238.084L100.457 242.52C100.354 242.726 99.0159 243.38 97.9867 242.829L96.9917 238.462L100.08 238.084Z" fill="url(#paint5_linear)"/>
<path d="M104.814 145.072C103.853 162.746 103.064 180.764 102.447 199.125C102.001 212.88 101.657 226.462 101.452 239.872C99.8391 240.078 98.2266 240.285 96.614 240.457C95.0358 237.534 92.9773 233.064 91.5363 227.356C89.8209 220.41 90.1983 216.284 89.4435 209.097C88.5857 201.017 87.3506 199.263 85.1548 189.085C80.729 168.419 78.4989 158.104 83.4394 151.674C85.0519 149.611 90.0953 144.384 104.814 145.072Z" fill="url(#paint6_linear)"/>
<path d="M82.4103 92.3247C86.596 91.1556 92.7373 89.7801 100.251 89.3331C111.333 88.7142 116.857 88.4391 120.116 90.9836C130.203 98.8923 120.631 127.191 124.233 142.046C127.252 154.562 127.355 154.768 127.355 154.768C128.076 156.178 129.242 158.104 128.762 160.408C128.384 162.23 127.012 164.328 125.159 164.947C121.282 166.288 119.052 160.064 112.637 158.207C105.912 156.247 98.3983 160.133 88.8604 165.05C82.822 168.179 80.7291 170.173 78.602 169.176C74.5192 167.25 75.6514 156.797 76.0974 152.533C77.9158 135.581 79.9743 115.707 82.4103 92.3247Z" fill="url(#paint7_linear)"/>
<path d="M110.201 121.139C109.892 121.071 109.377 119.111 110.681 118.561C116.479 115.982 120.974 121.105 121.557 122.687C122.14 124.269 122.14 124.269 122.14 124.269C122.14 124.269 119.258 124.509 117.474 123.89C115.69 123.271 112.568 121.69 110.201 121.139Z" fill="url(#paint8_linear)"/>
<path d="M126.051 128.498L115.861 129.014C115.484 129.048 115.003 128.532 115.106 128.223L119.875 112.75C119.944 112.509 120.218 112.337 120.493 112.337L130.271 112.543C130.58 112.578 130.751 113.197 130.683 113.506L126.6 128.051C126.531 128.292 126.291 128.498 126.051 128.498Z" fill="url(#paint9_linear)"/>
<path d="M125.845 128.189L115.587 128.67C115.21 128.704 114.935 128.395 115.004 128.085L119.601 112.371C119.67 112.096 119.944 111.959 120.219 111.959L130.031 112.543C130.34 112.578 130.58 112.887 130.477 113.197L126.429 127.776C126.36 127.982 126.12 128.154 125.845 128.189Z" fill="url(#paint10_linear)"/>
<path opacity="0.3" d="M120.665 118.801C120.973 120.246 122.243 119.936 123.306 121.655C124.645 123.856 123.375 125.782 124.576 126.607C124.953 126.848 125.571 126.985 126.703 126.71L126.429 127.742C126.36 127.982 126.12 128.154 125.845 128.189L115.587 128.67C115.21 128.704 114.935 128.395 115.004 128.085L119.601 112.371C119.67 112.096 119.944 111.959 120.219 111.959L121.694 112.062C121.865 112.612 122.003 113.231 121.968 113.919C121.968 116.257 120.322 117.117 120.665 118.801Z" fill="url(#paint11_linear)"/>
<path d="M130.546 117.632C130.615 117.392 130.477 117.116 130.306 117.116C129.551 117.048 127.836 117.048 126.875 117.873C125.64 118.939 124.027 120.933 125.365 121.896L126.635 122.824C126.703 122.859 126.772 122.893 126.806 122.859C127.252 122.721 129.139 122.137 129.345 121.965C129.551 121.862 130.272 118.836 130.546 117.632Z" fill="url(#paint12_linear)"/>
<path opacity="0.3" d="M122.037 158.998C120.939 157.107 120.974 154.218 118.572 152.877C117.165 152.086 116.068 152.465 114.181 152.396C108.52 152.258 107.422 148.682 103.51 148.476C97.4378 148.166 94.5215 156.419 91.1249 155.215C88.8948 154.425 87.4538 149.989 88.6203 146.585C90.2329 141.84 95.688 142.493 102.893 136.063C105.981 133.312 110.372 128.36 109.171 126.16C107.902 123.856 101.864 127.226 97.4035 123.787C94.796 121.793 95.1391 119.317 93.0119 114.847C91.8454 112.406 87.6597 106.113 81.3811 101.849C79.3569 121.14 77.6415 137.92 76.0632 152.533C75.6172 156.797 74.485 167.285 78.5678 169.176C80.695 170.173 82.7535 168.179 88.8262 165.05C98.3298 160.133 105.878 156.247 112.602 158.207C119.052 160.098 121.248 166.288 125.125 164.946C126.326 164.534 127.321 163.502 128.007 162.333C124.576 161.749 122.861 160.442 122.037 158.998Z" fill="url(#paint13_linear)"/>
<path d="M101.966 81.1838C101.966 82.0435 102.858 85.8946 100.045 87.9234C97.1973 89.9865 94.5555 89.9521 93.492 90.2272C91.0217 90.8461 90.7129 90.8117 90.6443 91.0868C90.3698 92.2903 97.1287 96.3822 104.093 95.385C108.348 94.7661 112.259 92.3247 112.019 91.0524C111.779 89.7458 107.524 90.4679 106.255 88.1297C105.363 86.5136 106.358 84.2098 107.524 82.2842C106.358 80.1523 103.098 83.3157 101.966 81.1838Z" fill="url(#paint14_linear)"/>
<path d="M111.676 80.0834C112.671 78.7424 112.705 76.4042 111.539 74.9256C110.509 73.6533 108.966 73.5158 108.005 73.4126C105.26 73.1376 101.829 74.3067 100.663 76.8512C99.9765 78.3641 101.555 81.4244 101.795 81.9746C102.069 82.5935 102.584 82.7998 103.03 83.2812C103.682 83.9346 104.677 84.9661 106.324 86.7198C106.427 86.204 106.633 85.5507 106.907 84.863C107.01 84.5879 107.49 83.5563 108.176 82.6623C109.583 80.9086 110.75 81.39 111.676 80.0834Z" fill="url(#paint15_linear)"/>
<path d="M103.991 85.2411C103.991 85.2411 105.809 88.1639 109.377 87.8888C112.568 87.6481 112.946 80.4616 110.887 78.9486C110.201 78.4328 108.829 78.2609 107.731 78.5704C107.079 78.7767 106.873 79.0518 105.775 79.3269C104.78 79.6019 104.506 79.4988 104.197 79.7395C103.819 80.049 103.545 80.8398 104.197 82.9373C103.579 82.3184 102.859 82.1121 102.344 82.3528C102.275 82.3872 102.035 82.5591 101.932 82.7654C101.521 83.625 102.275 84.6566 103.991 85.2411Z" fill="url(#paint16_linear)"/>
<path d="M104.094 79.3614C104.265 79.4646 103.785 80.0491 103.751 80.8744C103.716 82.4561 105.329 84.3473 106.941 84.4848C107.902 84.5536 108.176 83.969 109.755 83.7971C110.75 83.694 111.573 83.7971 112.088 83.9003C112.602 85.6196 112.156 87.3732 110.99 88.1985C109.755 89.0925 108.142 88.5767 107.49 88.3704C107.044 88.2328 105.603 87.7858 104.848 86.4792C104.059 85.1038 104.814 84.2785 103.922 83.3845C103.476 82.9375 102.858 82.7312 102.275 81.8372C102.104 81.5965 102.001 81.3901 101.932 81.2182C102.79 80.2898 103.853 79.1895 104.094 79.3614Z" fill="url(#paint17_linear)"/>
<path d="M90.9875 97.1385C89.3064 94.5596 85.9441 92.0495 82.822 92.2558C73.7987 92.9091 62.6483 117.323 70.2992 126.985C76.1317 134.378 94.1439 134.722 110.578 121.965C110.578 120.555 110.578 119.145 110.578 117.735C102.481 119.145 95.7908 120.108 90.816 120.727C87.7282 121.105 84.6403 121.483 84.0914 120.245C83.2337 118.423 89.4093 115.775 91.7766 108.933C92.1197 107.97 94.1783 101.952 90.9875 97.1385Z" fill="url(#paint18_linear)"/>
<path d="M180.637 223.333C180.637 223.333 180.877 225.155 180.705 225.774C180.568 226.393 175.25 226.84 173.466 226.6C171.682 226.393 174.53 224.536 175.662 224.193C176.829 223.849 180.637 223.333 180.637 223.333Z" fill="url(#paint19_linear)"/>
<path d="M177.96 220.273L178.509 223.917C178.509 223.917 179.916 224.571 180.602 223.917L180.671 220.101L177.96 220.273Z" fill="url(#paint20_linear)"/>
<path d="M207.741 220.135C207.741 220.135 206.608 220.96 206.917 221.957C207.226 222.955 209.833 226.943 211.686 228.078C213.539 229.213 212.955 226.84 212.407 225.362C211.858 223.883 210.485 220.651 209.936 220.101C209.422 219.585 207.741 220.135 207.741 220.135Z" fill="url(#paint21_linear)"/>
<path d="M205.751 216.112C206.3 217.625 206.815 218.863 207.226 219.791C208.118 221.82 208.633 222.577 209.182 223.23C209.662 223.814 210.829 225.018 211.137 224.846C211.446 224.64 210.623 223.161 208.976 218.76C208.736 218.141 207.981 216.112 207.981 216.112H205.751Z" fill="url(#paint22_linear)"/>
<path d="M166.913 152.843C166.536 156.66 166.158 162.539 166.707 169.726C167.428 179.079 169.28 184.993 171.648 194.931C173.089 201.017 175.01 209.991 176.725 221.167C177.137 221.407 178.304 221.992 179.847 221.785C180.705 221.648 181.357 221.304 181.734 221.063C186.298 207.069 184.959 198.403 182.764 193.005C181.837 190.701 180.671 188.879 180.088 185.337C179.298 180.661 180.293 178.047 181.7 167.182C182.729 159.445 182.524 158.241 181.872 157.107C179.127 152.465 170.893 152.568 166.913 152.843Z" fill="url(#paint23_linear)"/>
<path d="M138.471 113.678C138.471 113.678 137.819 111.168 136.755 110.48C135.692 109.827 134.182 109.105 133.839 108.795C133.496 108.486 133.084 109.38 134.079 110.033C135.074 110.687 135.074 110.687 135.074 110.687C135.109 110.858 135.074 111.03 135.04 111.099C134.868 111.581 134.354 111.89 133.668 111.959C131.129 112.509 130.099 112.509 129.722 112.406C129.653 112.406 129.448 112.303 129.345 112.406C129.207 112.578 129.448 113.059 129.585 113.231C130.271 114.297 132.673 114.744 134.457 113.919C135.109 113.609 135.349 113.3 135.829 113.369C136.584 113.506 137.064 114.503 137.339 115.329L138.471 113.678Z" fill="url(#paint24_linear)"/>
<path d="M182.626 154.459C185.44 168.935 188.185 176.569 190.243 180.867C190.758 181.933 192.473 185.337 194.086 190.254C195.527 194.587 196.11 197.785 196.419 199.194C197.379 203.63 199.781 210.129 206.197 218.622C206.265 218.656 207.363 219.275 208.427 218.725C208.941 218.45 209.216 218.003 209.319 217.797C208.495 209.682 207.501 202.839 206.677 197.544C206.506 196.444 205.716 191.595 204.516 185.199C204.035 182.689 203.349 179.045 202.526 175.262C201.496 170.586 199.884 164.19 197.448 156.556C192.507 155.903 187.567 155.181 182.626 154.459Z" fill="url(#paint25_linear)"/>
<path d="M136.413 114.469C137.133 113.815 137.854 113.162 138.608 112.509C138.883 112.784 142.76 116.566 148.181 115.432C151.92 114.641 154.082 111.546 155.454 109.586C159.606 103.672 157.135 99.3392 161.595 95.3505C162.831 94.2501 165.266 92.8747 166.845 93.2874C170.653 94.2501 172.814 105.7 169.143 114.675C168.389 116.497 164.34 126.469 155.077 127.57C147.632 128.464 139.706 123.203 136.413 114.469Z" fill="url(#paint26_linear)"/>
<path d="M180.225 97.1386C178.647 95.66 175.593 93.9751 174.084 90.0208C173.638 88.8173 171.991 84.6223 174.392 81.4245C175.799 79.4989 178.441 78.2266 180.774 78.6736C182.764 79.0519 183.073 80.4617 186.469 83.2469C187.773 84.3472 189.9 86.1009 192.267 87.0637C196.316 88.7142 198.717 87.1668 202.766 87.3388C207.741 87.5451 213.505 90.3303 216.318 94.3878C221.258 101.574 214.088 108.864 219.509 117.288C221.293 120.039 222.151 119.42 226.371 124.75C230.591 130.08 232.683 132.762 232.306 136.028C231.791 140.567 226.919 144.9 222.288 145.209C217.793 145.484 214.946 141.943 212.647 143.49C211.034 144.59 211.961 146.722 210.211 149.301C207.981 152.637 203.589 153.29 202.903 153.393C196.35 154.39 187.498 146.654 183.724 137.541C176.966 121.105 188.871 105.15 180.225 97.1386Z" fill="url(#paint27_linear)"/>
<path opacity="0.3" d="M182.73 193.005C181.803 190.701 180.637 188.879 180.054 185.337C179.265 180.661 180.26 178.047 181.666 167.182C182.696 159.445 182.49 158.241 181.838 157.107C180.363 154.597 177.275 153.462 174.118 153.015C174.153 153.187 174.187 153.324 174.221 153.496C175.868 161.095 169.555 165.737 172.403 174.093C173.809 178.219 176.074 179.148 176.589 183.927C177.069 188.397 175.285 189.326 175.662 193.418C176.245 199.504 180.534 200.982 181.666 205.625C182.387 208.65 181.769 213.086 176.451 219.482C176.554 220.032 176.623 220.582 176.726 221.167C177.137 221.407 178.304 221.992 179.848 221.786C180.706 221.648 181.357 221.304 181.735 221.064C186.298 207.069 184.926 198.404 182.73 193.005Z" fill="url(#paint28_linear)"/>
<path opacity="0.15" d="M166.021 104.257C159.194 109.655 159.949 120.039 155.729 120.59C154.459 120.761 154.528 119.764 151.44 118.767C146.945 117.323 144.853 118.767 141.696 117.667C140.392 117.22 138.677 116.223 137.03 113.919C136.824 114.091 136.618 114.297 136.413 114.469C139.706 123.203 147.632 128.464 155.077 127.604C164.34 126.538 168.423 116.532 169.143 114.71C170.859 110.48 171.305 105.735 170.893 101.781C169.315 102.262 167.599 102.984 166.021 104.257Z" fill="url(#paint29_linear)"/>
<path d="M161.046 96.0725C161.458 95.4192 162.796 93.5967 168.457 92.2901C171.305 91.6368 176.52 90.4677 183.279 91.9119C192.542 93.8718 198.306 99.4423 200.468 101.78C198.683 102.95 193.777 106.491 191.341 113.196C190.587 115.294 188.356 122.412 191.547 129.117C193.4 132.968 196.625 135.856 199.129 138.057C202.835 141.358 204.756 141.874 205.991 144.797C207.329 148.029 205.991 149.576 207.672 151.777C209.491 154.149 211.584 153.049 214.637 155.422C217.759 157.863 216.661 159.892 219.509 162.608C223.66 166.528 229.15 165.256 229.39 167.044C229.596 168.557 225.719 170.62 222.391 171.48C215.838 173.13 210.074 170.345 208.393 169.485C203.658 167.113 204.482 165.565 200.879 163.777C194.841 160.751 190.724 164.121 177.034 164.465C169.589 164.637 165.85 164.706 163.791 162.161C161.904 159.857 162.899 157.347 164.031 146.447C164.409 142.802 165.164 135.203 165.164 130.87C165.164 128.326 164.272 124.131 162.522 115.741C162.419 115.26 161.458 110.721 160.669 104.669C159.983 99.2359 160.086 97.5854 161.046 96.0725Z" fill="url(#paint30_linear)"/>
<g opacity="0.15">
<path opacity="0.15" d="M219.509 162.608C216.661 159.892 217.759 157.897 214.637 155.422C211.584 153.015 209.456 154.115 207.672 151.777C205.991 149.576 207.364 147.994 205.991 144.797C204.756 141.84 202.835 141.324 199.129 138.057C196.659 135.856 193.4 132.968 191.547 129.117C188.356 122.412 190.586 115.294 191.341 113.196C193.777 106.491 198.683 102.95 200.467 101.781C200.296 101.609 200.09 101.402 199.884 101.162C188.185 102.778 181.357 109.552 180.5 111.546C178.544 116.188 181.632 117.907 181.7 131.283C181.735 137.679 181.049 140.223 183.107 142.871C185.474 145.931 188.219 144.969 191.616 148.957C194.257 152.018 193.811 153.978 196.282 155.25C198.923 156.625 200.605 155.009 203.59 155.662C208.564 156.728 209.628 162.471 212.922 165.634C215.426 168.007 220.024 169.692 229.081 167.904C229.287 167.594 229.39 167.285 229.356 167.01C229.15 165.256 223.66 166.528 219.509 162.608Z" fill="url(#paint31_linear)"/>
</g>
<path d="M184.034 115.157C182.798 117.804 188.494 123.959 194.875 126.916C196.179 127.501 205.477 131.799 209.628 127.673C213.059 124.269 210.829 117.22 210.04 114.71C206.163 102.365 194.258 96.0727 189.283 93.8032C185.577 103.122 187.739 107.282 188.631 108.589C189.523 109.93 192.062 112.784 194.704 115.294C196.591 117.048 197.757 117.907 197.586 118.182C197.38 118.526 195.184 117.873 186.641 113.712C185.646 113.884 184.48 114.263 184.034 115.157Z" fill="url(#paint32_linear)"/>
<path d="M179.47 84.6223C179.47 84.6223 180.054 89.3675 181.803 90.4334C183.553 91.5338 186.366 92.9436 186.675 93.3218C186.984 93.7 175.868 94.9035 170.378 92.1183C172.197 91.7401 172.677 91.6025 172.677 91.6025C173.157 91.465 174.084 91.1899 175.01 90.6741C175.628 90.3303 176.657 89.6082 177.583 88.3015L177.549 85.6883L179.47 84.6223Z" fill="url(#paint33_linear)"/>
<path d="M179.745 86.307C179.745 86.307 178.613 87.8544 176.828 87.2354C175.25 86.6509 176.177 82.5246 177.446 82.0432C177.858 81.8713 178.647 81.9401 179.161 82.2839C179.539 82.5246 180.5 83.7281 179.951 85.0691C180.362 84.966 180.705 85.0691 180.808 85.2755C180.911 85.5161 180.568 85.86 180.5 85.9632C180.191 86.2039 179.882 86.2726 179.745 86.307Z" fill="url(#paint34_linear)"/>
<path d="M186.195 114.538C186.195 114.538 180.98 109.174 178.853 108.383C176.725 107.592 177.995 108.761 178.853 109.414C179.71 110.068 180.259 110.308 179.848 111.305C179.402 112.337 178.612 113.231 179.882 114.022C181.117 114.813 181.597 115.122 182.592 115.26C183.553 115.397 183.553 115.397 183.553 115.397L184.822 116.085C184.822 116.051 186.435 115.879 186.195 114.538Z" fill="url(#paint35_linear)"/>
<path d="M167.805 242.451C167.599 242.451 167.428 242.279 167.393 242.073L160.154 163.502C160.12 163.296 160.292 163.09 160.532 163.055C160.738 163.021 160.943 163.193 160.978 163.434L167.428 233.374V161.714C167.428 161.508 167.599 161.302 167.84 161.302C168.045 161.302 168.251 161.474 168.251 161.714V242.039C168.183 242.279 168.011 242.451 167.805 242.451Z" fill="#B7C0CE"/>
<path opacity="0.81" d="M248.706 170.311L169.109 161.577L16.1938 168.557L96.2711 178.151L248.706 170.311Z" fill="#F4F7FA"/>
<path d="M96.2711 178.151L248.706 170.311V174.093L96.2711 181.933L16.1938 172.34V168.557L96.2711 178.151Z" fill="#B7C0CE"/>
<path d="M96.8199 269.856C96.5798 269.856 96.4082 269.685 96.4082 269.444V181.039C96.4082 180.833 96.5798 180.626 96.8199 180.626C97.0258 180.626 97.2316 180.798 97.2316 181.039V259.197L103.339 181.005C103.373 180.798 103.544 180.626 103.785 180.626C103.991 180.661 104.162 180.833 104.162 181.073L97.2659 269.513C97.1973 269.685 97.0258 269.856 96.8199 269.856Z" fill="#B7C0CE"/>
<path d="M17.0518 254.142C16.8117 254.142 16.6401 253.97 16.6401 253.73V172.133C16.6401 171.927 16.8117 171.72 17.0518 171.72C17.2577 171.72 17.4636 171.892 17.4636 172.133V243.517L23.0559 172.099C23.0902 171.892 23.2618 171.72 23.5019 171.72C23.7078 171.755 23.8793 171.927 23.8793 172.167L17.4636 253.764C17.4636 253.97 17.2577 254.142 17.0518 254.142Z" fill="#B7C0CE"/>
<path d="M247.951 254.142C247.746 254.142 247.574 253.97 247.54 253.764L240.747 172.133C240.712 171.927 240.884 171.72 241.124 171.686C241.33 171.652 241.536 171.824 241.57 172.064L247.574 244.067V174.093C247.574 173.887 247.746 173.68 247.986 173.68C248.192 173.68 248.397 173.852 248.397 174.093V253.73C248.329 253.97 248.192 254.142 247.951 254.142Z" fill="#B7C0CE"/>
<path d="M73.3527 252.629C73.2155 251.907 70.8824 251.254 69.7159 252.217C69.1327 252.698 68.7553 253.695 69.0641 254.142C69.2013 254.314 68.6867 254.589 69.167 254.589C70.7452 254.589 73.4899 253.351 73.3527 252.629Z" fill="url(#paint36_linear)"/>
<path d="M70.7794 252.629L68.3434 252.767C69.2011 251.219 68.1719 247.059 68.1719 247.059L70.8137 247.127C70.8137 247.127 70.7451 248.331 70.5735 250.153C70.5392 250.738 70.6421 251.701 70.7794 252.629Z" fill="url(#paint37_linear)"/>
<path d="M71.0879 252.595C71.0879 252.595 68.1717 251.907 67.8629 252.492C67.5541 253.076 67.3139 254.623 69.1323 254.555C71.0193 254.52 71.2595 253.076 71.0879 252.595Z" fill="url(#paint38_linear)"/>
<path d="M88.1742 255.586C87.934 254.898 85.5324 254.555 84.5031 255.689C83.9884 256.24 83.7483 257.271 84.1257 257.684C84.2629 257.821 83.8169 258.165 84.2972 258.131C85.8754 257.924 88.4143 256.308 88.1742 255.586Z" fill="url(#paint39_linear)"/>
<path d="M85.3263 256.274L82.9246 256.755C83.5422 255.105 81.9297 251.116 81.9297 251.116L84.5372 250.807C84.5372 250.807 84.6401 252.01 84.743 253.833C84.8116 254.451 85.0175 255.345 85.3263 256.274Z" fill="url(#paint40_linear)"/>
<path d="M85.9438 255.896C85.9438 255.896 82.9589 255.655 82.7531 256.24C82.5129 256.859 82.5129 258.406 84.3313 258.131C86.1153 257.821 86.1839 256.343 85.9438 255.896Z" fill="url(#paint41_linear)"/>
<path d="M73.2499 182.896L83.5083 158.791C84.0229 157.588 83.3367 156.213 82.0673 155.903L63.266 151.33C62.2367 151.089 61.2074 151.605 60.7957 152.602L51.3607 175.778C50.8804 176.947 51.498 178.254 52.6988 178.597L70.6767 184.099C71.706 184.409 72.8039 183.893 73.2499 182.896Z" fill="#26264F"/>
<path d="M72.7696 181.727L82.3761 159.204C82.8565 158.069 82.2046 156.797 81.0381 156.488L63.4719 152.224C62.5112 151.983 61.5506 152.499 61.1732 153.393L52.3557 175.021C51.9097 176.087 52.493 177.325 53.5909 177.669L70.4023 182.827C71.3286 183.136 72.3579 182.655 72.7696 181.727Z" fill="url(#paint42_linear)"/>
<path d="M78.7048 175.125L79.0136 172.271L80.6604 169.141C80.8662 168.729 81.0035 168.247 81.0035 167.766V164.671L79.0479 169.245C79.0479 169.245 77.7441 168.076 77.2638 167.835C76.7835 167.594 76.8178 168.591 77.1952 168.935C77.5726 169.313 77.0236 172.339 77.3667 172.649L77.2295 174.506L78.7048 175.125Z" fill="url(#paint43_linear)"/>
<path d="M63.0257 157.038C61.4818 153.29 58.1881 151.124 56.507 149.989C52.4585 147.341 49.8854 147.823 40.6219 146.413C28.2707 144.522 26.7954 142.734 22.644 144.178C17.1889 146.069 14.3412 151.055 13.0375 153.324C6.45013 164.809 14.1354 170.62 12.1797 193.452C11.3563 202.77 9.29778 210.885 14.2726 215.699C15.3362 216.697 16.5027 217.247 18.8357 218.278C28.1334 222.473 36.4362 221.751 41.514 221.235C47.072 220.685 49.8854 220.376 51.3606 218.381C53.728 215.218 51.292 211.229 50.8803 204.318C50.5715 199.332 51.7037 195.412 53.9681 187.503C59.1831 169.21 65.9763 164.224 63.0257 157.038Z" fill="url(#paint44_linear)"/>
<path d="M42.3373 139.639C42.8862 137.644 41.9256 135.753 41.6854 135.375C40.7934 133.69 40.5532 133.484 40.1072 133.174L39.4896 132.796C39.4896 132.796 39.4553 132.796 39.421 132.762C39.0436 132.624 37.7056 132.59 37.4654 132.624C36.6077 132.796 35.7156 136.303 35.9558 141.221C35.9215 141.392 35.8872 141.599 35.8529 141.771C35.7156 142.562 35.6127 143.318 35.5441 144.04C35.4755 144.762 34.4462 144.728 33.76 144.693C30.8781 144.522 29.4371 144.762 29.3342 145.175C29.094 146 32.5249 148.648 36.7792 149.232C42.4745 149.267 47.1062 148.682 46.5916 147.754C46.3857 147.341 41.9599 146.206 40.7247 145.072C39.5925 144.04 39.6955 142.94 39.5925 142.183C39.9356 142.046 41.9256 141.117 42.3373 139.639Z" fill="url(#paint45_linear)"/>
<path d="M41.3081 131.386C41.3081 132.899 40.5876 134.55 40.2102 134.79C40.1759 134.825 39.9015 135.031 39.6613 135.409C39.627 135.444 39.5927 135.513 39.5584 135.581C39.2153 136.544 40.7592 137.679 40.4504 138.091C40.2446 138.401 39.2153 137.988 39.078 138.263C38.9751 138.504 39.8328 139.054 39.6956 139.329C39.5927 139.57 39.078 139.364 38.735 139.708C38.5634 139.88 38.632 140.017 38.4262 140.567C38.3232 140.877 38.186 141.186 38.0831 141.392C37.5684 142.286 36.0589 142.63 35.7844 142.252C35.7158 142.149 35.7844 142.08 35.6815 141.736C35.6815 141.736 35.6128 141.427 35.407 141.083C35.0982 140.567 34.3434 140.189 33.6229 139.673C32.2505 138.676 31.8732 137.816 31.7359 137.541C31.7016 137.438 31.6673 137.369 31.6673 137.301C31.2899 136.166 31.2899 134.515 31.8045 133.518C32.6623 131.833 34.5493 132.624 36.1275 130.939C37.9115 128.979 36.848 126.332 37.8429 126.057C38.9065 125.678 41.3081 128.601 41.3081 131.386Z" fill="#26264F"/>
<path d="M39.9355 137.748C39.5581 137.232 38.9062 137.713 38.9062 138.367C38.9062 139.02 39.5581 139.708 40.1757 139.604C40.7932 139.501 40.4158 138.47 39.9355 137.748Z" fill="url(#paint46_linear)"/>
<path d="M39.627 136.647L40.4847 137.782C40.4847 137.782 41.411 139.157 41.96 138.401C42.406 137.782 42.5089 137.782 42.5432 137.816C42.5432 137.816 42.4746 137.507 42.406 137.232C42.6461 137.576 42.9549 138.091 43.1608 138.813C43.3323 139.501 43.5382 140.258 43.1608 140.98C43.1265 141.014 42.7148 141.805 41.8913 141.977C41.8913 141.977 41.5826 142.046 40.2102 141.805C40.2102 141.805 41.6855 140.739 41.7198 140.464C41.7884 139.776 40.8278 139.398 40.1073 137.988C39.8328 137.507 39.6956 136.991 39.627 136.647Z" fill="#26264F"/>
<path opacity="0.3" d="M36.676 214.702C38.3228 211.435 34.3087 207.103 36.9162 202.117C39.1463 197.888 43.1947 198.816 45.0474 194.965C47.2775 190.288 42.4056 186.781 42.5772 179.663C42.783 171.136 50.0908 162.608 54.4138 163.365C57.1928 163.846 57.5702 168.007 59.5258 172.58C57.7761 176.397 55.7518 181.176 53.9334 187.572C51.669 195.446 50.5368 199.401 50.8456 204.386C51.2573 211.298 53.6933 215.321 51.326 218.45C49.8507 220.41 47.0373 220.754 41.4793 221.304C36.4358 221.82 28.0987 222.542 18.801 218.347C17.6345 217.831 16.7425 217.419 16.022 217.04C30.5347 219.138 35.3723 217.281 36.676 214.702Z" fill="url(#paint47_linear)"/>
<path d="M79.2538 174.574C78.3618 174.196 77.4354 173.783 76.5434 173.405C74.9995 174.987 73.0782 176.5 71.4314 175.984C68.9954 175.262 69.613 170.757 66.6281 162.814C63.2658 153.84 59.4232 151.536 57.5019 150.711C56.4383 150.229 55.6835 149.92 54.7915 150.161C50.6744 151.158 49.3364 161.886 50.4686 169.932C51.1204 174.471 52.3899 183.308 59.6634 187.538C60.6926 188.122 66.3536 191.423 71.9803 188.844C76.7836 186.609 79.7341 180.936 79.2538 174.574Z" fill="url(#paint48_linear)"/>
<path d="M72.3576 247.368C70.848 247.54 69.3384 247.712 67.8631 247.884C65.8389 245.615 62.8197 241.695 61.1729 236.159C58.0851 225.568 62.9226 218.622 59.6633 215.906C55.9236 212.777 48.4785 221.235 32.1131 223.608C26.8295 224.364 15.1645 226.084 10.4298 219.757C8.50853 217.212 7.41064 212.88 8.92024 209.235C11.6306 202.667 20.6196 203.458 50.1597 197.681C61.5503 195.446 63.3343 194.724 66.0448 196.031C79.4253 202.427 73.8329 238.6 72.3576 247.368Z" fill="url(#paint49_linear)"/>
<path d="M85.7722 251.632C84.2626 251.804 82.753 251.976 81.2777 252.148C79.2535 249.878 76.2343 245.958 74.5874 240.422C71.4996 229.832 76.3372 222.886 73.0778 220.169C69.3382 217.04 61.8931 225.499 45.5277 227.872C40.2441 228.628 28.579 230.347 23.8444 224.02C21.9231 221.476 20.8252 217.143 22.3348 213.499C25.0452 206.931 34.0342 207.722 63.5742 201.945C74.9648 199.71 76.7489 198.988 79.4593 200.295C92.8398 206.69 87.2475 242.864 85.7722 251.632Z" fill="url(#paint50_linear)"/>
<path d="M34.3434 279.966C48.0999 279.966 59.2518 275.409 59.2518 269.787C59.2518 264.166 48.0999 259.609 34.3434 259.609C20.5869 259.609 9.43506 264.166 9.43506 269.787C9.43506 275.409 20.5869 279.966 34.3434 279.966Z" fill="#B7C0CE"/>
<path d="M9.43506 268.618C9.43506 273.914 20.5855 278.246 34.3434 278.246C48.1013 278.246 59.2518 273.948 59.2518 268.618C59.2518 263.323 48.1013 254.624 34.3434 254.624C20.5855 254.589 9.43506 263.289 9.43506 268.618Z" fill="white"/>
<path opacity="0.3" d="M9.43506 268.618C9.43506 263.323 20.5855 254.624 34.3434 254.624C40.6906 254.624 46.4888 256.48 50.8804 258.99C51.1891 259.644 51.3264 260.297 51.2578 260.882C50.9833 263.873 46.1114 265.696 43.3324 266.315C36.299 267.828 32.8681 263.633 27.0699 263.804C23.5018 263.908 18.527 265.696 12.6258 273.364C10.6016 271.919 9.43506 270.303 9.43506 268.618Z" fill="url(#paint51_linear)"/>
<path d="M33.0053 259.438C34.0003 259.678 34.9266 259.678 35.8186 259.438C36.6078 259.231 37.1567 258.509 37.1567 257.684V229.522H31.5986V257.65C31.5986 258.509 32.1819 259.231 33.0053 259.438Z" fill="white"/>
<path opacity="0.65" d="M33.0053 259.438C34.0003 259.678 34.9266 259.678 35.8186 259.438C36.6078 259.231 37.1567 258.509 37.1567 257.684V229.522H31.5986V257.65C31.5986 258.509 32.1819 259.231 33.0053 259.438Z" fill="url(#paint52_linear)"/>
<path d="M63.6432 217.694L55.1688 212.33C54.8258 210.335 50.8116 189.36 34.6177 182.793C28.0304 180.111 20.9284 180.42 17.0515 180.592C9.29768 180.936 3.73962 181.177 1.09783 184.89C-2.33307 189.67 3.43084 193.968 2.23003 207.619C1.7497 213.189 0.514574 215.665 2.05848 219.344C3.91117 223.746 8.16549 226.187 11.4592 227.562C15.4047 229.866 22.3351 233.167 31.427 233.958C46.7631 235.299 58.2223 228.697 62.1679 226.187C63.9176 225.637 65.2214 224.158 65.5988 222.37C66.0105 220.548 65.2214 218.691 63.6432 217.694Z" fill="url(#paint53_linear)"/>
<path opacity="0.26" d="M59.7321 221.51C59.4234 219.619 54.1741 221.201 49.2336 217.487C41.8228 211.951 45.6654 202.633 39.2153 193.658C33.3142 185.44 21.3747 181.245 17.6693 184.374C12.7631 188.535 24.8056 204.146 17.6693 214.221C14.2041 219.104 8.92048 218.863 8.92048 221.751C8.88617 226.29 21.9922 231.517 34.4464 231.276C47.8269 231.035 60.2468 224.502 59.7321 221.51Z" fill="white"/>
<path d="M216.456 171.824L161.767 171.411V172.615C161.767 172.958 162.007 173.234 162.316 173.268L177.789 175.641C177.961 175.675 178.167 175.675 178.338 175.675L215.838 172.958C216.181 172.924 216.421 172.649 216.421 172.305V171.824H216.456Z" fill="#BFC8D6"/>
<path d="M196.625 169.829L162.35 172.03C161.733 172.064 161.252 171.652 161.252 171.102V148.786C161.252 148.235 161.767 147.788 162.35 147.788H196.625C197.14 147.788 197.551 148.201 197.551 148.717V168.901C197.517 169.382 197.105 169.795 196.625 169.829Z" fill="#BFC8D6"/>
<path d="M197.174 169.829L162.899 172.03C162.282 172.064 161.801 171.652 161.801 171.102V148.786C161.801 148.235 162.316 147.788 162.899 147.788H197.174C197.689 147.788 198.1 148.201 198.1 148.717V168.901C198.066 169.382 197.654 169.795 197.174 169.829Z" fill="#D8DEE8"/>
<path d="M196.076 168.419L164.135 170.345C163.62 170.379 163.243 170.036 163.243 169.589V150.023C163.243 149.576 163.654 149.198 164.135 149.198L196.076 149.061C196.488 149.061 196.831 149.404 196.831 149.817V167.629C196.831 168.041 196.522 168.385 196.076 168.419Z" fill="#EFF2F6"/>
<path d="M181.22 148.373C181.22 148.579 181.049 148.751 180.843 148.751C180.637 148.751 180.431 148.579 180.431 148.373C180.431 148.167 180.603 147.995 180.843 147.995C181.049 147.995 181.22 148.167 181.22 148.373Z" fill="white"/>
<path opacity="0.48" d="M189.043 163.743C186.401 162.436 184.308 164.087 182.284 162.471C181.049 161.474 181.666 160.752 180.157 159.273C178.476 157.657 177.412 158.207 175.731 156.729C173.604 154.872 174.667 153.428 172.849 152.121C170.653 150.505 168.251 152.018 166.159 150.47C165.267 149.817 164.752 148.82 164.477 147.788H162.419C162.042 147.788 161.767 148.063 161.767 148.373V171.549C161.767 171.892 162.076 172.133 162.419 172.099L197.517 169.829C197.689 169.829 197.826 169.726 197.929 169.589C195.356 169.52 193.777 168.729 192.782 167.904C190.827 166.322 191.17 164.775 189.043 163.743Z" fill="white"/>
<path d="M198.512 169.795L161.767 172.133L177.789 174.609C177.961 174.643 178.167 174.643 178.338 174.643L216.456 171.892L199.095 169.864C198.924 169.761 198.718 169.761 198.512 169.795Z" fill="white"/>
<path opacity="0.47" d="M167.119 172.133L197.723 170.173L207.192 171.273L176.863 173.371L167.119 172.133Z" fill="#D8DEE8"/>
<path d="M205.477 242.382C205.477 242.382 197.449 242.933 197.311 243.483C197.209 243.999 202.767 246.027 204.722 246.13C206.678 246.199 208.256 245.615 208.085 244.789C207.913 243.964 207.227 241.867 207.227 241.867L205.477 242.382Z" fill="url(#paint54_linear)"/>
<path d="M205.1 238.806L204.962 242.623C204.962 242.623 206.198 243.311 207.158 242.932L208.222 238.909L205.1 238.806Z" fill="url(#paint55_linear)"/>
<path d="M183.004 240.835C183.004 240.835 174.976 241.385 174.839 241.935C174.736 242.451 180.294 244.48 182.25 244.583C184.205 244.652 185.783 244.067 185.612 243.242C185.44 242.417 184.754 240.319 184.754 240.319L183.004 240.835Z" fill="url(#paint56_linear)"/>
<path d="M182.627 237.259L182.49 241.076C182.49 241.076 183.725 241.763 184.686 241.385L185.749 237.362L182.627 237.259Z" fill="url(#paint57_linear)"/>
<path d="M204.242 239.356C205.751 239.528 207.261 239.7 208.736 239.872C210.76 237.603 213.78 233.683 215.426 228.147C218.549 217.487 214.02 209.819 216.936 207.894C221.053 205.177 229.939 220.754 244.212 220.376C250.079 220.204 257.729 217.35 260.68 211.057C261.126 210.094 263.287 205.177 261.195 200.535C258.999 195.756 248.123 193.658 226.474 189.67C217.176 187.95 212.476 187.125 210.589 188.019C197.208 194.415 202.766 230.554 204.242 239.356Z" fill="url(#paint58_linear)"/>
<path d="M181.323 239.391C182.867 239.666 184.445 239.941 185.989 240.216C187.876 237.431 190.724 233.064 193.915 227.528C200.571 215.974 200.468 213.636 203.521 212.158C210.04 209.028 214.946 217.522 231.071 219.86C236.355 220.616 248.02 222.336 252.755 216.009C254.676 213.464 255.774 209.132 254.264 205.487C251.554 198.885 242.565 199.676 213.059 193.933C201.531 191.698 199.953 191.286 197.174 192.283C181.563 197.819 181.289 231.826 181.323 239.391Z" fill="url(#paint59_linear)"/>
<path d="M213.574 148.992C215.117 145.244 218.411 143.078 220.092 141.943C220.95 141.393 221.739 140.946 222.528 140.636C228.704 138.092 234.879 138.298 235.977 138.367C238.653 138.573 245.241 139.055 250.113 143.318C252.48 145.381 254.367 148.235 257.112 164.397C260.954 186.919 257.832 184.615 260.851 193.762C262.464 198.61 264.968 204.146 262.327 207.688C261.469 208.822 260.268 209.166 257.764 210.267C248.466 214.462 240.163 213.74 235.085 213.224C229.527 212.674 226.714 212.364 225.239 210.37C222.871 207.206 225.307 203.218 225.719 196.306C226.028 191.32 224.895 187.4 222.631 179.492C217.45 161.164 210.657 156.178 213.574 148.992Z" fill="url(#paint60_linear)"/>
<path d="M187.43 171.411L181.495 170.276C181.083 170.208 180.637 170.173 180.191 170.276L175.044 171.17C175.044 171.17 178.372 172.511 181.22 172.099C184.068 171.686 187.156 173.268 187.156 173.268L187.43 171.411Z" fill="url(#paint61_linear)"/>
<path d="M226.714 134.206C225.719 132.693 227.195 129.77 227.812 128.636C227.846 128.601 227.846 128.532 227.915 128.429C228.807 126.744 229.047 126.538 229.493 126.229L230.111 125.85C230.111 125.85 230.145 125.85 230.179 125.816C230.557 125.678 231.895 125.644 232.135 125.678C232.993 125.85 233.885 129.323 233.645 134.275C233.679 134.447 233.713 134.653 233.748 134.859C233.885 135.65 233.988 136.407 234.056 137.129C234.125 137.851 235.154 137.816 235.84 137.782C238.722 137.61 240.163 137.851 240.266 138.263C240.506 139.089 237.076 141.736 232.821 142.321C227.126 142.355 222.494 141.771 223.009 140.842C223.215 140.43 227.641 139.295 228.876 138.16C230.008 137.129 229.905 136.028 230.008 135.272C229.425 135.306 227.469 135.341 226.714 134.206Z" fill="url(#paint62_linear)"/>
<path d="M228.327 124.475C227.846 125.507 228.979 127.604 229.425 127.879C229.459 127.914 229.733 128.12 229.974 128.498C230.008 128.532 230.042 128.601 230.076 128.67C230.42 129.633 228.876 130.768 229.184 131.18C229.39 131.49 230.42 131.077 230.557 131.352C230.66 131.593 229.802 132.143 229.939 132.418C230.042 132.659 230.557 132.452 230.9 132.796C231.174 133.071 231.174 133.45 231.209 133.656C231.243 135.031 228.155 139.948 227.503 142.183C226.817 144.556 228.052 146.791 232.478 152.98C238.791 161.817 241.947 166.219 243.697 167.491C252.274 173.646 262.361 172.89 266.478 172.271C271.453 171.514 281.712 169.898 285.005 161.989C288.814 152.877 281.334 140.43 273.649 138.332C270.149 137.369 268.262 138.848 263.734 137.232C258.69 135.478 259.308 132.384 254.642 130.527C248.432 128.085 244.418 132.452 240.198 129.255C237.899 127.535 238.276 125.61 235.429 124.234C232.581 122.893 228.91 123.1 228.327 124.475Z" fill="#26264F"/>
<path d="M229.699 130.836C230.077 130.32 230.729 130.802 230.729 131.455C230.729 132.108 230.077 132.796 229.459 132.693C228.842 132.555 229.185 131.524 229.699 130.836Z" fill="url(#paint63_linear)"/>
<path opacity="0.3" d="M239.957 206.656C238.31 203.389 242.325 199.057 239.717 194.071C237.487 189.841 233.439 190.77 231.586 186.919C229.356 182.242 234.228 178.735 234.056 171.617C233.85 163.09 226.542 154.562 222.219 155.319C219.44 155.8 219.063 159.961 217.107 164.534C218.857 168.351 220.881 173.13 222.7 179.526C224.964 187.4 226.096 191.354 225.788 196.34C225.376 203.252 222.94 207.275 225.307 210.404C226.783 212.364 229.596 212.708 235.154 213.258C240.197 213.774 248.534 214.496 257.832 210.301C258.999 209.785 259.891 209.372 260.611 208.994C246.099 211.126 241.261 209.269 239.957 206.656Z" fill="url(#paint64_linear)"/>
<path d="M185.886 173.165C186.058 172.408 186.229 171.652 186.401 170.895C197.791 172.958 202.801 170.655 205.202 167.973C207.398 165.497 206.472 164.225 210.005 154.803C213.368 145.828 217.21 143.525 219.132 142.699C220.195 142.218 220.95 141.908 221.842 142.149C225.959 143.146 227.297 153.875 226.165 161.921C225.513 166.46 224.244 175.297 216.97 179.526C216.833 179.595 216.627 179.732 216.353 179.87C215.426 180.351 211.79 182.105 204.653 180.833C196.213 179.251 187.979 174.437 185.886 173.165Z" fill="url(#paint65_linear)"/>
<path d="M238.688 268.343C252.444 268.343 263.596 263.787 263.596 258.165C263.596 252.544 252.444 247.987 238.688 247.987C224.931 247.987 213.779 252.544 213.779 258.165C213.779 263.787 224.931 268.343 238.688 268.343Z" fill="#B7C0CE"/>
<path d="M263.596 256.962C263.596 262.257 252.446 266.59 238.688 266.59C224.93 266.59 213.779 262.292 213.779 256.962C213.779 251.667 224.93 242.967 238.688 242.967C252.446 242.967 263.596 251.667 263.596 256.962Z" fill="white"/>
<path opacity="0.3" d="M263.596 256.962C263.596 251.667 252.445 242.967 238.688 242.967C232.34 242.967 226.542 244.824 222.151 247.334C221.842 247.987 221.705 248.641 221.773 249.225C222.048 252.217 226.92 254.039 229.699 254.658C236.732 256.171 240.163 251.976 245.961 252.148C249.529 252.251 254.504 254.039 260.405 261.707C262.429 260.297 263.596 258.681 263.596 256.962Z" fill="url(#paint66_linear)"/>
<path d="M240.06 247.781C239.065 248.022 238.139 248.022 237.247 247.781C236.458 247.575 235.909 246.853 235.909 246.027V217.866H241.432V245.993C241.467 246.853 240.884 247.575 240.06 247.781Z" fill="white"/>
<path opacity="0.65" d="M240.06 247.781C239.065 248.022 238.139 248.022 237.247 247.781C236.458 247.575 235.909 246.853 235.909 246.027V217.866H241.432V245.993C241.467 246.853 240.884 247.575 240.06 247.781Z" fill="url(#paint67_linear)"/>
<path d="M209.422 206.037L217.896 200.673C218.239 198.679 222.254 177.704 238.447 171.136C245.035 168.454 252.137 168.763 256.014 168.935C263.768 169.279 269.326 169.52 271.967 173.233C275.398 178.013 269.634 182.311 270.835 195.962C271.316 201.533 272.551 204.008 271.007 207.688C269.154 212.089 264.9 214.53 261.606 215.906C257.661 218.209 250.73 221.51 241.638 222.301C226.302 223.642 214.843 217.04 210.897 214.53C209.148 213.98 207.844 212.501 207.466 210.713C207.055 208.925 207.844 207.034 209.422 206.037Z" fill="url(#paint68_linear)"/>
<path opacity="0.26" d="M213.333 209.854C213.642 207.963 218.891 209.545 223.832 205.831C231.243 200.295 227.4 190.976 233.85 182.002C239.751 173.784 251.691 169.589 255.396 172.718C260.302 176.878 248.26 192.489 255.396 202.564C258.861 207.447 264.145 207.206 264.145 210.095C264.179 214.634 251.073 219.86 238.619 219.619C225.204 219.413 212.819 212.846 213.333 209.854Z" fill="white"/>
<path d="M94.1783 68.9082C98.2954 63.7848 100.628 57.8361 100.628 51.5436C100.628 33.2506 80.5919 18.7056 55.512 19.0494C30.089 19.3933 9.19482 34.8667 9.19482 53.6411C9.19482 72.4155 30.089 86.9261 55.512 86.1009C64.947 85.7914 73.6615 83.4188 80.8664 79.6021C85.601 80.2554 92.9432 81.3213 96.8201 81.9059C97.9523 82.0778 98.8786 80.9775 98.4669 79.9115L94.1783 68.9082Z" fill="url(#paint69_linear)"/>
<path d="M129.139 60.1744C124.645 54.7072 122.037 48.1396 122.037 40.953C122.037 20.0811 143.652 3.09475 169.143 3.06036C193.4 3.02597 212.236 18.465 212.236 37.5833C212.236 56.7015 193.4 73.5504 169.143 75.3384C159.743 76.0261 150.857 74.3756 143.343 70.9027C138.334 72.1062 130.443 74.1349 126.257 75.2352C125.022 75.5447 123.993 74.41 124.439 73.1721L129.139 60.1744Z" fill="url(#paint70_linear)"/>
<path d="M193.126 47.4509C194.601 48.2074 196.454 47.5197 197.277 45.9036C198.1 44.2875 197.552 42.3963 196.076 41.6398C196.008 41.6054 195.905 41.571 195.836 41.5366C196.111 40.6426 196.316 39.7486 196.454 38.8546C196.522 38.8546 196.625 38.8546 196.694 38.8546C198.375 38.717 199.713 37.1697 199.679 35.3817C199.644 33.628 198.238 32.3214 196.557 32.4589C196.454 32.4589 196.385 32.4933 196.282 32.4933C196.111 31.6337 195.87 30.774 195.562 29.9488C195.63 29.9144 195.733 29.8456 195.802 29.8112C197.243 28.8141 197.689 26.8197 196.831 25.3411C195.973 23.8969 194.086 23.5187 192.645 24.5503C192.577 24.619 192.508 24.6534 192.44 24.7222C191.856 24.1033 191.239 23.5187 190.587 22.9685C190.621 22.8998 190.69 22.7966 190.724 22.7278C191.547 21.1117 192.611 19.3925 191.101 18.636C187.671 16.9511 186.195 18.3953 185.372 20.0114C185.338 20.0802 185.303 20.1833 185.269 20.2521C184.446 20.0114 183.588 19.8739 182.764 19.7707C182.764 19.6676 182.764 19.5988 182.764 19.4956C182.73 17.742 183.245 16.7792 181.564 16.7448C177.892 16.676 176.623 18.2921 176.657 20.0458C176.657 20.1489 176.657 20.2177 176.692 20.3209C175.834 20.5616 175.011 20.871 174.221 21.2493C174.187 21.1805 174.153 21.0773 174.084 21.0086C173.226 19.5644 171.339 19.1862 169.899 20.2177C168.458 21.2149 168.012 23.2092 168.869 24.6878C168.904 24.7566 168.972 24.8254 169.006 24.8941C168.355 25.5474 167.771 26.2352 167.222 26.9572C167.154 26.9229 167.085 26.8541 167.017 26.8197C165.541 26.0632 163.689 26.7509 162.865 28.367C162.042 29.9832 162.591 31.8744 164.066 32.6308C164.135 32.6652 164.238 32.6996 164.306 32.734C164.032 33.628 163.826 34.522 163.689 35.416C163.62 35.416 163.517 35.416 163.448 35.416C161.767 35.5536 160.429 37.1009 160.464 38.889C160.498 40.6426 161.905 41.9493 163.586 41.8117C163.689 41.8117 163.757 41.7773 163.86 41.7773C164.032 42.637 164.272 43.4966 164.581 44.3219C164.512 44.3562 164.409 44.425 164.34 44.4594C162.899 45.4566 162.453 47.4509 163.311 48.9295C164.169 50.3737 167.085 51.0614 168.526 50.0298C168.595 49.9611 167.668 49.6172 167.737 49.5484C168.32 50.1674 168.938 50.7519 169.59 51.3021C169.555 51.3709 169.487 51.474 169.452 51.5428C168.629 53.1589 169.178 55.0501 170.653 55.8066C172.129 56.563 173.981 55.8753 174.805 54.2592C174.839 54.1905 174.873 54.0873 174.908 54.0185C175.731 54.2592 176.589 54.3968 177.412 54.4999C177.412 54.6031 177.412 54.6718 177.412 54.775C177.446 56.5287 178.853 57.8353 180.534 57.6978C182.215 57.5602 183.553 56.0129 183.519 54.2248C183.519 54.1217 183.519 54.0529 183.485 53.9498C184.343 53.7091 185.166 53.3996 185.955 53.0214C185.989 53.0901 186.024 53.1933 186.092 53.262C186.95 54.7062 188.837 55.0845 190.278 54.0529C191.719 53.0557 192.165 51.0614 191.307 49.5828C191.273 49.514 191.204 49.4453 191.17 49.3765C191.822 48.7232 192.405 48.0355 192.954 47.3134C192.988 47.3822 193.057 47.4165 193.126 47.4509ZM174.736 47.6916C169.384 44.9752 167.428 38.0293 170.379 32.2182C173.329 26.4071 180.054 23.8969 185.406 26.6134C190.758 29.3298 192.714 36.2757 189.763 42.0868C186.847 47.8979 180.088 50.4081 174.736 47.6916Z" fill="#D8DEE8"/>
<path d="M196.728 38.8899C198.409 38.7523 199.747 37.205 199.713 35.417C199.679 33.6633 198.272 32.3567 196.591 32.4942C196.488 32.4942 196.419 32.5286 196.317 32.5286C196.145 31.669 195.905 30.8093 195.596 29.9841C195.665 29.9497 195.768 29.8809 195.836 29.8465C197.277 28.8494 199.061 26.408 198.032 25.0326C196.111 22.4537 194.121 23.5884 192.68 24.5856C192.611 24.6543 192.543 24.6887 192.474 24.7575C191.891 24.1386 191.273 23.554 190.621 23.0038C190.656 22.9351 190.724 22.8319 190.758 22.7631C191.204 21.9035 191.239 20.9407 190.964 20.1155C189.558 22.5568 188.185 25.0326 186.847 27.5083C191.136 30.6374 192.474 36.8268 189.798 42.0877C187.533 46.5578 183.039 49.0679 178.647 48.7585C178.442 49.2743 178.27 49.79 178.064 50.2714C177.481 51.6468 176.863 52.9879 176.211 54.3289C176.623 54.3977 177.035 54.4664 177.447 54.5008C177.447 54.604 177.447 54.6728 177.447 54.7759C177.481 56.5296 178.544 58.0425 181.598 57.8706C183.279 57.7674 183.588 55.9794 183.554 54.2257C183.554 54.1226 183.554 54.0538 183.519 53.9507C184.377 53.71 185.2 53.4005 185.99 53.0223C186.024 53.091 186.058 53.1942 186.127 53.263C186.984 54.7071 190.038 55.3261 191.479 54.3289C192.92 53.3317 192.234 51.0623 191.342 49.6181C191.307 49.5493 191.239 49.4806 191.204 49.4118C191.856 48.7585 192.44 48.0708 192.989 47.3487C193.057 47.3831 193.126 47.4518 193.194 47.4862C194.67 48.2427 196.522 47.555 197.346 45.9389C198.169 44.3228 197.62 42.4316 196.145 41.6751C196.076 41.6407 195.973 41.6063 195.905 41.5719C196.179 40.6779 196.385 39.7839 196.522 38.8899C196.557 38.8899 196.625 38.8899 196.728 38.8899Z" fill="#D8DEE8"/>
<path d="M194.738 47.6238C196.213 48.3803 198.066 47.6926 198.889 46.0765C199.713 44.4604 199.164 42.5692 197.689 41.8127C197.62 41.7783 197.517 41.7439 197.448 41.7095C197.723 40.8155 197.929 39.9215 198.066 39.0275C198.135 39.0275 198.238 39.0275 198.306 39.0275C199.987 38.8899 201.325 37.3426 201.291 35.5546C201.257 33.8009 199.85 32.4943 198.169 32.6318C198.066 32.6318 197.997 32.6662 197.894 32.6662C197.723 31.8066 197.483 30.9469 197.174 30.1217C197.243 30.0873 197.346 30.0185 197.414 29.9841C198.855 28.987 199.301 26.9926 198.443 25.514C197.586 24.0699 195.699 23.6916 194.258 24.7232C194.189 24.7919 194.12 24.8263 194.052 24.8951C193.469 24.2762 192.851 23.6916 192.199 23.1415C192.234 23.0727 192.302 22.9695 192.336 22.9008C193.16 21.2846 192.611 19.3934 191.136 18.637C189.66 17.8805 187.808 18.5682 186.984 20.1843C186.95 20.2531 186.916 20.3562 186.881 20.425C186.058 20.1843 185.2 20.0468 184.377 19.9436C184.377 19.8405 184.377 19.7717 184.377 19.6685C184.342 17.9149 182.936 16.6082 181.255 16.7458C179.573 16.8833 178.235 18.4307 178.27 20.2187C178.27 20.3219 178.27 20.3906 178.304 20.4938C177.446 20.7345 176.623 21.0439 175.834 21.4222C175.799 21.3534 175.765 21.2503 175.697 21.1815C174.839 19.7373 172.952 19.3591 171.511 20.3906C170.07 21.3878 169.624 23.3822 170.482 24.8607C170.516 24.9295 170.584 24.9983 170.619 25.067C169.967 25.7204 169.384 26.4081 168.835 27.1302C168.766 27.0958 168.697 27.027 168.629 26.9926C167.154 26.2361 165.301 26.9238 164.477 28.54C163.654 30.1561 164.203 32.0473 165.678 32.8037C165.747 32.8381 165.85 32.8725 165.918 32.9069C165.644 33.8009 165.438 34.6949 165.301 35.589C165.232 35.589 165.129 35.589 165.061 35.589C163.38 35.7265 162.042 37.2738 162.076 39.0619C162.11 40.8155 163.517 42.1222 165.198 41.9846C165.301 41.9846 165.37 41.9502 165.472 41.9502C165.644 42.8099 165.884 43.6695 166.193 44.4948C166.124 44.5291 166.021 44.5979 165.953 44.6323C164.512 45.6295 164.066 47.6238 164.923 49.1024C165.781 50.5466 167.668 50.9248 169.109 49.8933C169.178 49.8245 169.246 49.7901 169.315 49.7213C169.898 50.3403 170.516 50.9248 171.168 51.475C171.133 51.5438 171.065 51.6469 171.031 51.7157C170.207 53.3318 170.756 55.223 172.231 55.9795C173.707 56.736 175.559 56.0482 176.383 54.4321C176.417 54.3634 176.451 54.2602 176.486 54.1914C177.309 54.4321 178.167 54.5697 178.99 54.6728C178.99 54.776 178.99 54.8448 178.99 54.9479C179.025 56.7016 180.431 58.0082 182.112 57.8707C183.793 57.7331 185.132 56.1858 185.097 54.3977C185.097 54.2946 185.097 54.2258 185.063 54.1227C185.921 53.882 186.744 53.5725 187.533 53.1943C187.567 53.263 187.602 53.3662 187.67 53.435C188.528 54.8791 190.415 55.2574 191.856 54.2258C193.297 53.2286 193.743 51.2343 192.885 49.7557C192.851 49.687 192.782 49.6182 192.748 49.5494C193.4 48.8961 193.983 48.2084 194.532 47.4863C194.567 47.5551 194.635 47.5894 194.738 47.6238ZM176.348 47.8645C170.996 45.1481 169.041 38.2022 171.991 32.3911C174.942 26.58 181.666 24.0699 187.019 26.7863C192.371 29.5027 194.326 36.4486 191.376 42.2597C188.425 48.1052 181.701 50.581 176.348 47.8645Z" fill="white"/>
<path d="M155.146 55.2578C155.969 55.6704 156.964 55.2922 157.41 54.3981C157.856 53.5041 157.547 52.4726 156.758 52.0599C156.724 52.0256 156.689 52.0256 156.621 51.9912C156.758 51.5098 156.895 51.0284 156.964 50.5126C156.998 50.5126 157.067 50.5126 157.101 50.5126C158.027 50.4438 158.748 49.5842 158.748 48.6214C158.714 47.6586 157.959 46.9365 157.033 47.0053C156.998 47.0053 156.93 47.0053 156.895 47.0397C156.792 46.5583 156.655 46.0769 156.484 45.6299C156.518 45.5955 156.552 45.5955 156.621 45.5611C157.41 45.0109 157.65 43.9106 157.17 43.1198C156.689 42.3289 155.66 42.1226 154.871 42.6727C154.837 42.7071 154.802 42.7415 154.768 42.7759C154.459 42.432 154.116 42.1226 153.739 41.8131C153.773 41.7787 153.807 41.71 153.807 41.6756C154.253 40.7815 154.837 39.8188 154.013 39.4405C152.126 38.5121 151.303 39.303 150.857 40.197C150.823 40.2314 150.823 40.3002 150.788 40.3345C150.342 40.197 149.862 40.1282 149.416 40.0595C149.416 40.0251 149.416 39.9563 149.416 39.9219C149.382 38.9591 149.69 38.4433 148.764 38.409C146.74 38.3746 146.054 39.2342 146.088 40.2314C146.088 40.2658 146.088 40.3345 146.088 40.3689C145.608 40.5065 145.162 40.6784 144.716 40.8847C144.681 40.8503 144.681 40.7815 144.647 40.7472C144.167 39.9563 143.137 39.75 142.348 40.3002C141.559 40.8503 141.319 41.9507 141.799 42.7415C141.834 42.7759 141.834 42.8103 141.868 42.8447C141.525 43.1885 141.182 43.5668 140.873 43.9794C140.839 43.945 140.804 43.945 140.736 43.9106C139.912 43.498 138.917 43.8762 138.471 44.7702C138.025 45.6643 138.334 46.6958 139.123 47.1085C139.158 47.1428 139.192 47.1428 139.26 47.1772C139.123 47.6586 138.986 48.14 138.917 48.6558C138.883 48.6558 138.814 48.6558 138.78 48.6558C137.854 48.7246 137.133 49.5842 137.133 50.547C137.168 51.5098 137.922 52.2319 138.849 52.1631C138.883 52.1631 138.952 52.1631 138.986 52.1287C139.089 52.6101 139.226 53.0915 139.398 53.5385C139.363 53.5729 139.329 53.5729 139.26 53.6073C138.471 54.1574 138.231 55.2578 138.712 56.0486C139.192 56.8395 140.77 57.2177 141.559 56.6676C141.593 56.6332 141.079 56.4269 141.113 56.3925C141.422 56.7364 141.765 57.0458 142.142 57.3553C142.108 57.3897 142.074 57.4584 142.074 57.4928C141.628 58.3869 141.937 59.4184 142.726 59.831C143.549 60.2437 144.544 59.8654 144.99 58.9714C145.024 58.937 145.024 58.8682 145.059 58.8339C145.505 58.9714 145.985 59.0402 146.431 59.1089C146.431 59.1433 146.431 59.2121 146.431 59.2465C146.465 60.2093 147.22 60.9314 148.146 60.8626C149.073 60.7938 149.793 59.9342 149.793 58.9714C149.793 58.937 149.793 58.8682 149.793 58.8339C150.274 58.6963 150.72 58.5244 151.166 58.3181C151.2 58.3525 151.2 58.4212 151.234 58.4556C151.715 59.2465 152.744 59.4528 153.533 58.9026C154.322 58.3525 154.562 57.2521 154.082 56.4613C154.048 56.4269 154.013 56.3925 154.013 56.3581C154.356 56.0143 154.7 55.636 155.008 55.2234C155.077 55.2234 155.111 55.2234 155.146 55.2578ZM145.059 55.3953C142.108 53.8824 141.045 50.1 142.657 46.9021C144.27 43.7043 147.975 42.3289 150.926 43.8418C153.876 45.3548 154.94 49.1372 153.327 52.335C151.68 55.4985 147.975 56.8739 145.059 55.3953Z" fill="#D8DEE8"/>
<path d="M157.136 50.5466C158.062 50.4778 158.782 49.6182 158.782 48.6554C158.748 47.6926 157.993 46.9705 157.067 47.0393C157.033 47.0393 156.964 47.0393 156.93 47.0737C156.827 46.5923 156.69 46.1109 156.518 45.6639C156.552 45.6295 156.587 45.6295 156.655 45.5951C157.444 45.0449 158.439 43.7039 157.856 42.9474C156.792 41.5376 155.695 42.1566 154.905 42.7067C154.871 42.7411 154.837 42.7755 154.803 42.8099C154.494 42.466 154.151 42.1566 153.773 41.8471C153.808 41.8127 153.842 41.744 153.842 41.7096C154.082 41.2282 154.116 40.7124 153.945 40.2654C153.19 41.6064 152.435 42.9818 151.68 44.3229C154.013 46.0421 154.768 49.4463 153.293 52.3346C152.058 54.776 149.588 56.1858 147.152 55.9795C147.049 56.2546 146.946 56.5297 146.809 56.8047C146.5 57.5612 146.157 58.2833 145.779 59.0398C146.019 59.0742 146.225 59.1086 146.465 59.1429C146.465 59.1773 146.465 59.2461 146.465 59.2805C146.5 60.2433 147.083 61.0685 148.764 60.9654C149.691 60.931 149.862 59.9338 149.828 58.971C149.828 58.9366 149.828 58.8679 149.828 58.8335C150.308 58.6959 150.754 58.524 151.2 58.3177C151.234 58.3521 151.234 58.4209 151.269 58.4552C151.749 59.2461 153.396 59.59 154.219 59.0398C155.008 58.4896 154.631 57.2518 154.151 56.4609C154.116 56.4265 154.082 56.3921 154.082 56.3577C154.425 56.0139 154.768 55.6356 155.077 55.223C155.111 55.2574 155.146 55.2574 155.214 55.2918C156.038 55.7044 157.033 55.3262 157.479 54.4322C157.925 53.5381 157.616 52.5066 156.827 52.0939C156.792 52.0596 156.758 52.0596 156.69 52.0252C156.827 51.5438 156.964 51.0624 157.033 50.5466C157.033 50.5466 157.067 50.5466 157.136 50.5466Z" fill="#D8DEE8"/>
<path d="M156.038 55.3606C156.861 55.7732 157.856 55.3949 158.302 54.5009C158.748 53.6069 158.439 52.5753 157.65 52.1627C157.616 52.1283 157.582 52.1283 157.513 52.094C157.65 51.6126 157.787 51.1312 157.856 50.6154C157.89 50.6154 157.959 50.6154 157.993 50.6154C158.92 50.5466 159.64 49.687 159.64 48.7242C159.606 47.7614 158.851 47.0393 157.925 47.1081C157.89 47.1081 157.822 47.1081 157.787 47.1425C157.684 46.6611 157.547 46.1797 157.376 45.7327C157.41 45.6983 157.444 45.6983 157.513 45.6639C158.302 45.1137 158.542 44.0134 158.062 43.2225C157.582 42.4317 156.552 42.2254 155.763 42.7755C155.729 42.8099 155.695 42.8443 155.66 42.8787C155.351 42.5348 155.008 42.2254 154.631 41.9159C154.665 41.8815 154.7 41.8127 154.7 41.7783C155.146 40.8843 154.837 39.8528 154.048 39.4401C153.224 39.0275 152.229 39.4058 151.783 40.2998C151.749 40.3342 151.749 40.4029 151.715 40.4373C151.269 40.2998 150.788 40.231 150.342 40.1622C150.342 40.1279 150.342 40.0591 150.342 40.0247C150.308 39.0619 149.553 38.3398 148.627 38.4086C147.701 38.4774 146.98 39.337 146.98 40.2998C146.98 40.3342 146.98 40.4029 146.98 40.4373C146.5 40.5749 146.054 40.7468 145.608 40.9531C145.573 40.9187 145.573 40.8499 145.539 40.8156C145.059 40.0247 144.029 39.8184 143.24 40.3686C142.451 40.9187 142.211 42.019 142.691 42.8099C142.726 42.8443 142.726 42.8787 142.76 42.9131C142.417 43.2569 142.074 43.6352 141.765 44.0478C141.731 44.0134 141.696 44.0134 141.628 43.979C140.804 43.5664 139.809 43.9446 139.363 44.8386C138.917 45.7327 139.226 46.7642 140.015 47.1768C140.05 47.2112 140.084 47.2112 140.153 47.2456C140.015 47.727 139.878 48.2084 139.809 48.7242C139.775 48.7242 139.707 48.7242 139.672 48.7242C138.746 48.793 138.025 49.6526 138.025 50.6154C138.06 51.5782 138.814 52.3003 139.741 52.2315C139.775 52.2315 139.844 52.2315 139.878 52.1971C139.981 52.6785 140.118 53.1599 140.29 53.6069C140.255 53.6413 140.221 53.6413 140.153 53.6757C139.363 54.2258 139.123 55.3262 139.604 56.117C140.084 56.9079 141.113 57.1142 141.902 56.5641C141.937 56.5297 141.971 56.4953 142.005 56.4609C142.314 56.8047 142.657 57.1142 143.035 57.4237C143 57.4581 142.966 57.5268 142.966 57.5612C142.52 58.4552 142.829 59.4868 143.618 59.8994C144.441 60.3121 145.436 59.9338 145.882 59.0398C145.916 59.0054 145.916 58.9366 145.951 58.9023C146.397 59.0398 146.877 59.1086 147.323 59.1773C147.323 59.2117 147.323 59.2805 147.323 59.3149C147.357 60.2777 148.112 60.9998 149.039 60.931C149.965 60.8622 150.685 60.0026 150.685 59.0398C150.685 59.0054 150.685 58.9366 150.685 58.9023C151.166 58.7647 151.612 58.5928 152.058 58.3865C152.092 58.4209 152.092 58.4896 152.126 58.524C152.607 59.3149 153.636 59.5212 154.425 58.971C155.214 58.4209 155.454 57.3205 154.974 56.5297C154.94 56.4953 154.94 56.4609 154.905 56.4265C155.249 56.0827 155.592 55.7044 155.9 55.2918C155.935 55.3262 155.969 55.3262 156.038 55.3606ZM145.916 55.4981C142.966 53.9851 141.902 50.2028 143.515 47.0049C145.127 43.8071 148.833 42.4317 151.783 43.9446C154.734 45.4576 155.797 49.24 154.185 52.4378C152.572 55.6013 148.867 56.9767 145.916 55.4981Z" fill="white"/>
<path d="M157.41 31.05C157.925 31.3251 158.611 31.0844 158.885 30.4998C159.16 29.9153 158.988 29.262 158.439 28.9869C158.405 28.9869 158.371 28.9525 158.371 28.9525C158.474 28.643 158.542 28.3336 158.577 27.9897C158.611 27.9897 158.645 27.9897 158.68 27.9897C159.297 27.9209 159.743 27.3708 159.743 26.7518C159.743 26.1329 159.228 25.6515 158.645 25.7203C158.611 25.7203 158.577 25.7203 158.542 25.7203C158.474 25.4108 158.405 25.1013 158.268 24.7919C158.302 24.7919 158.336 24.7575 158.336 24.7231C158.851 24.3449 159.023 23.6572 158.714 23.1414C158.405 22.6256 157.719 22.488 157.204 22.8663C157.17 22.9007 157.17 22.9007 157.136 22.9351C156.93 22.6944 156.724 22.488 156.484 22.3161C156.484 22.2817 156.518 22.2473 156.518 22.2473C156.793 21.6628 157.17 21.0439 156.655 20.8032C155.42 20.2186 154.906 20.7 154.597 21.2846C154.597 21.3189 154.562 21.3533 154.562 21.3877C154.254 21.3189 153.979 21.2502 153.67 21.2158C153.67 21.1814 153.67 21.147 153.67 21.1126C153.67 20.4937 153.842 20.1498 153.224 20.1155C151.921 20.0811 151.475 20.6656 151.475 21.2846C151.475 21.3189 151.475 21.3533 151.475 21.3877C151.166 21.4909 150.891 21.594 150.583 21.7316C150.583 21.6972 150.548 21.6628 150.548 21.6628C150.24 21.147 149.553 21.0095 149.039 21.3877C148.524 21.766 148.353 22.4537 148.661 22.9694C148.661 23.0038 148.696 23.0038 148.696 23.0382C148.455 23.2789 148.25 23.5196 148.044 23.7947C148.009 23.7947 148.009 23.7603 147.975 23.7603C147.46 23.4852 146.774 23.7259 146.5 24.3105C146.225 24.895 146.397 25.5483 146.946 25.8234C146.98 25.8234 147.014 25.8578 147.014 25.8578C146.912 26.1673 146.843 26.4767 146.809 26.8206C146.774 26.8206 146.74 26.8206 146.706 26.8206C146.088 26.8894 145.642 27.4395 145.642 28.0585C145.642 28.6774 146.157 29.1588 146.74 29.09C146.774 29.09 146.809 29.09 146.843 29.09C146.912 29.3995 146.98 29.709 147.117 30.0184C147.083 30.0184 147.049 30.0528 147.049 30.0872C146.534 30.4654 146.363 31.1532 146.671 31.6689C146.98 32.1847 148.009 32.4254 148.524 32.0816C148.558 32.0472 148.215 31.944 148.25 31.9096C148.455 32.1503 148.661 32.3566 148.901 32.5286C148.901 32.563 148.867 32.5973 148.867 32.5973C148.593 33.1819 148.764 33.8352 149.313 34.1103C149.828 34.3854 150.514 34.1447 150.788 33.5601C150.788 33.5257 150.823 33.4914 150.823 33.457C151.132 33.5257 151.406 33.5945 151.715 33.6289C151.715 33.6633 151.715 33.6977 151.715 33.7321C151.715 34.351 152.229 34.8324 152.813 34.7636C153.43 34.6948 153.876 34.1447 153.876 33.5257C153.876 33.4914 153.876 33.457 153.876 33.4226C154.185 33.3194 154.46 33.2163 154.768 33.0787C154.768 33.1131 154.803 33.1475 154.803 33.1475C155.111 33.6633 155.798 33.8008 156.312 33.4226C156.827 33.0443 156.998 32.3566 156.69 31.8409C156.69 31.8065 156.655 31.8065 156.655 31.7721C156.895 31.5314 157.101 31.2907 157.307 31.0156C157.341 31.05 157.376 31.05 157.41 31.05ZM150.857 31.1532C148.936 30.1904 148.25 27.7146 149.313 25.6171C150.377 23.554 152.778 22.66 154.7 23.6228C156.621 24.5856 157.307 27.0613 156.244 29.1588C155.146 31.2219 152.744 32.1159 150.857 31.1532Z" fill="#D8DEE8"/>
<path d="M158.68 27.9898C159.297 27.921 159.743 27.3708 159.743 26.7519C159.743 26.133 159.228 25.6516 158.645 25.7203C158.611 25.7203 158.577 25.7203 158.542 25.7203C158.474 25.4109 158.405 25.1014 158.268 24.7919C158.302 24.7919 158.336 24.7576 158.336 24.7232C158.851 24.3449 159.503 23.4853 159.126 23.0039C158.439 22.0755 157.719 22.4881 157.204 22.832C157.17 22.8664 157.17 22.8664 157.136 22.9007C156.93 22.66 156.724 22.4537 156.484 22.2818C156.484 22.2474 156.518 22.213 156.518 22.213C156.69 21.9036 156.69 21.5597 156.587 21.2502C156.106 22.1099 155.592 23.0039 155.111 23.8979C156.621 25.0326 157.136 27.2333 156.175 29.1245C155.352 30.7062 153.773 31.6002 152.195 31.4971C152.127 31.669 152.058 31.8753 151.989 32.0472C151.783 32.5286 151.543 33.01 151.337 33.4914C151.475 33.5258 151.646 33.5258 151.783 33.5602C151.783 33.5946 151.783 33.629 151.783 33.6634C151.783 34.2823 152.161 34.8325 153.259 34.7637C153.876 34.7293 153.979 34.076 153.945 33.4571C153.945 33.4227 153.945 33.3883 153.945 33.3539C154.254 33.2507 154.528 33.1476 154.837 33.01C154.837 33.0444 154.871 33.0788 154.871 33.0788C155.18 33.5946 156.278 33.8009 156.793 33.4571C157.307 33.0788 157.067 32.2879 156.758 31.7722C156.758 31.7378 156.724 31.7378 156.724 31.7034C156.964 31.4627 157.17 31.222 157.376 30.9469C157.41 30.9469 157.41 30.9813 157.444 30.9813C157.959 31.2564 158.645 31.0157 158.92 30.4311C159.194 29.8466 159.023 29.1933 158.474 28.9182C158.439 28.9182 158.405 28.8838 158.405 28.8838C158.508 28.5743 158.577 28.2649 158.611 27.921C158.645 27.9898 158.645 27.9898 158.68 27.9898Z" fill="#D8DEE8"/>
<path d="M157.993 31.1188C158.508 31.3939 159.194 31.1532 159.469 30.5686C159.743 29.9841 159.572 29.3308 159.023 29.0557C158.988 29.0557 158.954 29.0213 158.954 29.0213C159.057 28.7118 159.126 28.4024 159.16 28.0585C159.194 28.0585 159.229 28.0585 159.263 28.0585C159.88 27.9897 160.326 27.4396 160.326 26.8206C160.326 26.2017 159.812 25.7203 159.229 25.7891C159.194 25.7891 159.16 25.7891 159.126 25.7891C159.057 25.4796 158.988 25.1701 158.851 24.8607C158.886 24.8607 158.92 24.8263 158.92 24.7919C159.434 24.4136 159.606 23.7259 159.297 23.2102C158.988 22.6944 158.302 22.5568 157.788 22.9351C157.753 22.9695 157.753 22.9695 157.719 23.0038C157.513 22.7632 157.307 22.5568 157.067 22.3849C157.067 22.3505 157.101 22.3161 157.101 22.3161C157.376 21.7316 157.204 21.0783 156.655 20.8032C156.141 20.5281 155.455 20.7688 155.18 21.3534C155.18 21.3877 155.146 21.4221 155.146 21.4565C154.837 21.3877 154.563 21.319 154.254 21.2846C154.254 21.2502 154.254 21.2158 154.254 21.1814C154.254 20.5625 153.739 20.0811 153.156 20.1499C152.538 20.2186 152.092 20.7688 152.092 21.3877C152.092 21.4221 152.092 21.4565 152.092 21.4909C151.784 21.594 151.509 21.6972 151.2 21.8347C151.2 21.8004 151.166 21.766 151.166 21.766C150.857 21.2502 150.171 21.1127 149.656 21.4909C149.142 21.8691 148.97 22.5568 149.279 23.0726C149.279 23.107 149.313 23.107 149.313 23.1414C149.073 23.3821 148.867 23.6228 148.661 23.8979C148.627 23.8979 148.627 23.8635 148.593 23.8635C148.078 23.5884 147.392 23.8291 147.117 24.4136C146.843 24.9982 147.015 25.6515 147.564 25.9266C147.598 25.9266 147.632 25.961 147.632 25.961C147.529 26.2705 147.461 26.5799 147.426 26.9238C147.392 26.9238 147.358 26.9238 147.323 26.9238C146.706 26.9926 146.26 27.5427 146.26 28.1617C146.26 28.7806 146.774 29.262 147.358 29.1932C147.392 29.1932 147.426 29.1932 147.461 29.1932C147.529 29.5027 147.598 29.8122 147.735 30.1216C147.701 30.1216 147.666 30.156 147.666 30.1904C147.152 30.5686 146.98 31.2563 147.289 31.7721C147.598 32.2879 148.284 32.4254 148.799 32.0472C148.833 32.0128 148.833 32.0128 148.867 31.9784C149.073 32.2191 149.279 32.4254 149.519 32.5974C149.519 32.6318 149.485 32.6661 149.485 32.6661C149.21 33.2507 149.382 33.904 149.931 34.1791C150.445 34.4542 151.132 34.2135 151.406 33.6289C151.406 33.5945 151.44 33.5602 151.44 33.5258C151.749 33.5945 152.024 33.6633 152.332 33.6977C152.332 33.7321 152.332 33.7665 152.332 33.8009C152.332 34.4198 152.847 34.9012 153.43 34.8324C154.048 34.7636 154.494 34.2135 154.494 33.5945C154.494 33.5602 154.494 33.5258 154.494 33.4914C154.803 33.3882 155.077 33.2851 155.386 33.1475C155.386 33.1819 155.42 33.2163 155.42 33.2163C155.729 33.7321 156.415 33.8696 156.93 33.4914C157.445 33.1131 157.616 32.4254 157.307 31.9097C157.307 31.8753 157.273 31.8753 157.273 31.8409C157.513 31.6002 157.719 31.3595 157.925 31.0844C157.925 31.0844 157.959 31.1188 157.993 31.1188ZM151.406 31.222C149.485 30.2592 148.799 27.7834 149.862 25.6859C150.926 23.6228 153.327 22.7288 155.249 23.6916C157.17 24.6543 157.856 27.1301 156.793 29.2276C155.729 31.2907 153.327 32.1847 151.406 31.222Z" fill="white"/>
<path d="M229.116 86.9263C226.92 84.1067 225.65 80.6681 225.65 76.9201C225.65 65.9512 236.252 56.6328 248.981 56.0826C261.297 55.5668 271.007 63.5098 271.007 73.8598C271.007 84.2098 261.297 93.4939 248.981 94.5942C244.246 95.0412 239.82 94.216 236.115 92.4279C233.644 93.1156 229.767 94.216 227.709 94.8349C227.091 95.0068 226.611 94.4223 226.817 93.769L229.116 86.9263Z" fill="url(#paint71_linear)"/>
<path d="M241.535 76.3012C241.776 78.1236 240.575 79.8773 238.791 80.2555C236.972 80.6337 235.223 79.3615 234.982 77.4359C234.742 75.4759 236.08 73.7223 237.933 73.4472C239.717 73.2065 241.33 74.4787 241.535 76.3012Z" fill="white"/>
<path d="M252.686 74.4098C252.892 76.026 251.965 77.5733 250.559 77.8484C249.118 78.1235 247.745 76.9888 247.539 75.2695C247.334 73.5502 248.363 72.0029 249.804 71.7966C251.21 71.6246 252.48 72.7937 252.686 74.4098Z" fill="white"/>
<path d="M261.606 72.8969C261.778 74.3411 261.057 75.7165 259.925 75.9572C258.759 76.1979 257.661 75.132 257.455 73.619C257.249 72.0717 258.072 70.6963 259.239 70.5587C260.371 70.3868 261.435 71.4528 261.606 72.8969Z" fill="white"/>
<path d="M43.4352 51.1309C43.4352 54.1912 41.0679 56.8733 38.083 57.0796C34.9952 57.3203 32.3877 54.8445 32.3877 51.5779C32.3877 48.3113 34.9952 45.6293 38.083 45.6293C41.1022 45.5949 43.4352 48.0706 43.4352 51.1309Z" fill="white"/>
<path d="M62.2022 50.409C62.2022 53.1254 60.3495 55.498 57.9821 55.6699C55.5462 55.8418 53.522 53.6412 53.522 50.7872C53.522 47.9332 55.5462 45.5606 57.9821 45.5262C60.3495 45.4575 62.2022 47.6581 62.2022 50.409Z" fill="white"/>
<path d="M77.1952 49.7899C77.1952 52.2313 75.6856 54.3632 73.7986 54.5007C71.843 54.6383 70.2305 52.6783 70.2305 50.0994C70.2305 47.5205 71.843 45.423 73.7986 45.3886C75.7199 45.3542 77.1952 47.3486 77.1952 49.7899Z" fill="white"/>
</g>
<defs>
<linearGradient id="paint0_linear" x1="80.3622" y1="238.868" x2="76.1698" y2="230.132" gradientUnits="userSpaceOnUse">
<stop stop-color="#444B8C"/>
<stop offset="0.9964" stop-color="#26264F"/>
</linearGradient>
<linearGradient id="paint1_linear" x1="77.9878" y1="233.845" x2="83.3516" y2="225.68" gradientUnits="userSpaceOnUse">
<stop stop-color="#FFC444"/>
<stop offset="0.9964" stop-color="#F36F56"/>
</linearGradient>
<linearGradient id="paint2_linear" x1="137.656" y1="201.708" x2="104.31" y2="194.263" gradientUnits="userSpaceOnUse">
<stop stop-color="#444B8C"/>
<stop offset="0.9964" stop-color="#26264F"/>
</linearGradient>
<linearGradient id="paint3_linear" x1="119.289" y1="115.516" x2="127.708" y2="106.452" gradientUnits="userSpaceOnUse">
<stop stop-color="#FF9085"/>
<stop offset="1" stop-color="#FB6FBB"/>
</linearGradient>
<linearGradient id="paint4_linear" x1="106.715" y1="243.631" x2="97.0469" y2="243.91" gradientUnits="userSpaceOnUse">
<stop stop-color="#444B8C"/>
<stop offset="0.9964" stop-color="#26264F"/>
</linearGradient>
<linearGradient id="paint5_linear" x1="101.171" y1="243.768" x2="95.8671" y2="235.564" gradientUnits="userSpaceOnUse">
<stop stop-color="#FFC444"/>
<stop offset="0.9964" stop-color="#F36F56"/>
</linearGradient>
<linearGradient id="paint6_linear" x1="121.273" y1="227.134" x2="86.3908" y2="169.114" gradientUnits="userSpaceOnUse">
<stop stop-color="#444B8C"/>
<stop offset="0.9964" stop-color="#26264F"/>
</linearGradient>
<linearGradient id="paint7_linear" x1="82.842" y1="151.693" x2="114.681" y2="117.416" gradientUnits="userSpaceOnUse">
<stop stop-color="#FF9085"/>
<stop offset="1" stop-color="#FB6FBB"/>
</linearGradient>
<linearGradient id="paint8_linear" x1="109.844" y1="121.075" x2="122.158" y2="121.075" gradientUnits="userSpaceOnUse">
<stop stop-color="#FFC444"/>
<stop offset="0.9964" stop-color="#F36F56"/>
</linearGradient>
<linearGradient id="paint9_linear" x1="120.895" y1="118.488" x2="124.811" y2="122.889" gradientUnits="userSpaceOnUse">
<stop stop-color="#444B8C"/>
<stop offset="0.9964" stop-color="#26264F"/>
</linearGradient>
<linearGradient id="paint10_linear" x1="110.839" y1="122.863" x2="128.641" y2="118.772" gradientUnits="userSpaceOnUse">
<stop stop-color="#311944"/>
<stop offset="1" stop-color="#893976"/>
</linearGradient>
<linearGradient id="paint11_linear" x1="120.308" y1="129.798" x2="124.355" y2="112.639" gradientUnits="userSpaceOnUse">
<stop stop-color="#311944"/>
<stop offset="1" stop-color="#893976"/>
</linearGradient>
<linearGradient id="paint12_linear" x1="123.91" y1="114.541" x2="133.176" y2="126.26" gradientUnits="userSpaceOnUse">
<stop stop-color="#FFC444"/>
<stop offset="0.9964" stop-color="#F36F56"/>
</linearGradient>
<linearGradient id="paint13_linear" x1="84.9478" y1="153.649" x2="116.787" y2="119.372" gradientUnits="userSpaceOnUse">
<stop stop-color="#FF9085"/>
<stop offset="1" stop-color="#FB6FBB"/>
</linearGradient>
<linearGradient id="paint14_linear" x1="96.144" y1="102.023" x2="109.069" y2="75.1712" gradientUnits="userSpaceOnUse">
<stop stop-color="#FFC444"/>
<stop offset="0.9964" stop-color="#F36F56"/>
</linearGradient>
<linearGradient id="paint15_linear" x1="99.9692" y1="95.1529" x2="107.773" y2="74.4836" gradientUnits="userSpaceOnUse">
<stop stop-color="#311944"/>
<stop offset="1" stop-color="#6B3976"/>
</linearGradient>
<linearGradient id="paint16_linear" x1="106.834" y1="80.2142" x2="108.746" y2="110.153" gradientUnits="userSpaceOnUse">
<stop stop-color="#FFC444"/>
<stop offset="0.9964" stop-color="#F36F56"/>
</linearGradient>
<linearGradient id="paint17_linear" x1="102.451" y1="96.101" x2="110.263" y2="75.4107" gradientUnits="userSpaceOnUse">
<stop stop-color="#311944"/>
<stop offset="1" stop-color="#6B3976"/>
</linearGradient>
<linearGradient id="paint18_linear" x1="87.496" y1="133.825" x2="92.1135" y2="94.4539" gradientUnits="userSpaceOnUse">
<stop stop-color="#FF9085"/>
<stop offset="1" stop-color="#FB6FBB"/>
</linearGradient>
<linearGradient id="paint19_linear" x1="176.049" y1="211.608" x2="177.884" y2="244.561" gradientUnits="userSpaceOnUse">
<stop stop-color="#444B8C"/>
<stop offset="0.9964" stop-color="#26264F"/>
</linearGradient>
<linearGradient id="paint20_linear" x1="179.499" y1="227.848" x2="178.524" y2="183.355" gradientUnits="userSpaceOnUse">
<stop stop-color="#FFC444"/>
<stop offset="0.9964" stop-color="#F36F56"/>
</linearGradient>
<linearGradient id="paint21_linear" x1="209.11" y1="209.767" x2="210.945" y2="242.719" gradientUnits="userSpaceOnUse">
<stop stop-color="#444B8C"/>
<stop offset="0.9964" stop-color="#26264F"/>
</linearGradient>
<linearGradient id="paint22_linear" x1="208.607" y1="227.21" x2="207.633" y2="182.718" gradientUnits="userSpaceOnUse">
<stop stop-color="#FFC444"/>
<stop offset="0.9964" stop-color="#F36F56"/>
</linearGradient>
<linearGradient id="paint23_linear" x1="165.404" y1="198.93" x2="183.894" y2="174.17" gradientUnits="userSpaceOnUse">
<stop stop-color="#AA80F9"/>
<stop offset="0.9964" stop-color="#6165D7"/>
</linearGradient>
<linearGradient id="paint24_linear" x1="133.226" y1="111.315" x2="147.791" y2="150.241" gradientUnits="userSpaceOnUse">
<stop stop-color="#FFC444"/>
<stop offset="0.9964" stop-color="#F36F56"/>
</linearGradient>
<linearGradient id="paint25_linear" x1="179.1" y1="202.008" x2="222.37" y2="161.744" gradientUnits="userSpaceOnUse">
<stop stop-color="#AA80F9"/>
<stop offset="0.9964" stop-color="#6165D7"/>
</linearGradient>
<linearGradient id="paint26_linear" x1="136.417" y1="110.471" x2="171.052" y2="110.471" gradientUnits="userSpaceOnUse">
<stop offset="0.00359712" stop-color="#E38DDD"/>
<stop offset="1" stop-color="#9571F6"/>
</linearGradient>
<linearGradient id="paint27_linear" x1="209.268" y1="129.752" x2="196.443" y2="111.624" gradientUnits="userSpaceOnUse">
<stop stop-color="#444B8C"/>
<stop offset="0.9964" stop-color="#26264F"/>
</linearGradient>
<linearGradient id="paint28_linear" x1="167.756" y1="200.686" x2="186.246" y2="175.926" gradientUnits="userSpaceOnUse">
<stop stop-color="#AA80F9"/>
<stop offset="0.9964" stop-color="#6165D7"/>
</linearGradient>
<linearGradient id="paint29_linear" x1="136.417" y1="114.74" x2="171.052" y2="114.74" gradientUnits="userSpaceOnUse">
<stop stop-color="#AA80F9"/>
<stop offset="0.9964" stop-color="#6165D7"/>
</linearGradient>
<linearGradient id="paint30_linear" x1="160.219" y1="131.581" x2="229.418" y2="131.581" gradientUnits="userSpaceOnUse">
<stop offset="0.00359712" stop-color="#E38DDD"/>
<stop offset="1" stop-color="#9571F6"/>
</linearGradient>
<linearGradient id="paint31_linear" x1="195.469" y1="91.2961" x2="206.069" y2="155.973" gradientUnits="userSpaceOnUse">
<stop stop-color="#AA80F9"/>
<stop offset="0.9964" stop-color="#6165D7"/>
</linearGradient>
<linearGradient id="paint32_linear" x1="183.876" y1="111.622" x2="211.478" y2="111.622" gradientUnits="userSpaceOnUse">
<stop offset="0.00359712" stop-color="#E38DDD"/>
<stop offset="1" stop-color="#9571F6"/>
</linearGradient>
<linearGradient id="paint33_linear" x1="177.927" y1="93.6128" x2="189.241" y2="77.2251" gradientUnits="userSpaceOnUse">
<stop stop-color="#FFC444"/>
<stop offset="0.9964" stop-color="#F36F56"/>
</linearGradient>
<linearGradient id="paint34_linear" x1="176.904" y1="85.2885" x2="194.756" y2="74.5651" gradientUnits="userSpaceOnUse">
<stop stop-color="#FFC444"/>
<stop offset="0.9964" stop-color="#F36F56"/>
</linearGradient>
<linearGradient id="paint35_linear" x1="181.761" y1="110.174" x2="189.737" y2="158.845" gradientUnits="userSpaceOnUse">
<stop stop-color="#FFC444"/>
<stop offset="0.9964" stop-color="#F36F56"/>
</linearGradient>
<linearGradient id="paint36_linear" x1="74.6525" y1="250.533" x2="69.4762" y2="253.965" gradientUnits="userSpaceOnUse">
<stop stop-color="#444B8C"/>
<stop offset="0.9964" stop-color="#26264F"/>
</linearGradient>
<linearGradient id="paint37_linear" x1="69.7754" y1="253.961" x2="69.3713" y2="245.874" gradientUnits="userSpaceOnUse">
<stop stop-color="#FFC444"/>
<stop offset="0.9964" stop-color="#F36F56"/>
</linearGradient>
<linearGradient id="paint38_linear" x1="74.2638" y1="249.948" x2="69.0877" y2="253.38" gradientUnits="userSpaceOnUse">
<stop stop-color="#444B8C"/>
<stop offset="0.9964" stop-color="#26264F"/>
</linearGradient>
<linearGradient id="paint39_linear" x1="89.1738" y1="253.338" x2="84.5272" y2="257.462" gradientUnits="userSpaceOnUse">
<stop stop-color="#444B8C"/>
<stop offset="0.9964" stop-color="#26264F"/>
</linearGradient>
<linearGradient id="paint40_linear" x1="84.5144" y1="257.733" x2="82.9518" y2="249.789" gradientUnits="userSpaceOnUse">
<stop stop-color="#FFC444"/>
<stop offset="0.9964" stop-color="#F36F56"/>
</linearGradient>
<linearGradient id="paint41_linear" x1="88.7073" y1="252.813" x2="84.0609" y2="256.937" gradientUnits="userSpaceOnUse">
<stop stop-color="#444B8C"/>
<stop offset="0.9964" stop-color="#26264F"/>
</linearGradient>
<linearGradient id="paint42_linear" x1="66.5584" y1="168.365" x2="75.7104" y2="150.348" gradientUnits="userSpaceOnUse">
<stop stop-color="#FF9085"/>
<stop offset="1" stop-color="#FB6FBB"/>
</linearGradient>
<linearGradient id="paint43_linear" x1="78.402" y1="166.439" x2="81.2485" y2="179.405" gradientUnits="userSpaceOnUse">
<stop stop-color="#FFC444"/>
<stop offset="0.9964" stop-color="#F36F56"/>
</linearGradient>
<linearGradient id="paint44_linear" x1="52.7897" y1="165.324" x2="19.9388" y2="196.623" gradientUnits="userSpaceOnUse">
<stop offset="0.00359712" stop-color="#E38DDD"/>
<stop offset="1" stop-color="#9571F6"/>
</linearGradient>
<linearGradient id="paint45_linear" x1="44.6711" y1="131.244" x2="31.4893" y2="161.418" gradientUnits="userSpaceOnUse">
<stop stop-color="#FFC444"/>
<stop offset="0.9964" stop-color="#F36F56"/>
</linearGradient>
<linearGradient id="paint46_linear" x1="43.3915" y1="130.243" x2="28.6741" y2="163.932" gradientUnits="userSpaceOnUse">
<stop stop-color="#FFC444"/>
<stop offset="0.9964" stop-color="#F36F56"/>
</linearGradient>
<linearGradient id="paint47_linear" x1="64.8912" y1="178.025" x2="32.0402" y2="209.325" gradientUnits="userSpaceOnUse">
<stop offset="0.00359712" stop-color="#E38DDD"/>
<stop offset="1" stop-color="#9571F6"/>
</linearGradient>
<linearGradient id="paint48_linear" x1="59.9914" y1="172.882" x2="27.1404" y2="204.181" gradientUnits="userSpaceOnUse">
<stop offset="0.00359712" stop-color="#E38DDD"/>
<stop offset="1" stop-color="#9571F6"/>
</linearGradient>
<linearGradient id="paint49_linear" x1="30.2349" y1="202.342" x2="57.1472" y2="221.522" gradientUnits="userSpaceOnUse">
<stop stop-color="#444B8C"/>
<stop offset="0.9964" stop-color="#26264F"/>
</linearGradient>
<linearGradient id="paint50_linear" x1="88.191" y1="225.897" x2="21.644" y2="225.897" gradientUnits="userSpaceOnUse">
<stop stop-color="#444B8C"/>
<stop offset="0.9964" stop-color="#26264F"/>
</linearGradient>
<linearGradient id="paint51_linear" x1="51.3138" y1="263.959" x2="9.44803" y2="263.959" gradientUnits="userSpaceOnUse">
<stop stop-color="#AA80F9"/>
<stop offset="0.9964" stop-color="#6165D7"/>
</linearGradient>
<linearGradient id="paint52_linear" x1="37.1302" y1="244.568" x2="31.5905" y2="244.568" gradientUnits="userSpaceOnUse">
<stop stop-color="#AA80F9"/>
<stop offset="0.9964" stop-color="#6165D7"/>
</linearGradient>
<linearGradient id="paint53_linear" x1="6.8603" y1="238.664" x2="17.0452" y2="225.422" gradientUnits="userSpaceOnUse">
<stop stop-color="#311944"/>
<stop offset="1" stop-color="#893976"/>
</linearGradient>
<linearGradient id="paint54_linear" x1="201.687" y1="230.971" x2="203.493" y2="253.899" gradientUnits="userSpaceOnUse">
<stop offset="0.003597" stop-color="#26264F"/>
<stop offset="1" stop-color="#444B8C"/>
</linearGradient>
<linearGradient id="paint55_linear" x1="205.909" y1="243.638" x2="210.235" y2="216.554" gradientUnits="userSpaceOnUse">
<stop stop-color="#FFC444"/>
<stop offset="0.9964" stop-color="#F36F56"/>
</linearGradient>
<linearGradient id="paint56_linear" x1="179.204" y1="229.438" x2="181.009" y2="252.366" gradientUnits="userSpaceOnUse">
<stop offset="0.003597" stop-color="#26264F"/>
<stop offset="1" stop-color="#444B8C"/>
</linearGradient>
<linearGradient id="paint57_linear" x1="183.426" y1="242.104" x2="187.752" y2="215.022" gradientUnits="userSpaceOnUse">
<stop stop-color="#FFC444"/>
<stop offset="0.9964" stop-color="#F36F56"/>
</linearGradient>
<linearGradient id="paint58_linear" x1="246.426" y1="182.282" x2="236.13" y2="197.567" gradientUnits="userSpaceOnUse">
<stop stop-color="#893976"/>
<stop offset="1" stop-color="#311944"/>
</linearGradient>
<linearGradient id="paint59_linear" x1="181.313" y1="215.984" x2="254.98" y2="215.984" gradientUnits="userSpaceOnUse">
<stop stop-color="#893976"/>
<stop offset="1" stop-color="#311944"/>
</linearGradient>
<linearGradient id="paint60_linear" x1="220.705" y1="160.578" x2="253.564" y2="191.884" gradientUnits="userSpaceOnUse">
<stop stop-color="#FF9085"/>
<stop offset="1" stop-color="#FB6FBB"/>
</linearGradient>
<linearGradient id="paint61_linear" x1="181.496" y1="170.443" x2="180.745" y2="173.862" gradientUnits="userSpaceOnUse">
<stop stop-color="#FFC444"/>
<stop offset="0.9964" stop-color="#F36F56"/>
</linearGradient>
<linearGradient id="paint62_linear" x1="224.945" y1="124.309" x2="238.127" y2="154.484" gradientUnits="userSpaceOnUse">
<stop stop-color="#FFC444"/>
<stop offset="0.9964" stop-color="#F36F56"/>
</linearGradient>
<linearGradient id="paint63_linear" x1="226.225" y1="123.308" x2="240.942" y2="156.998" gradientUnits="userSpaceOnUse">
<stop stop-color="#FFC444"/>
<stop offset="0.9964" stop-color="#F36F56"/>
</linearGradient>
<linearGradient id="paint64_linear" x1="211.733" y1="169.99" x2="244.584" y2="201.289" gradientUnits="userSpaceOnUse">
<stop stop-color="#FF9085"/>
<stop offset="1" stop-color="#FB6FBB"/>
</linearGradient>
<linearGradient id="paint65_linear" x1="213.207" y1="166.31" x2="250.473" y2="201.816" gradientUnits="userSpaceOnUse">
<stop stop-color="#FF9085"/>
<stop offset="1" stop-color="#FB6FBB"/>
</linearGradient>
<linearGradient id="paint66_linear" x1="221.744" y1="252.326" x2="263.61" y2="252.326" gradientUnits="userSpaceOnUse">
<stop stop-color="#AA80F9"/>
<stop offset="0.9964" stop-color="#6165D7"/>
</linearGradient>
<linearGradient id="paint67_linear" x1="235.928" y1="232.934" x2="241.468" y2="232.934" gradientUnits="userSpaceOnUse">
<stop stop-color="#AA80F9"/>
<stop offset="0.9964" stop-color="#6165D7"/>
</linearGradient>
<linearGradient id="paint68_linear" x1="266.198" y1="227.03" x2="256.013" y2="213.788" gradientUnits="userSpaceOnUse">
<stop stop-color="#311944"/>
<stop offset="1" stop-color="#893976"/>
</linearGradient>
<linearGradient id="paint69_linear" x1="33.2771" y1="14.8858" x2="112.736" y2="152.804" gradientUnits="userSpaceOnUse">
<stop offset="0.00359712" stop-color="#E38DDD"/>
<stop offset="1" stop-color="#9571F6"/>
</linearGradient>
<linearGradient id="paint70_linear" x1="181.153" y1="-1.53593" x2="144.583" y2="104.281" gradientUnits="userSpaceOnUse">
<stop stop-color="#FF9085"/>
<stop offset="1" stop-color="#FB6FBB"/>
</linearGradient>
<linearGradient id="paint71_linear" x1="231.134" y1="61.8095" x2="300.618" y2="136.504" gradientUnits="userSpaceOnUse">
<stop stop-color="#FFC444"/>
<stop offset="0.9964" stop-color="#F36F56"/>
</linearGradient>
<clipPath id="clip0">
<path d="M0 0H286V280H0V0Z" fill="white"/>
</clipPath>
</defs>
</svg>
