<svg width="216" height="192" viewBox="0 0 216 192" fill="none" xmlns="http://www.w3.org/2000/svg">
<g clip-path="url(#clip0)">
<path d="M209.178 97.18C207.062 94.1187 204.454 91.4401 201.369 89.2876C194.721 84.6478 185.911 82.3997 181.665 75.4799C177.943 69.3892 179.009 61.5606 180.87 54.6728C182.73 47.7689 185.291 40.7375 184.162 33.6742C182.285 22.035 171.153 14.3818 160.418 9.56662C118.21 -9.32725 46.0246 -0.0477282 17.4939 35.6035C13.0887 41.1042 4.00785 52.4565 4.11918 68.0659C4.15099 74.2363 4.91435 80.3907 7.64973 86.0031C13.8839 98.8063 27.8948 103.781 25.5888 120.251C24.7777 126.071 22.5512 131.572 20.8496 137.2C18.1937 145.969 17.0645 156.046 23.903 163.205C30.0258 169.614 39.4247 170.412 47.7581 169.487C83.7316 165.437 119.88 163.141 156.013 160.845C163.026 160.399 170.023 159.952 177.037 159.506C179.343 159.362 181.919 159.315 183.605 160.877C185.291 162.456 184.623 166.155 182.317 166.059C191.588 168.419 200.176 160.399 205.329 152.315C211.595 142.493 216.032 131.189 215.984 119.534C215.968 111.657 213.647 103.605 209.178 97.18Z" fill="url(#paint0_linear)"/>
<path d="M191.318 83.6433C187.485 81.5387 183.923 79.179 181.665 75.4958C177.943 69.4052 179.009 61.5766 180.87 54.6887C182.73 47.7848 185.291 40.7534 184.162 33.6902C183.748 31.0753 182.858 28.6677 181.601 26.4356C177.657 19.3882 170.119 14.2223 162.469 10.5392C161.77 12.6119 161.722 15.0833 162.12 17.2676C162.851 21.2696 164.521 25.2716 163.789 29.2736C163.328 31.8247 161.945 34.009 160.418 36.1296C159.225 37.7878 157.953 39.4141 156.951 41.168C154.088 46.1426 153.42 52.0898 153.484 57.8297C153.564 64.4146 154.581 71.2069 158.128 76.7554C160.37 80.2472 163.503 83.0693 166.906 85.4291C173.172 89.75 180.599 92.6199 188.201 92.6199C190.618 92.6199 193.052 92.301 195.405 91.6951C193.926 89.0484 192.113 86.5452 191.318 83.6433Z" fill="url(#paint1_linear)"/>
<path d="M65.8561 13.1062C72.0108 13.9035 78.2131 12.5323 84.3359 11.464C90.4587 10.3957 96.8678 9.64635 102.768 11.6075C110.879 14.318 116.461 21.5886 123.204 26.8661C133.096 34.615 146.168 38.1386 158.589 36.4166C159.209 36.3369 159.829 36.2253 160.45 36.1137C161.976 33.9772 163.344 31.8088 163.821 29.2577C164.553 25.2557 162.883 21.2537 162.151 17.2517C161.754 15.0674 161.785 12.596 162.501 10.5233C161.817 10.1885 161.133 9.86957 160.45 9.56663C134.241 -2.1364 96.5338 -3.02928 64.8542 6.50535C64.2658 8.64187 63.0253 10.4276 61.5781 12.1018C62.9617 12.5801 64.4089 12.9149 65.8561 13.1062Z" fill="url(#paint2_linear)"/>
<path d="M64.8541 6.50537C61.9597 7.3823 59.0971 8.33895 56.314 9.39127C57.8884 10.5552 59.6855 11.464 61.578 12.1018C63.0252 10.4276 64.2498 8.62595 64.8541 6.50537Z" fill="url(#paint3_linear)"/>
<path d="M201.432 89.3354C201.417 89.3194 201.385 89.3035 201.369 89.2876C198.268 87.1192 194.689 85.4769 191.318 83.6433C192.113 86.5452 193.926 89.0484 195.437 91.6792C197.536 91.1371 199.556 90.3558 201.432 89.3354Z" fill="url(#paint4_linear)"/>
<path d="M182.317 166.075C182.746 166.186 183.176 166.266 183.605 166.346C183.541 166.155 183.462 165.979 183.398 165.788C183.096 165.979 182.746 166.091 182.317 166.075Z" fill="url(#paint5_linear)"/>
<path d="M209.178 97.1799C207.062 94.1505 204.486 91.4718 201.433 89.3353C199.54 90.3398 197.536 91.137 195.437 91.6791C195.676 92.0937 195.898 92.5082 196.121 92.9228C198.013 96.558 198.984 100.943 197.568 104.801C196.582 107.48 194.562 109.632 192.765 111.849C182.046 125.018 177.975 143.29 181.697 159.825C182.396 160.048 183.048 160.383 183.589 160.893C184.973 162.184 184.782 164.879 183.398 165.788C183.462 165.979 183.525 166.154 183.605 166.346C192.368 167.701 200.415 160.048 205.329 152.347C211.595 142.525 216.032 131.221 215.984 119.566C215.968 111.657 213.646 103.605 209.178 97.1799Z" fill="url(#paint6_linear)"/>
<path d="M103.977 155.328C96.8678 149.206 87.0713 146.352 77.7996 147.707C71.3746 148.648 65.061 151.486 58.7791 153.064C57.6977 156.508 56.2823 159.841 54.5965 163.013C53.4833 165.118 52.2428 167.175 50.9229 169.152C70.8975 166.968 90.9199 165.293 110.974 163.858C109.129 160.638 106.776 157.736 103.977 155.328Z" fill="url(#paint7_linear)"/>
<path d="M30.9005 83.739C40.1722 76.5641 46.7085 65.8336 48.6169 54.2263C49.6188 48.1515 49.4121 41.9333 49.9528 35.7948C50.5094 29.6563 51.9248 23.3583 55.6939 18.4794C57.4433 16.2153 59.7016 14.2542 61.5782 12.0858C59.6857 11.432 57.8886 10.5232 56.3141 9.37524C40.4744 15.3224 26.702 24.0917 17.4939 35.6034C13.0887 41.1042 4.00785 52.4565 4.11918 68.0658C4.11918 68.6717 4.13508 69.2935 4.15099 69.8994C14.7427 68.0658 26.1136 74.1565 30.9005 83.739Z" fill="url(#paint8_linear)"/>
<path d="M58.7634 153.064C54.4218 154.149 50.0961 154.627 45.7544 153.463C41.2697 152.251 37.3892 149.365 32.9204 148.153C28.213 146.878 23.4102 147.548 18.7664 149.174C18.7187 154.276 20.0545 159.219 23.8873 163.237C30.0101 169.646 39.409 170.443 47.7424 169.519C48.792 169.407 49.8575 169.28 50.923 169.168C52.243 167.191 53.4835 165.15 54.5967 163.029C56.2666 159.841 57.682 156.492 58.7634 153.064Z" fill="url(#paint9_linear)"/>
<path d="M32.9203 148.138C37.3891 149.349 41.2855 152.251 45.7543 153.447C50.096 154.611 54.4217 154.133 58.7633 153.048C60.7512 146.703 61.5941 140.038 60.8308 133.453C59.6539 123.296 54.3581 113.443 45.8179 107.847C42.7327 105.822 39.1862 104.291 36.8961 101.389C33.8268 97.4988 33.7473 92.1256 32.3478 87.3742C31.982 86.1147 31.489 84.8869 30.9005 83.723C29.2625 84.9826 27.5449 86.1465 25.7478 87.167C21.2949 89.718 16.1899 91.5197 11.1167 91.5835C17.9234 100.672 27.529 106.38 25.5888 120.251C24.7777 126.071 22.5513 131.572 20.8496 137.2C19.6886 141.042 18.8139 145.14 18.7821 149.142C23.41 147.532 28.2288 146.862 32.9203 148.138Z" fill="url(#paint10_linear)"/>
<path d="M30.9004 83.739C26.1294 74.1565 14.7584 68.0658 4.15088 69.8994C4.32582 75.448 5.1846 80.9487 7.63372 86.003C8.61974 88.0439 9.81249 89.8775 11.1007 91.5994C16.1739 91.5516 21.2788 89.734 25.7318 87.1829C27.5289 86.1625 29.2624 85.0145 30.9004 83.739Z" fill="url(#paint11_linear)"/>
<path d="M39.886 186.228C40.872 186.834 41.8898 187.36 42.9394 187.839C42.9076 187.679 42.8758 187.52 42.8758 187.344V174.589C42.8758 173.457 43.7982 172.532 44.9274 172.532H92.6853C93.8144 172.532 94.7368 173.457 94.7368 174.589V186.563C96.7406 185.766 98.7127 184.905 100.637 183.948C107.364 180.6 113.948 176.088 121.216 173.919C121.486 173.106 122.25 172.532 123.156 172.532H170.914C171.359 172.532 171.773 172.676 172.107 172.915C175.781 171.99 179.359 170.746 182.81 169.184H29.9146C30.3121 176.407 33.2225 182.162 39.886 186.228Z" fill="#939598"/>
<path d="M55.2171 191.203C65.4907 192.702 76.0665 192.048 86.1174 189.401H47.0269C49.6827 190.23 52.4499 190.804 55.2171 191.203Z" fill="#939598"/>
<path d="M47.0268 189.401H86.1173C89.0435 188.636 91.9221 187.679 94.7369 186.579V174.589C94.7369 173.457 93.8145 172.532 92.6854 172.532H44.9275C43.7984 172.532 42.876 173.457 42.876 174.589V187.344C42.876 187.52 42.8919 187.679 42.9396 187.839L47.0268 189.401ZM91.5881 184.267C91.5881 185.399 90.6657 186.324 89.5365 186.324H48.0605C46.9313 186.324 46.0089 185.399 46.0089 184.267V177.666C46.0089 176.534 46.9313 175.609 48.0605 175.609H89.5365C90.6657 175.609 91.5881 176.534 91.5881 177.666V184.267Z" fill="#808285"/>
<path d="M89.5364 175.609H48.0603C46.9312 175.609 46.0088 176.534 46.0088 177.666V184.267C46.0088 185.399 46.9312 186.324 48.0603 186.324H89.5364C90.6655 186.324 91.5879 185.399 91.5879 184.267V177.666C91.5879 176.534 90.6814 175.609 89.5364 175.609Z" fill="#A7A9AC"/>
<path d="M81.8552 183.279H55.7418C55.1534 183.279 54.6763 182.8 54.6763 182.21V180.153C54.6763 179.564 55.1534 179.085 55.7418 179.085C56.3302 179.085 56.8073 179.564 56.8073 180.153V181.142H80.7897V180.153C80.7897 179.564 81.2668 179.085 81.8552 179.085C82.4436 179.085 82.9207 179.564 82.9207 180.153V182.21C82.9207 182.8 82.4436 183.279 81.8552 183.279Z" fill="#6D6E71"/>
<path d="M123.14 172.548C122.234 172.548 121.486 173.122 121.2 173.935C123.029 173.393 124.906 172.995 126.846 172.803C136.372 171.863 145.914 174.892 155.44 174.956C161.038 174.988 166.652 174.318 172.091 172.947C171.757 172.708 171.344 172.564 170.898 172.564H123.14V172.548Z" fill="#808285"/>
<path d="M204.709 159.107H22.4082H21.788C19.0049 159.107 16.7466 161.371 16.7466 164.161C16.7466 166.952 19.0049 169.216 21.788 169.216H21.947H22.2969H201.115H204.566H204.725C207.412 169.216 209.607 167.111 209.75 164.464C209.75 164.369 209.766 164.273 209.766 164.177C209.75 161.371 207.492 159.107 204.709 159.107Z" fill="#58595B"/>
<path d="M199.397 78.7166C208.004 78.7166 214.982 71.7209 214.982 63.0913C214.982 54.4616 208.004 47.4659 199.397 47.4659C190.789 47.4659 183.812 54.4616 183.812 63.0913C183.812 71.7209 190.789 78.7166 199.397 78.7166Z" fill="url(#paint12_linear)"/>
<path d="M13.1678 126.629C18.2006 126.629 22.2805 122.539 22.2805 117.493C22.2805 112.447 18.2006 108.357 13.1678 108.357C8.13505 108.357 4.05518 112.447 4.05518 117.493C4.05518 122.539 8.13505 126.629 13.1678 126.629Z" fill="url(#paint13_linear)"/>
<path d="M5.53438 105.2C8.59094 105.2 11.0688 102.716 11.0688 99.6514C11.0688 96.587 8.59094 94.1028 5.53438 94.1028C2.47783 94.1028 0 96.587 0 99.6514C0 102.716 2.47783 105.2 5.53438 105.2Z" fill="url(#paint14_linear)"/>
<path d="M73.2197 130.695C73.2356 137.742 73.2515 152.921 73.2515 152.921H98.2835C98.2835 152.921 98.2835 137.678 98.2835 130.695H73.2197Z" fill="url(#paint15_linear)"/>
<path d="M28.8174 122.021V124.445C28.8174 128.303 31.9345 131.428 35.7831 131.428H135.768C139.616 131.428 142.733 128.303 142.733 124.445V122.021H28.8174Z" fill="url(#paint16_linear)"/>
<path d="M103.85 151.821H67.6695L64.7114 155.105H106.808L103.85 151.821Z" fill="url(#paint17_linear)"/>
<path d="M106.808 155.105H64.7114V159.107H106.808V155.105Z" fill="url(#paint18_linear)"/>
<path d="M28.8174 86.1943V122.021H117.558H142.718V86.1943H28.8174Z" fill="white"/>
<path d="M89.8864 127.809H81.6484C81.0441 127.809 80.5352 127.314 80.5352 126.693C80.5352 126.071 81.0282 125.576 81.6484 125.576H89.8864C90.4907 125.576 90.9996 126.071 90.9996 126.693C90.9996 127.314 90.4907 127.809 89.8864 127.809Z" fill="white"/>
<path d="M35.7674 75.5117C39.5524 71.3981 42.081 66.2321 47.1224 63.4579C48.5219 62.6925 49.9691 62.0548 51.4482 61.4808C50.1759 59.3602 49.2217 57.0483 48.5219 54.6726H35.2426C31.6961 54.6726 28.8335 57.5585 28.8335 61.0981V79.7688C29.5969 79.7209 30.3443 79.5296 31.0441 79.2426C32.8889 78.4613 34.3838 77.0104 35.7674 75.5117Z" fill="url(#paint19_linear)"/>
<path d="M68.1625 54.6726H48.5059C49.2056 57.0483 50.1598 59.3602 51.4321 61.4808C51.8774 62.2142 52.3386 62.9317 52.8634 63.6173C55.0263 66.5032 57.7457 68.7832 61.324 69.3731C65.109 70.0109 69.0212 69.405 72.7267 68.56C82.8572 66.2481 92.113 64.0159 100.653 71.5575C102.864 73.5027 104.788 75.7349 106.681 77.999C107.507 77.9511 108.319 77.8873 109.146 77.7917C114.171 77.2177 119.515 75.4 122.186 71.0951C123.681 68.6716 124.158 65.7698 124.492 62.9476C124.81 60.1415 125.049 57.2715 126.13 54.6726H68.1625Z" fill="url(#paint20_linear)"/>
<path d="M68.4326 76.0856C71.7564 75.0811 75.2074 74.6028 78.6744 74.5868C81.9027 74.5709 84.7494 75.3203 87.9142 76.0059C94.0688 77.3452 100.382 78.3497 106.68 77.9989C104.788 75.7348 102.863 73.5026 100.653 71.5574C92.1127 64.0158 82.8569 66.248 72.7265 68.5599C69.021 69.405 65.1087 70.0108 61.3237 69.3731C57.7455 68.7831 55.026 66.5031 52.8631 63.6172C52.3542 62.9316 51.8771 62.2141 51.4318 61.4807C49.9528 62.0547 48.5056 62.6925 47.1061 63.4578C42.0647 66.2321 39.5361 71.398 35.7511 75.5116C34.3834 77.0103 32.8725 78.4613 31.0118 79.2425C30.3121 79.5295 29.5646 79.7209 28.8013 79.7687V88.5061H50.0641C54.1831 82.4314 62.1825 77.9511 68.4326 76.0856Z" fill="url(#paint21_linear)"/>
<path d="M124.476 62.9476C124.142 65.7698 123.681 68.6876 122.17 71.0951C119.499 75.4001 114.155 77.2177 109.13 77.7917C108.303 77.8874 107.492 77.9511 106.665 77.999C107.698 79.2267 108.716 80.4544 109.782 81.6502C111.865 84.0099 114.107 86.2581 116.334 88.5062H142.702V61.0981C142.702 57.5426 139.823 54.6726 136.293 54.6726H126.099C125.017 57.2715 124.794 60.1415 124.476 62.9476Z" fill="url(#paint22_linear)"/>
<path d="M106.68 77.999C100.382 78.3338 94.0687 77.3293 87.9141 76.006C84.7493 75.3204 81.9026 74.571 78.6742 74.5869C75.2072 74.6029 71.7562 75.0812 68.4324 76.0857C62.1983 77.9511 54.1829 82.4315 50.064 88.5062H67.017V89.2237C67.017 90.5949 68.1302 91.711 69.4979 91.711H102.02C103.388 91.711 104.501 90.5949 104.501 89.2237V88.5062H116.349C114.123 86.2581 111.88 84.0099 109.797 81.6502C108.732 80.4544 107.714 79.2267 106.68 77.999Z" fill="url(#paint23_linear)"/>
<path d="M126.448 58.85C127.16 58.85 127.737 58.2718 127.737 57.5586C127.737 56.8453 127.16 56.2671 126.448 56.2671C125.737 56.2671 125.16 56.8453 125.16 57.5586C125.16 58.2718 125.737 58.85 126.448 58.85Z" fill="white"/>
<path d="M130.551 58.85C131.263 58.85 131.84 58.2718 131.84 57.5586C131.84 56.8453 131.263 56.2671 130.551 56.2671C129.84 56.2671 129.263 56.8453 129.263 57.5586C129.263 58.2718 129.84 58.85 130.551 58.85Z" fill="white"/>
<path d="M134.67 58.85C135.381 58.85 135.958 58.2718 135.958 57.5586C135.958 56.8453 135.381 56.2671 134.67 56.2671C133.959 56.2671 133.382 56.8453 133.382 57.5586C133.382 58.2718 133.959 58.85 134.67 58.85Z" fill="white"/>
<path d="M36.6099 106.874C36.6099 106.811 36.6258 106.731 36.6735 106.667L38.725 103.462C38.8841 103.207 39.3134 103.096 39.6792 103.207C40.045 103.319 40.204 103.622 40.045 103.877L38.1207 106.89L40.045 109.904C40.204 110.159 40.045 110.446 39.6792 110.573C39.3134 110.685 38.8841 110.573 38.725 110.318L36.6735 107.113C36.6258 107.018 36.6099 106.954 36.6099 106.874Z" fill="#E6E7E8"/>
<path d="M134.909 106.874C134.909 106.938 134.893 107.017 134.845 107.081L132.794 110.302C132.635 110.557 132.205 110.669 131.839 110.557C131.474 110.445 131.315 110.142 131.474 109.887L133.398 106.874L131.474 103.86C131.315 103.605 131.474 103.318 131.839 103.191C132.205 103.079 132.635 103.191 132.794 103.446L134.845 106.651C134.893 106.746 134.909 106.81 134.909 106.874Z" fill="#E6E7E8"/>
<path d="M58.6996 95.7767H44.1479V110.366H58.6996V95.7767Z" fill="url(#paint24_linear)"/>
<path d="M47.9966 115.149H44.5932C44.3547 115.149 44.1479 114.957 44.1479 114.702V114.431C44.1479 114.192 44.3388 113.985 44.5932 113.985H47.9966C48.2351 113.985 48.4419 114.176 48.4419 114.431V114.702C48.4419 114.941 48.2351 115.149 47.9966 115.149Z" fill="url(#paint25_linear)"/>
<path d="M58.2702 115.149H49.571C49.3324 115.149 49.1416 114.957 49.1416 114.718V114.431C49.1416 114.192 49.3324 114.001 49.571 114.001H58.2702C58.5087 114.001 58.6996 114.192 58.6996 114.431V114.718C58.6996 114.957 58.5087 115.149 58.2702 115.149Z" fill="url(#paint26_linear)"/>
<path d="M51.6385 117.987H44.5932C44.3547 117.987 44.1479 117.796 44.1479 117.54V117.269C44.1479 117.03 44.3388 116.823 44.5932 116.823H51.6385C51.877 116.823 52.0837 117.014 52.0837 117.269V117.54C52.0837 117.78 51.877 117.987 51.6385 117.987Z" fill="url(#paint27_linear)"/>
<path d="M58.2541 117.987H53.499C53.2605 117.987 53.0537 117.796 53.0537 117.54V117.269C53.0537 117.03 53.2445 116.823 53.499 116.823H58.2541C58.4927 116.823 58.6994 117.014 58.6994 117.269V117.54C58.6994 117.78 58.5086 117.987 58.2541 117.987Z" fill="url(#paint28_linear)"/>
<path d="M51.4323 97.5785L49.9692 100.385H52.8796L51.4323 97.5785Z" fill="#808285"/>
<path d="M52.8792 100.385H49.9688L48.9033 102.457C48.8397 102.585 48.7602 102.697 48.6807 102.824C48.6011 102.952 48.5693 103.095 48.5693 103.239C48.5693 104.403 50.0325 105.917 51.1775 105.949C52.5611 105.981 54.2628 104.498 54.2628 103.239C54.2628 103.175 54.2787 103.063 54.231 102.952C54.2151 102.904 54.1832 102.856 54.1673 102.808C54.0878 102.697 54.0083 102.569 53.9447 102.441L52.8792 100.385Z" fill="white"/>
<path d="M51.4314 110.366V103.063L49.9683 104.498V110.366H51.4314Z" fill="#FFD633"/>
<path d="M49.9686 104.498L48.585 103.334V110.366H49.9686V104.498Z" fill="#FFCC00"/>
<path d="M52.8948 110.366V104.514L51.4316 103.063V110.366H52.8948Z" fill="#FCD118"/>
<path d="M54.2781 110.366V103.334L52.8945 104.514V110.366H54.2781Z" fill="#FFE066"/>
<path d="M81.5843 95.7767H67.0327V110.366H81.5843V95.7767Z" fill="url(#paint29_linear)"/>
<path d="M72.8852 115.149H67.478C67.2395 115.149 67.0327 114.957 67.0327 114.702V114.431C67.0327 114.192 67.2236 113.985 67.478 113.985H72.8852C73.1237 113.985 73.3305 114.176 73.3305 114.431V114.702C73.3305 114.941 73.1396 115.149 72.8852 115.149Z" fill="url(#paint30_linear)"/>
<path d="M81.1549 115.149H77.7197C77.4812 115.149 77.2744 114.957 77.2744 114.702V114.431C77.2744 114.192 77.4653 113.985 77.7197 113.985H81.1549C81.3934 113.985 81.6002 114.176 81.6002 114.431V114.702C81.6002 114.941 81.3934 115.149 81.1549 115.149Z" fill="url(#paint31_linear)"/>
<path d="M76.3046 115.149H74.5234C74.2849 115.149 74.0781 114.957 74.0781 114.702V114.431C74.0781 114.192 74.269 113.985 74.5234 113.985H76.3046C76.5432 113.985 76.7499 114.176 76.7499 114.431V114.702C76.7499 114.941 76.5591 115.149 76.3046 115.149Z" fill="url(#paint32_linear)"/>
<path d="M68.5117 117.987H67.478C67.2395 117.987 67.0327 117.796 67.0327 117.54V117.269C67.0327 117.03 67.2236 116.823 67.478 116.823H68.5117C68.7503 116.823 68.957 117.014 68.957 117.269V117.54C68.957 117.78 68.7662 117.987 68.5117 117.987Z" fill="url(#paint33_linear)"/>
<path d="M81.1553 117.987H70.3887C70.1501 117.987 69.9434 117.796 69.9434 117.54V117.269C69.9434 117.03 70.1342 116.823 70.3887 116.823H81.1553C81.3938 116.823 81.6005 117.014 81.6005 117.269V117.54C81.6005 117.78 81.3938 117.987 81.1553 117.987Z" fill="url(#paint34_linear)"/>
<path d="M104.486 95.7767H89.9341V110.366H104.486V95.7767Z" fill="url(#paint35_linear)"/>
<path d="M95.7704 115.149H90.3633C90.1247 115.149 89.918 114.957 89.918 114.702V114.431C89.918 114.192 90.1088 113.985 90.3633 113.985H95.7704C96.009 113.985 96.2157 114.176 96.2157 114.431V114.702C96.2157 114.941 96.0249 115.149 95.7704 115.149Z" fill="url(#paint36_linear)"/>
<path d="M104.04 115.149H97.3608C97.1223 115.149 96.9155 114.957 96.9155 114.702V114.431C96.9155 114.192 97.1064 113.985 97.3608 113.985H104.04C104.279 113.985 104.486 114.176 104.486 114.431V114.702C104.486 114.941 104.279 115.149 104.04 115.149Z" fill="url(#paint37_linear)"/>
<path d="M99.4279 117.987H90.3789C90.1403 117.987 89.9336 117.796 89.9336 117.54V117.269C89.9336 117.03 90.1244 116.823 90.3789 116.823H99.4279C99.6665 116.823 99.8732 117.014 99.8732 117.269V117.54C99.8573 117.78 99.6665 117.987 99.4279 117.987Z" fill="url(#paint38_linear)"/>
<path d="M104.04 117.987H101.289C101.05 117.987 100.843 117.796 100.843 117.54V117.269C100.843 117.03 101.034 116.823 101.289 116.823H104.04C104.278 116.823 104.485 117.014 104.485 117.269V117.54C104.485 117.78 104.278 117.987 104.04 117.987Z" fill="url(#paint39_linear)"/>
<path d="M96.8359 98.9655V97.4508C96.8359 97.2435 96.995 97.0841 97.2017 97.0841C97.4085 97.0841 97.5675 97.2435 97.5675 97.4508V98.9655C97.5675 99.1728 97.4085 99.3322 97.2017 99.3322C96.995 99.3322 96.8359 99.1568 96.8359 98.9655Z" fill="#939598"/>
<path d="M97.0584 103.286C98.1716 103.27 99.1099 103.414 99.8415 103.589H99.8733C99.8574 103.111 99.7301 102.633 99.5234 102.202L97.8376 98.3916C97.5832 97.8814 96.8516 97.8814 96.5972 98.3916L94.9114 102.202C94.6888 102.633 94.5774 103.111 94.5615 103.589H94.5933C95.2454 103.43 96.0883 103.302 97.0584 103.286Z" fill="#D1D3D4"/>
<path d="M97.0586 104.674C98.1719 104.658 99.1102 104.801 99.8417 104.976H99.8736V103.717C99.8736 103.669 99.8736 103.637 99.8736 103.589H99.8417C99.1261 103.43 98.1719 103.286 97.0586 103.286C96.0885 103.302 95.2457 103.43 94.5777 103.589H94.5459C94.5459 103.637 94.5459 103.669 94.5459 103.717V104.976H94.5777C95.2457 104.817 96.0885 104.689 97.0586 104.674Z" fill="url(#paint40_linear)"/>
<path d="M127.37 95.7767H112.819V110.366H127.37V95.7767Z" fill="url(#paint41_linear)"/>
<path d="M118.671 115.149H113.264C113.026 115.149 112.819 114.957 112.819 114.702V114.431C112.819 114.192 113.01 113.985 113.264 113.985H118.671C118.91 113.985 119.117 114.176 119.117 114.431V114.702C119.117 114.941 118.91 115.149 118.671 115.149Z" fill="url(#paint42_linear)"/>
<path d="M126.925 115.149H120.246C120.007 115.149 119.8 114.957 119.8 114.702V114.431C119.8 114.192 119.991 113.985 120.246 113.985H126.925C127.164 113.985 127.37 114.176 127.37 114.431V114.702C127.37 114.941 127.18 115.149 126.925 115.149Z" fill="url(#paint43_linear)"/>
<path d="M122.313 117.987H113.264C113.026 117.987 112.819 117.796 112.819 117.54V117.269C112.819 117.03 113.01 116.823 113.264 116.823H122.313C122.552 116.823 122.758 117.014 122.758 117.269V117.54C122.758 117.78 122.552 117.987 122.313 117.987Z" fill="url(#paint44_linear)"/>
<path d="M126.925 117.987H124.174C123.935 117.987 123.729 117.796 123.729 117.54V117.269C123.729 117.03 123.919 116.823 124.174 116.823H126.925C127.164 116.823 127.37 117.014 127.37 117.269V117.54C127.37 117.78 127.18 117.987 126.925 117.987Z" fill="url(#paint45_linear)"/>
<path d="M99.8574 104.977H99.8256C99.11 104.817 98.1558 104.674 97.0425 104.674C96.0724 104.69 95.2295 104.817 94.5616 104.977H94.5298V110.366H99.8415V104.977H99.8574Z" fill="url(#paint46_linear)"/>
<path d="M76.6704 103.478L74.0941 97.2915C74.0145 97.1161 73.776 97.1161 73.6965 97.2915L71.1201 103.478H76.6704Z" fill="url(#paint47_linear)"/>
<path d="M76.6704 107.288H71.1201V108.261H76.6704V107.288Z" fill="url(#paint48_linear)"/>
<path d="M76.6704 103.462H71.1201V106.077H76.6704V103.462Z" fill="url(#paint49_linear)"/>
<path d="M76.6704 106.093H71.1201V107.288H76.6704V106.093Z" fill="white"/>
<path d="M76.6704 108.261H71.1201V109.457H76.6704V108.261Z" fill="white"/>
<path d="M76.6704 109.457H71.1201V110.366H76.6704V109.457Z" fill="url(#paint50_linear)"/>
<path d="M81.4891 80.8052C83.5565 81.698 85.7989 82.3517 88.0572 82.0807C90.0928 81.8415 91.7149 80.8371 93.194 79.4659C94.7366 78.0309 96.1202 76.564 97.9968 75.5595C100.048 74.4594 102.338 73.8535 104.644 73.7259C105.312 73.6941 105.344 72.6417 104.66 72.6896C100.494 72.9287 96.7245 74.571 93.7347 77.4888C92.3511 78.844 90.9516 80.3268 89.0273 80.853C86.5622 81.5227 84.0336 80.7892 81.7753 79.8166C81.171 79.5456 80.8688 80.5341 81.4891 80.8052Z" fill="white"/>
<path d="M76.3997 67.9541C74.9048 69.5167 74.38 71.6532 74.8412 73.7578C75.3501 76.1016 76.9245 77.9512 78.833 79.3224C79.3737 79.721 79.9144 78.8281 79.3737 78.4295C76.3838 76.277 74.1255 71.8445 77.1313 68.7035C77.5766 68.2252 76.8609 67.4758 76.3997 67.9541Z" fill="white"/>
<path d="M64.4248 72.6577C69.0844 74.2362 74.4757 74.6826 79.2149 73.1838C80.9961 72.6258 84.3517 71.4459 84.5107 69.1818C84.5902 67.9701 83.5883 67.2366 82.6023 66.7902C81.3937 66.2322 80.0578 66.1843 78.7855 66.5192C78.1335 66.6945 78.3879 67.715 79.04 67.5236C80.2486 67.1888 81.4732 67.3004 82.5705 67.9222C83.2225 68.3049 83.7474 68.847 83.3021 69.6442C82.9999 70.1704 82.4274 70.5212 81.9185 70.8241C80.2645 71.8286 78.3879 72.4185 76.4795 72.7374C72.5832 73.3752 68.4642 72.8968 64.7269 71.6372C64.0908 71.4459 63.7886 72.4504 64.4248 72.6577Z" fill="white"/>
<path d="M45.7545 69.0383L28.8174 69.0543V75.8943L46.327 75.8784L45.7545 69.0383Z" fill="url(#paint51_linear)"/>
<path d="M45.0708 77.2974C45.0708 77.5206 45.2616 77.7119 45.4843 77.7119H47.5199C47.7426 77.7119 47.9334 77.5206 47.9334 77.2974V67.6193C47.9334 67.396 47.7426 67.2047 47.5199 67.2047H45.4843C45.2616 67.2047 45.0708 67.396 45.0708 67.6193V73.2795V73.5505V77.2974Z" fill="#E398EB"/>
<path d="M47.9492 75.5276L54.3742 79.689L64.1548 73.5505H56.1236C55.7578 74.1085 55.1376 74.4912 54.4219 74.4912C53.3087 74.4912 52.4022 73.5824 52.4022 72.4663C52.4022 71.3502 53.3087 70.4413 54.4219 70.4413C55.1376 70.4413 55.7737 70.824 56.1236 71.3821H64.1548L54.3742 65.2435L47.9492 69.405V75.5276Z" fill="url(#paint52_linear)"/>
<path d="M134.908 75.9262L137.198 75.9103V69.0064L136.006 68.9905V75.9103L134.908 75.9262Z" fill="url(#paint53_linear)"/>
<path d="M133.811 68.9746L132.618 68.9586V75.9581L133.811 75.9422V68.9746Z" fill="url(#paint54_linear)"/>
<path d="M133.811 68.9745L136.006 68.9904L133.811 68.9745Z" fill="url(#paint55_linear)"/>
<path d="M133.811 75.958L134.908 75.9261L133.811 75.9421V75.958Z" fill="url(#paint56_linear)"/>
<path d="M134.908 75.9261L136.006 75.9102V68.9904L133.811 68.9745V75.9421L134.908 75.9261Z" fill="url(#paint57_linear)"/>
<path d="M134.908 75.9261L136.006 75.9102V68.9904L133.811 68.9745V75.9421L134.908 75.9261Z" fill="url(#paint58_linear)"/>
<path d="M117.351 73.1041C116.492 73.3911 115.713 73.8375 114.918 74.268C112.723 75.4957 110.417 76.6915 107.904 76.8509C107.682 76.8669 107.459 76.8669 107.236 76.8669C114.695 80.263 118.893 75.3841 118.893 75.3841V72.833C118.385 72.833 117.86 72.9446 117.351 73.1041Z" fill="url(#paint59_linear)"/>
<path d="M110.592 72.4823C111.944 72.1155 113.121 71.2864 114.441 70.8559C115.888 70.3776 117.478 70.3936 118.909 70.8878V69.5166C113.773 66.7264 111.308 67.0612 110.004 67.9222C108.906 68.6397 108.763 69.6601 107.3 70.9038C106.823 71.3024 106.33 71.6372 105.837 71.9083C105.901 71.9401 105.98 71.988 106.044 72.0199C107.443 72.6736 109.097 72.8809 110.592 72.4823Z" fill="url(#paint60_linear)"/>
<path d="M107.92 76.851C110.433 76.6915 112.739 75.4957 114.934 74.268C115.713 73.8216 116.508 73.3751 117.367 73.1041C117.86 72.9446 118.401 72.833 118.926 72.833V70.8878C117.494 70.3936 115.904 70.3776 114.457 70.856C113.137 71.2864 111.96 72.1155 110.608 72.4823C109.097 72.8968 107.459 72.6895 106.044 72.0039C105.98 71.9721 105.901 71.9242 105.837 71.8923C104.342 72.6895 102.784 72.9606 101.591 73.0403C103.642 74.8579 105.535 76.0697 107.252 76.851C107.475 76.8669 107.698 76.8669 107.92 76.851Z" fill="url(#paint61_linear)"/>
<path d="M122.329 75.5276L132.619 75.9581V68.9586L122.329 69.3891V75.5276Z" fill="#E6E7E8"/>
<path d="M119.991 72.9764H120.007H119.991V75.4318L122.329 75.5275V69.373L119.991 69.4687V72.9764Z" fill="url(#paint62_linear)"/>
<path d="M118.91 69.5166V70.8878V72.833V75.3841L119.991 75.4319V72.9765V69.4847L118.91 69.5166Z" fill="url(#paint63_linear)"/>
<path d="M137.199 69.0063V75.9102L142.717 75.7348V69.1817L137.199 69.0063Z" fill="#FCD118"/>
<path d="M119.037 100.895V97.9132L121.152 96.7971V100.895H119.037Z" fill="url(#paint64_linear)"/>
<path d="M123.697 104.721H116.477V107.017H123.697V104.721Z" fill="url(#paint65_linear)"/>
<path d="M123.697 107.017H116.477V108.181H123.697V107.017Z" fill="url(#paint66_linear)"/>
<path d="M116.477 104.721L118.464 100.895H121.725L123.713 104.721H116.477Z" fill="url(#paint67_linear)"/>
<path d="M121.295 100.895H121.725V98.9496H118.464V99.5555H121.295V100.895Z" fill="url(#paint68_linear)"/>
<path d="M121.295 99.5554H118.464V100.895H121.295V99.5554Z" fill="url(#paint69_linear)"/>
<path d="M121.295 99.5554H118.464V100.895H121.295V99.5554Z" fill="url(#paint70_linear)"/>
<path d="M123.697 108.181H116.477V110.366H123.697V108.181Z" fill="url(#paint71_linear)"/>
<path d="M147.233 117.62H176.75V159.107H147.52L147.233 117.62Z" fill="url(#paint72_linear)"/>
<path d="M152.005 159.107H142.16C141.429 159.107 140.84 158.517 140.84 157.784V118.944C140.84 118.21 141.429 117.62 142.16 117.62H152.005C152.736 117.62 153.325 118.21 153.325 118.944V157.784C153.325 158.501 152.736 159.107 152.005 159.107Z" fill="url(#paint73_linear)"/>
<path d="M151.305 124.014C151.305 123.44 150.844 122.978 150.271 122.978H143.878C143.305 122.978 142.844 123.44 142.844 124.014V126.517H151.305V124.014Z" fill="#E6E7E8"/>
<path d="M148.696 125.433H145.436C145.055 125.433 144.752 125.13 144.752 124.747V124.732C144.752 124.349 145.055 124.046 145.436 124.046H148.696C149.078 124.046 149.38 124.349 149.38 124.732V124.747C149.38 125.13 149.078 125.433 148.696 125.433Z" fill="white"/>
<path d="M151.305 126.517H142.844V140.468H151.305V126.517Z" fill="white"/>
<path d="M142.844 140.468V141.473C142.844 142.047 143.305 142.509 143.878 142.509H150.271C150.844 142.509 151.305 142.047 151.305 141.473V140.468H142.844Z" fill="#E6E7E8"/>
<path d="M149.142 130.089H145.007C144.816 130.089 144.657 129.929 144.657 129.738C144.657 129.547 144.816 129.387 145.007 129.387H149.142C149.333 129.387 149.492 129.547 149.492 129.738C149.492 129.929 149.333 130.089 149.142 130.089Z" fill="#BCBEC0"/>
<path d="M145.548 132.592H144.276C144.085 132.592 143.926 132.432 143.926 132.241C143.926 132.05 144.085 131.89 144.276 131.89H145.548C145.739 131.89 145.898 132.05 145.898 132.241C145.898 132.432 145.739 132.592 145.548 132.592Z" fill="#BCBEC0"/>
<path d="M149.874 132.592H146.454C146.264 132.592 146.104 132.432 146.104 132.241C146.104 132.05 146.264 131.89 146.454 131.89H149.874C150.064 131.89 150.223 132.05 150.223 132.241C150.223 132.432 150.064 132.592 149.874 132.592Z" fill="#BCBEC0"/>
<path d="M148.665 135.095H144.276C144.085 135.095 143.926 134.936 143.926 134.744C143.926 134.553 144.085 134.394 144.276 134.394H148.665C148.856 134.394 149.015 134.553 149.015 134.744C149.015 134.936 148.856 135.095 148.665 135.095Z" fill="#BCBEC0"/>
<path d="M149.874 135.095H149.651C149.46 135.095 149.301 134.936 149.301 134.744C149.301 134.553 149.46 134.394 149.651 134.394H149.874C150.065 134.394 150.224 134.553 150.224 134.744C150.224 134.936 150.065 135.095 149.874 135.095Z" fill="#BCBEC0"/>
<path d="M146.725 137.582H146.566C146.375 137.582 146.216 137.423 146.216 137.232C146.216 137.04 146.375 136.881 146.566 136.881H146.725C146.916 136.881 147.075 137.04 147.075 137.232C147.075 137.439 146.916 137.582 146.725 137.582Z" fill="#BCBEC0"/>
<path d="M145.675 137.582H144.276C144.085 137.582 143.926 137.423 143.926 137.232C143.926 137.04 144.085 136.881 144.276 136.881H145.675C145.866 136.881 146.025 137.04 146.025 137.232C146.009 137.439 145.866 137.582 145.675 137.582Z" fill="#BCBEC0"/>
<path d="M149.874 137.582H147.568C147.377 137.582 147.218 137.423 147.218 137.232C147.218 137.04 147.377 136.881 147.568 136.881H149.874C150.064 136.881 150.223 137.04 150.223 137.232C150.223 137.439 150.064 137.582 149.874 137.582Z" fill="#BCBEC0"/>
<path d="M147.074 145.65C145.325 145.65 143.91 147.069 143.91 148.823C143.91 150.577 145.325 151.996 147.074 151.996C148.824 151.996 150.239 150.577 150.239 148.823C150.239 147.069 148.824 145.65 147.074 145.65ZM147.074 150.497C146.152 150.497 145.405 149.748 145.405 148.823C145.405 147.898 146.152 147.149 147.074 147.149C147.997 147.149 148.744 147.898 148.744 148.823C148.744 149.748 147.997 150.497 147.074 150.497Z" fill="#E6E7E8"/>
<path d="M148.251 150.008C148.903 149.354 148.903 148.294 148.251 147.64C147.599 146.986 146.542 146.986 145.89 147.64C145.238 148.294 145.238 149.354 145.89 150.008C146.542 150.661 147.599 150.661 148.251 150.008Z" fill="#808285"/>
<path d="M139.505 158.979H129.66C128.929 158.979 128.34 158.39 128.34 157.656V118.816C128.34 118.083 128.929 117.493 129.66 117.493H139.505C140.236 117.493 140.824 118.083 140.824 118.816V157.656C140.824 158.39 140.236 158.979 139.505 158.979Z" fill="url(#paint74_linear)"/>
<path d="M138.805 123.886C138.805 123.312 138.344 122.85 137.771 122.85H131.378C130.805 122.85 130.344 123.312 130.344 123.886V126.389H138.805V123.886Z" fill="#E6E7E8"/>
<path d="M136.196 125.321H132.936C132.555 125.321 132.252 125.018 132.252 124.636V124.62C132.252 124.237 132.555 123.934 132.936 123.934H136.196C136.578 123.934 136.88 124.237 136.88 124.62V124.636C136.88 125.002 136.578 125.321 136.196 125.321Z" fill="white"/>
<path d="M138.805 126.389H130.344V140.341H138.805V126.389Z" fill="white"/>
<path d="M130.344 140.341V141.345C130.344 141.919 130.805 142.381 131.378 142.381H137.771C138.344 142.381 138.805 141.919 138.805 141.345V140.341H130.344Z" fill="#E6E7E8"/>
<path d="M136.642 129.961H132.507C132.316 129.961 132.157 129.802 132.157 129.61C132.157 129.419 132.316 129.26 132.507 129.26H136.642C136.833 129.26 136.992 129.419 136.992 129.61C136.992 129.818 136.833 129.961 136.642 129.961Z" fill="#BCBEC0"/>
<path d="M133.047 132.464H131.775C131.584 132.464 131.425 132.305 131.425 132.113C131.425 131.922 131.584 131.763 131.775 131.763H133.047C133.238 131.763 133.397 131.922 133.397 132.113C133.397 132.305 133.238 132.464 133.047 132.464Z" fill="#BCBEC0"/>
<path d="M137.374 132.464H133.954C133.764 132.464 133.604 132.305 133.604 132.113C133.604 131.922 133.764 131.763 133.954 131.763H137.374C137.564 131.763 137.723 131.922 137.723 132.113C137.723 132.305 137.564 132.464 137.374 132.464Z" fill="#BCBEC0"/>
<path d="M136.165 134.968H131.775C131.584 134.968 131.425 134.808 131.425 134.617C131.425 134.426 131.584 134.266 131.775 134.266H136.165C136.355 134.266 136.514 134.426 136.514 134.617C136.514 134.808 136.355 134.968 136.165 134.968Z" fill="#BCBEC0"/>
<path d="M137.373 134.968H137.151C136.96 134.968 136.801 134.808 136.801 134.617C136.801 134.426 136.96 134.266 137.151 134.266H137.373C137.564 134.266 137.723 134.426 137.723 134.617C137.723 134.808 137.564 134.968 137.373 134.968Z" fill="#BCBEC0"/>
<path d="M134.225 137.471H134.066C133.875 137.471 133.716 137.311 133.716 137.12C133.716 136.929 133.875 136.769 134.066 136.769H134.225C134.416 136.769 134.575 136.929 134.575 137.12C134.575 137.311 134.416 137.471 134.225 137.471Z" fill="#BCBEC0"/>
<path d="M133.159 137.471H131.76C131.569 137.471 131.41 137.311 131.41 137.12C131.41 136.929 131.569 136.769 131.76 136.769H133.159C133.35 136.769 133.509 136.929 133.509 137.12C133.509 137.311 133.35 137.471 133.159 137.471Z" fill="#BCBEC0"/>
<path d="M137.374 137.471H135.068C134.877 137.471 134.718 137.311 134.718 137.12C134.718 136.929 134.877 136.769 135.068 136.769H137.374C137.564 136.769 137.724 136.929 137.724 137.12C137.724 137.311 137.564 137.471 137.374 137.471Z" fill="#BCBEC0"/>
<path d="M134.574 145.523C132.825 145.523 131.41 146.942 131.41 148.696C131.41 150.449 132.825 151.868 134.574 151.868C136.324 151.868 137.739 150.449 137.739 148.696C137.739 146.942 136.324 145.523 134.574 145.523ZM134.574 150.37C133.652 150.37 132.905 149.62 132.905 148.696C132.905 147.771 133.652 147.021 134.574 147.021C135.497 147.021 136.244 147.771 136.244 148.696C136.228 149.62 135.497 150.37 134.574 150.37Z" fill="#E6E7E8"/>
<path d="M134.575 147.037C133.652 147.037 132.905 147.787 132.905 148.712C132.905 149.636 133.652 150.386 134.575 150.386C135.497 150.386 136.244 149.636 136.244 148.712C136.229 147.787 135.497 147.037 134.575 147.037Z" fill="#808285"/>
<path d="M181.538 154.818L181.617 105.248C181.617 104.945 181.856 104.706 182.158 104.706L189.966 104.722C190.269 104.722 190.507 104.961 190.507 105.264L190.428 154.834C190.428 155.137 190.189 155.376 189.887 155.376L182.078 155.36C181.776 155.36 181.538 155.121 181.538 154.818Z" fill="#FCD118"/>
<path d="M185.496 106.396C185.147 106.396 184.86 106.683 184.86 107.033C184.86 107.384 185.147 107.671 185.496 107.671H190.506V106.412L185.496 106.396Z" fill="white"/>
<path d="M187.851 109.473C187.501 109.473 187.215 109.76 187.215 110.111C187.215 110.461 187.501 110.748 187.851 110.748H190.507V109.489L187.851 109.473Z" fill="white"/>
<path d="M187.851 112.534C187.501 112.534 187.215 112.821 187.215 113.172C187.215 113.523 187.501 113.81 187.851 113.81H190.507V112.55L187.851 112.534Z" fill="white"/>
<path d="M185.482 115.595C185.132 115.595 184.846 115.882 184.846 116.233C184.846 116.584 185.132 116.871 185.482 116.871H190.491V115.611L185.482 115.595Z" fill="white"/>
<path d="M187.835 118.673C187.485 118.673 187.199 118.96 187.199 119.31C187.199 119.661 187.485 119.948 187.835 119.948H190.491V118.689L187.835 118.673Z" fill="white"/>
<path d="M187.835 121.734C187.485 121.734 187.199 122.021 187.199 122.372C187.199 122.722 187.485 123.009 187.835 123.009H190.491V121.75L187.835 121.734Z" fill="white"/>
<path d="M185.466 124.795C185.116 124.795 184.83 125.082 184.83 125.433C184.83 125.784 185.116 126.071 185.466 126.071H190.475V124.811L185.466 124.795Z" fill="white"/>
<path d="M187.819 127.872C187.469 127.872 187.183 128.159 187.183 128.51C187.183 128.861 187.469 129.148 187.819 129.148H190.475V127.888L187.819 127.872Z" fill="white"/>
<path d="M187.819 130.934C187.469 130.934 187.183 131.221 187.183 131.572C187.183 131.922 187.469 132.209 187.819 132.209H190.475V130.95L187.819 130.934Z" fill="white"/>
<path d="M185.45 134.011C185.1 134.011 184.813 134.298 184.813 134.649C184.813 135 185.1 135.287 185.45 135.287H190.459V134.027L185.45 134.011Z" fill="white"/>
<path d="M187.804 137.072C187.454 137.072 187.167 137.359 187.167 137.71C187.167 138.061 187.454 138.348 187.804 138.348H190.459V137.088L187.804 137.072Z" fill="white"/>
<path d="M187.804 140.149C187.454 140.149 187.167 140.436 187.167 140.787C187.167 141.138 187.454 141.425 187.804 141.425H190.459V140.165L187.804 140.149Z" fill="white"/>
<path d="M185.434 143.211C185.084 143.211 184.797 143.498 184.797 143.848C184.797 144.199 185.084 144.486 185.434 144.486H190.443V143.227L185.434 143.211Z" fill="white"/>
<path d="M187.787 146.272C187.438 146.272 187.151 146.559 187.151 146.91C187.151 147.261 187.438 147.548 187.787 147.548H190.443V146.288L187.787 146.272Z" fill="white"/>
<path d="M187.787 149.349C187.438 149.349 187.151 149.636 187.151 149.987C187.151 150.338 187.438 150.625 187.787 150.625H190.443V149.365L187.787 149.349Z" fill="white"/>
<path d="M185.418 152.411C185.068 152.411 184.782 152.698 184.782 153.048C184.782 153.399 185.068 153.686 185.418 153.686H190.427V152.427L185.418 152.411Z" fill="white"/>
<path d="M179.518 157.082V132.082H167.972V157.082C167.972 158.198 168.878 159.107 169.991 159.107H181.537C180.424 159.107 179.518 158.198 179.518 157.082Z" fill="url(#paint75_linear)"/>
<path d="M179.518 130.057C179.518 128.941 180.424 128.032 181.537 128.032H169.991C168.878 128.032 167.972 128.941 167.972 130.057V132.082H179.518V130.057Z" fill="url(#paint76_linear)"/>
<path d="M179.518 132.082V157.082C179.518 158.198 180.424 159.107 181.537 159.107H195.087C196.2 159.107 197.107 158.198 197.107 157.082V132.082H179.518Z" fill="url(#paint77_linear)"/>
<path d="M179.518 130.057V132.082H197.107V130.057C197.107 128.941 196.2 128.032 195.087 128.032H181.537C180.424 128.032 179.518 128.925 179.518 130.057Z" fill="url(#paint78_linear)"/>
<path d="M192.304 140.197H191.954C190.873 140.197 189.998 139.32 189.998 138.236V135.446C189.998 134.362 190.873 133.485 191.954 133.485H192.304C193.385 133.485 194.26 134.362 194.26 135.446V138.236C194.26 139.304 193.385 140.197 192.304 140.197Z" fill="url(#paint79_linear)"/>
<path d="M192.304 155.791H191.954C190.873 155.791 189.998 154.914 189.998 153.829V151.039C189.998 149.955 190.873 149.078 191.954 149.078H192.304C193.385 149.078 194.26 149.955 194.26 151.039V153.829C194.26 154.914 193.385 155.791 192.304 155.791Z" fill="url(#paint80_linear)"/>
<path d="M194.276 153.367C193.211 153.367 192.352 152.506 192.352 151.438C192.352 151.151 192.416 150.88 192.527 150.641C191.859 150.944 191.398 151.613 191.398 152.411C191.398 153.479 192.257 154.34 193.322 154.34H194.404C197.314 154.34 199.938 153.033 201.719 150.992C200.018 152.474 197.791 153.367 195.374 153.367H194.276Z" fill="url(#paint81_linear)"/>
<path d="M201.194 143.657C201.194 140.436 198.586 137.806 195.358 137.806H194.276C193.211 137.806 192.352 136.945 192.352 135.876C192.352 135.589 192.416 135.318 192.527 135.079C191.859 135.382 191.398 136.052 191.398 136.849C191.398 137.917 192.257 138.778 193.322 138.778H194.404C197.616 138.778 200.24 141.393 200.24 144.63C200.24 146.001 199.763 147.245 198.984 148.249C200.336 147.165 201.194 145.523 201.194 143.657Z" fill="url(#paint82_linear)"/>
<path d="M194.404 134.904H193.322C193.036 134.904 192.766 134.968 192.527 135.079C192.416 135.318 192.352 135.589 192.352 135.876C192.352 136.945 193.211 137.806 194.277 137.806H195.358C198.571 137.806 201.195 140.421 201.195 143.657C201.195 145.507 200.32 147.165 198.968 148.249C197.903 149.604 196.249 150.481 194.388 150.481H193.307C193.02 150.481 192.75 150.545 192.511 150.657C192.4 150.896 192.336 151.167 192.336 151.454C192.336 152.522 193.195 153.383 194.261 153.383H195.342C197.775 153.383 199.986 152.49 201.688 151.007C203.167 149.301 204.073 147.069 204.073 144.646C204.089 139.273 199.747 134.904 194.404 134.904Z" fill="url(#paint83_linear)"/>
<path d="M180.074 135.063C180.106 135.207 180.122 135.35 180.122 135.494V150.912C180.122 151.964 179.279 152.809 178.229 152.809H167.972V154.228H179.645C180.694 154.228 181.537 153.383 181.537 152.331V136.913C181.537 136.02 180.917 135.271 180.074 135.063Z" fill="#F1F2F2"/>
<path d="M180.074 135.063C179.931 135.031 179.788 135.015 179.645 135.015H167.972V139.591H174.254C174.524 139.591 174.747 139.815 174.747 140.086C174.747 140.357 174.524 140.58 174.254 140.58H167.972V142.892H171.534C171.804 142.892 172.027 143.115 172.027 143.386C172.027 143.657 171.804 143.88 171.534 143.88H167.972V145.794H169.196C169.467 145.794 169.689 146.017 169.689 146.288C169.689 146.559 169.467 146.782 169.196 146.782H167.972V148.696H174.047C174.317 148.696 174.54 148.919 174.54 149.19C174.54 149.461 174.317 149.684 174.047 149.684H167.972V152.841H178.229C179.279 152.841 180.122 151.996 180.122 150.944V135.526C180.122 135.35 180.106 135.207 180.074 135.063ZM177.53 149.652H175.764C175.494 149.652 175.271 149.429 175.271 149.158C175.271 148.887 175.494 148.664 175.764 148.664H177.53C177.8 148.664 178.023 148.887 178.023 149.158C178.023 149.429 177.8 149.652 177.53 149.652ZM177.53 146.766H170.659C170.389 146.766 170.166 146.543 170.166 146.272C170.166 146.001 170.389 145.778 170.659 145.778H177.53C177.8 145.778 178.023 146.001 178.023 146.272C178.023 146.543 177.8 146.766 177.53 146.766ZM177.53 143.864H173.268C172.997 143.864 172.775 143.641 172.775 143.37C172.775 143.099 172.997 142.876 173.268 142.876H177.53C177.8 142.876 178.023 143.099 178.023 143.37C178.023 143.641 177.8 143.864 177.53 143.864Z" fill="white"/>
<path d="M174.747 140.086C174.747 139.815 174.524 139.591 174.254 139.591H167.972V140.58H174.254C174.54 140.58 174.747 140.357 174.747 140.086Z" fill="url(#paint84_linear)"/>
<path d="M177.53 142.876H173.267C172.997 142.876 172.774 143.099 172.774 143.37C172.774 143.641 172.997 143.864 173.267 143.864H177.53C177.8 143.864 178.023 143.641 178.023 143.37C178.023 143.099 177.8 142.876 177.53 142.876Z" fill="url(#paint85_linear)"/>
<path d="M172.027 143.37C172.027 143.099 171.804 142.876 171.534 142.876H167.972V143.864H171.534C171.804 143.864 172.027 143.641 172.027 143.37Z" fill="url(#paint86_linear)"/>
<path d="M177.53 145.778H170.66C170.389 145.778 170.167 146.001 170.167 146.272C170.167 146.543 170.389 146.766 170.66 146.766H177.53C177.8 146.766 178.023 146.543 178.023 146.272C178.023 146.001 177.8 145.778 177.53 145.778Z" fill="url(#paint87_linear)"/>
<path d="M169.689 146.272C169.689 146.001 169.467 145.778 169.196 145.778H167.972V146.766H169.196C169.467 146.766 169.689 146.543 169.689 146.272Z" fill="url(#paint88_linear)"/>
<path d="M177.53 148.664H175.764C175.494 148.664 175.271 148.887 175.271 149.158C175.271 149.429 175.494 149.652 175.764 149.652H177.53C177.8 149.652 178.023 149.429 178.023 149.158C178.023 148.887 177.8 148.664 177.53 148.664Z" fill="url(#paint89_linear)"/>
<path d="M174.54 149.158C174.54 148.887 174.317 148.664 174.047 148.664H167.972V149.652H174.047C174.317 149.652 174.54 149.429 174.54 149.158Z" fill="url(#paint90_linear)"/>
<path d="M176.178 105.949L174.445 110.414H177.896L176.178 105.949Z" fill="#808285"/>
<path d="M176.178 114.655L177.927 116.951L179.549 115.085C179.549 115.037 179.549 114.974 179.549 114.926C179.549 114.814 179.565 114.655 179.502 114.479C179.486 114.4 179.454 114.336 179.422 114.256C179.327 114.065 179.247 113.874 179.168 113.682L177.896 110.398H174.444L173.172 113.682C173.093 113.874 172.997 114.065 172.918 114.256C172.822 114.463 172.791 114.687 172.791 114.91C172.791 114.958 172.791 115.022 172.791 115.085L174.444 116.935L176.178 114.655Z" fill="white"/>
<path d="M176.162 119.199C176.067 119.215 175.972 119.215 175.876 119.215C175.415 119.199 174.906 118.912 174.445 118.465V128.032H176.178L176.162 119.199Z" fill="#FFD633"/>
<path d="M176.162 119.199V114.655L174.429 116.935V118.465C174.89 118.912 175.399 119.199 175.86 119.215C175.971 119.215 176.067 119.215 176.162 119.199Z" fill="#FFD633"/>
<path d="M174.444 118.465C173.586 117.636 172.854 116.265 172.791 115.085V128.016H174.444V118.465Z" fill="#FFCC00"/>
<path d="M174.444 118.465V116.935L172.791 115.085C172.854 116.265 173.586 117.636 174.444 118.465Z" fill="#FFCC00"/>
<path d="M176.162 128.032H177.911V118.274C177.371 118.784 176.751 119.135 176.162 119.199V128.032Z" fill="#FCD118"/>
<path d="M177.928 118.274V116.951L176.178 114.655V119.199C176.767 119.119 177.371 118.768 177.928 118.274Z" fill="#FCD118"/>
<path d="M177.927 118.274V128.032H179.565V115.101C179.486 116.233 178.802 117.445 177.927 118.274Z" fill="#FFE066"/>
<path d="M177.927 118.274C178.802 117.461 179.486 116.233 179.549 115.101L177.927 116.967V118.274Z" fill="#FFE066"/>
</g>
<defs>
<linearGradient id="paint0_linear" x1="-30.5569" y1="236.774" x2="196.511" y2="10.2867" gradientUnits="userSpaceOnUse">
<stop stop-color="#582D7F"/>
<stop offset="0.2125" stop-color="#4B5194"/>
<stop offset="0.7538" stop-color="#2AA7C8"/>
<stop offset="1" stop-color="#1DC9DC"/>
</linearGradient>
<linearGradient id="paint1_linear" x1="138.974" y1="91.1925" x2="197.241" y2="33.0748" gradientUnits="userSpaceOnUse">
<stop stop-color="#582D7F"/>
<stop offset="0.2125" stop-color="#4B5194"/>
<stop offset="0.7538" stop-color="#2AA7C8"/>
<stop offset="1" stop-color="#1DC9DC"/>
</linearGradient>
<linearGradient id="paint2_linear" x1="69.5545" y1="64.5151" x2="148.268" y2="-13.9967" gradientUnits="userSpaceOnUse">
<stop stop-color="#582D7F"/>
<stop offset="0.2125" stop-color="#4B5194"/>
<stop offset="0.7538" stop-color="#2AA7C8"/>
<stop offset="1" stop-color="#1DC9DC"/>
</linearGradient>
<linearGradient id="paint3_linear" x1="55.837" y1="13.8479" x2="64.6042" y2="5.10319" gradientUnits="userSpaceOnUse">
<stop stop-color="#582D7F"/>
<stop offset="0.2125" stop-color="#4B5194"/>
<stop offset="0.7538" stop-color="#2AA7C8"/>
<stop offset="1" stop-color="#1DC9DC"/>
</linearGradient>
<linearGradient id="paint4_linear" x1="191.528" y1="91.3528" x2="197.92" y2="84.9777" gradientUnits="userSpaceOnUse">
<stop stop-color="#582D7F"/>
<stop offset="0.2125" stop-color="#4B5194"/>
<stop offset="0.7538" stop-color="#2AA7C8"/>
<stop offset="1" stop-color="#1DC9DC"/>
</linearGradient>
<linearGradient id="paint5_linear" x1="182.409" y1="166.768" x2="183.472" y2="165.707" gradientUnits="userSpaceOnUse">
<stop stop-color="#582D7F"/>
<stop offset="0.2125" stop-color="#4B5194"/>
<stop offset="0.7538" stop-color="#2AA7C8"/>
<stop offset="1" stop-color="#1DC9DC"/>
</linearGradient>
<linearGradient id="paint6_linear" x1="149.661" y1="173.604" x2="222.855" y2="100.597" gradientUnits="userSpaceOnUse">
<stop stop-color="#582D7F"/>
<stop offset="0.2125" stop-color="#4B5194"/>
<stop offset="0.7538" stop-color="#2AA7C8"/>
<stop offset="1" stop-color="#1DC9DC"/>
</linearGradient>
<linearGradient id="paint7_linear" x1="48.0806" y1="195.336" x2="99.5283" y2="144.02" gradientUnits="userSpaceOnUse">
<stop stop-color="#582D7F"/>
<stop offset="0.2125" stop-color="#4B5194"/>
<stop offset="0.7538" stop-color="#2AA7C8"/>
<stop offset="1" stop-color="#1DC9DC"/>
</linearGradient>
<linearGradient id="paint8_linear" x1="-15.8099" y1="99.7797" x2="72.5965" y2="11.5996" gradientUnits="userSpaceOnUse">
<stop stop-color="#582D7F"/>
<stop offset="0.2125" stop-color="#4B5194"/>
<stop offset="0.7538" stop-color="#2AA7C8"/>
<stop offset="1" stop-color="#1DC9DC"/>
</linearGradient>
<linearGradient id="paint9_linear" x1="17.5972" y1="176.443" x2="52.1856" y2="141.943" gradientUnits="userSpaceOnUse">
<stop stop-color="#582D7F"/>
<stop offset="0.2125" stop-color="#4B5194"/>
<stop offset="0.7538" stop-color="#2AA7C8"/>
<stop offset="1" stop-color="#1DC9DC"/>
</linearGradient>
<linearGradient id="paint10_linear" x1="-3.25674" y1="160.62" x2="56.1852" y2="101.33" gradientUnits="userSpaceOnUse">
<stop stop-color="#582D7F"/>
<stop offset="0.2125" stop-color="#4B5194"/>
<stop offset="0.7538" stop-color="#2AA7C8"/>
<stop offset="1" stop-color="#1DC9DC"/>
</linearGradient>
<linearGradient id="paint11_linear" x1="0.589121" y1="93.796" x2="23.156" y2="71.2868" gradientUnits="userSpaceOnUse">
<stop stop-color="#582D7F"/>
<stop offset="0.2125" stop-color="#4B5194"/>
<stop offset="0.7538" stop-color="#2AA7C8"/>
<stop offset="1" stop-color="#1DC9DC"/>
</linearGradient>
<linearGradient id="paint12_linear" x1="-18.8159" y1="179.379" x2="231.015" y2="46.9214" gradientUnits="userSpaceOnUse">
<stop stop-color="#582D7F"/>
<stop offset="0.2125" stop-color="#4B5194"/>
<stop offset="0.7538" stop-color="#2AA7C8"/>
<stop offset="1" stop-color="#1DC9DC"/>
</linearGradient>
<linearGradient id="paint13_linear" x1="-32.1673" y1="151.129" x2="195.414" y2="-16.8638" gradientUnits="userSpaceOnUse">
<stop stop-color="#582D7F"/>
<stop offset="0.2125" stop-color="#4B5194"/>
<stop offset="0.7538" stop-color="#2AA7C8"/>
<stop offset="1" stop-color="#1DC9DC"/>
</linearGradient>
<linearGradient id="paint14_linear" x1="-43.3808" y1="135.939" x2="184.201" y2="-32.0548" gradientUnits="userSpaceOnUse">
<stop stop-color="#582D7F"/>
<stop offset="0.2125" stop-color="#4B5194"/>
<stop offset="0.7538" stop-color="#2AA7C8"/>
<stop offset="1" stop-color="#1DC9DC"/>
</linearGradient>
<linearGradient id="paint15_linear" x1="85.6749" y1="152.851" x2="85.9517" y2="117.497" gradientUnits="userSpaceOnUse">
<stop stop-color="#D1D3D4"/>
<stop offset="1" stop-color="#9D9E9F"/>
</linearGradient>
<linearGradient id="paint16_linear" x1="47.7755" y1="152.256" x2="69.4575" y2="136.789" gradientUnits="userSpaceOnUse">
<stop stop-color="#9D9E9F"/>
<stop offset="1" stop-color="#D1D3D4"/>
</linearGradient>
<linearGradient id="paint17_linear" x1="85.7609" y1="150.445" x2="85.7609" y2="158.438" gradientUnits="userSpaceOnUse">
<stop stop-color="#D1D3D4"/>
<stop offset="1" stop-color="#9D9E9F"/>
</linearGradient>
<linearGradient id="paint18_linear" x1="85.7609" y1="152.665" x2="85.7609" y2="166.292" gradientUnits="userSpaceOnUse">
<stop stop-color="#D1D3D4"/>
<stop offset="1" stop-color="#9D9E9F"/>
</linearGradient>
<linearGradient id="paint19_linear" x1="1.92574" y1="98.2526" x2="58.2118" y2="42.1105" gradientUnits="userSpaceOnUse">
<stop stop-color="#42E397"/>
<stop offset="1" stop-color="#3CB6B5"/>
</linearGradient>
<linearGradient id="paint20_linear" x1="98.409" y1="41.2369" x2="83.4898" y2="65.823" gradientUnits="userSpaceOnUse">
<stop stop-color="#42E397"/>
<stop offset="1" stop-color="#3CB6B5"/>
</linearGradient>
<linearGradient id="paint21_linear" x1="74.9134" y1="96.4544" x2="54.152" y2="58.4353" gradientUnits="userSpaceOnUse">
<stop stop-color="#42E397"/>
<stop offset="1" stop-color="#3CB6B5"/>
</linearGradient>
<linearGradient id="paint22_linear" x1="167.741" y1="88.1912" x2="117.945" y2="68.0334" gradientUnits="userSpaceOnUse">
<stop stop-color="#42E397"/>
<stop offset="1" stop-color="#3CB6B5"/>
</linearGradient>
<linearGradient id="paint23_linear" x1="68.4295" y1="107.196" x2="97.2776" y2="70.8241" gradientUnits="userSpaceOnUse">
<stop stop-color="#42E397"/>
<stop offset="1" stop-color="#3CB6B5"/>
</linearGradient>
<linearGradient id="paint24_linear" x1="12.5681" y1="103.069" x2="94.4767" y2="103.069" gradientUnits="userSpaceOnUse">
<stop stop-color="#42E397"/>
<stop offset="1" stop-color="#3CB6B5"/>
</linearGradient>
<linearGradient id="paint25_linear" x1="73.6981" y1="114.569" x2="3.34488" y2="114.569" gradientUnits="userSpaceOnUse">
<stop stop-color="#42E397"/>
<stop offset="1" stop-color="#3CB6B5"/>
</linearGradient>
<linearGradient id="paint26_linear" x1="73.6981" y1="114.568" x2="3.34477" y2="114.568" gradientUnits="userSpaceOnUse">
<stop stop-color="#42E397"/>
<stop offset="1" stop-color="#3CB6B5"/>
</linearGradient>
<linearGradient id="paint27_linear" x1="73.698" y1="117.407" x2="3.34476" y2="117.407" gradientUnits="userSpaceOnUse">
<stop stop-color="#42E397"/>
<stop offset="1" stop-color="#3CB6B5"/>
</linearGradient>
<linearGradient id="paint28_linear" x1="73.6979" y1="117.407" x2="3.3448" y2="117.407" gradientUnits="userSpaceOnUse">
<stop stop-color="#42E397"/>
<stop offset="1" stop-color="#3CB6B5"/>
</linearGradient>
<linearGradient id="paint29_linear" x1="12.5678" y1="103.069" x2="94.4765" y2="103.069" gradientUnits="userSpaceOnUse">
<stop stop-color="#42E397"/>
<stop offset="1" stop-color="#3CB6B5"/>
</linearGradient>
<linearGradient id="paint30_linear" x1="73.6978" y1="114.569" x2="3.3447" y2="114.569" gradientUnits="userSpaceOnUse">
<stop stop-color="#42E397"/>
<stop offset="1" stop-color="#3CB6B5"/>
</linearGradient>
<linearGradient id="paint31_linear" x1="73.6977" y1="114.568" x2="3.3445" y2="114.568" gradientUnits="userSpaceOnUse">
<stop stop-color="#42E397"/>
<stop offset="1" stop-color="#3CB6B5"/>
</linearGradient>
<linearGradient id="paint32_linear" x1="73.698" y1="114.568" x2="3.34464" y2="114.568" gradientUnits="userSpaceOnUse">
<stop stop-color="#42E397"/>
<stop offset="1" stop-color="#3CB6B5"/>
</linearGradient>
<linearGradient id="paint33_linear" x1="73.6978" y1="117.407" x2="3.34441" y2="117.407" gradientUnits="userSpaceOnUse">
<stop stop-color="#42E397"/>
<stop offset="1" stop-color="#3CB6B5"/>
</linearGradient>
<linearGradient id="paint34_linear" x1="73.6981" y1="117.407" x2="3.34505" y2="117.407" gradientUnits="userSpaceOnUse">
<stop stop-color="#42E397"/>
<stop offset="1" stop-color="#3CB6B5"/>
</linearGradient>
<linearGradient id="paint35_linear" x1="12.5683" y1="103.069" x2="94.4769" y2="103.069" gradientUnits="userSpaceOnUse">
<stop stop-color="#42E397"/>
<stop offset="1" stop-color="#3CB6B5"/>
</linearGradient>
<linearGradient id="paint36_linear" x1="73.6981" y1="114.569" x2="3.34499" y2="114.569" gradientUnits="userSpaceOnUse">
<stop stop-color="#42E397"/>
<stop offset="1" stop-color="#3CB6B5"/>
</linearGradient>
<linearGradient id="paint37_linear" x1="73.6981" y1="114.568" x2="3.34499" y2="114.568" gradientUnits="userSpaceOnUse">
<stop stop-color="#42E397"/>
<stop offset="1" stop-color="#3CB6B5"/>
</linearGradient>
<linearGradient id="paint38_linear" x1="73.6978" y1="117.407" x2="3.34444" y2="117.407" gradientUnits="userSpaceOnUse">
<stop stop-color="#42E397"/>
<stop offset="1" stop-color="#3CB6B5"/>
</linearGradient>
<linearGradient id="paint39_linear" x1="73.6978" y1="117.407" x2="3.3449" y2="117.407" gradientUnits="userSpaceOnUse">
<stop stop-color="#42E397"/>
<stop offset="1" stop-color="#3CB6B5"/>
</linearGradient>
<linearGradient id="paint40_linear" x1="93.688" y1="104.132" x2="96.5699" y2="104.132" gradientUnits="userSpaceOnUse">
<stop stop-color="#FFDE39"/>
<stop offset="0.0935256" stop-color="#FFC63C"/>
<stop offset="0.2863" stop-color="#FE9843"/>
<stop offset="0.4154" stop-color="#FE7D4B"/>
<stop offset="0.6521" stop-color="#FE4F59"/>
<stop offset="1" stop-color="#ED327F"/>
</linearGradient>
<linearGradient id="paint41_linear" x1="12.568" y1="103.069" x2="94.4767" y2="103.069" gradientUnits="userSpaceOnUse">
<stop stop-color="#42E397"/>
<stop offset="1" stop-color="#3CB6B5"/>
</linearGradient>
<linearGradient id="paint42_linear" x1="73.6982" y1="114.569" x2="3.34525" y2="114.569" gradientUnits="userSpaceOnUse">
<stop stop-color="#42E397"/>
<stop offset="1" stop-color="#3CB6B5"/>
</linearGradient>
<linearGradient id="paint43_linear" x1="73.6977" y1="114.568" x2="3.34402" y2="114.568" gradientUnits="userSpaceOnUse">
<stop stop-color="#42E397"/>
<stop offset="1" stop-color="#3CB6B5"/>
</linearGradient>
<linearGradient id="paint44_linear" x1="73.6983" y1="117.407" x2="3.34549" y2="117.407" gradientUnits="userSpaceOnUse">
<stop stop-color="#42E397"/>
<stop offset="1" stop-color="#3CB6B5"/>
</linearGradient>
<linearGradient id="paint45_linear" x1="73.698" y1="117.407" x2="3.34461" y2="117.407" gradientUnits="userSpaceOnUse">
<stop stop-color="#42E397"/>
<stop offset="1" stop-color="#3CB6B5"/>
</linearGradient>
<linearGradient id="paint46_linear" x1="97.2049" y1="103.288" x2="97.2049" y2="138.247" gradientUnits="userSpaceOnUse">
<stop stop-color="#FFDE39"/>
<stop offset="0.0935256" stop-color="#FFC63C"/>
<stop offset="0.2863" stop-color="#FE9843"/>
<stop offset="0.4154" stop-color="#FE7D4B"/>
<stop offset="0.6521" stop-color="#FE4F59"/>
<stop offset="1" stop-color="#ED327F"/>
</linearGradient>
<linearGradient id="paint47_linear" x1="70.8425" y1="96.4852" x2="96.964" y2="153.591" gradientUnits="userSpaceOnUse">
<stop stop-color="#FFDE39"/>
<stop offset="0.0935256" stop-color="#FFC63C"/>
<stop offset="0.2863" stop-color="#FE9843"/>
<stop offset="0.4154" stop-color="#FE7D4B"/>
<stop offset="0.6521" stop-color="#FE4F59"/>
<stop offset="1" stop-color="#ED327F"/>
</linearGradient>
<linearGradient id="paint48_linear" x1="85.3396" y1="136.955" x2="94.2594" y2="159.583" gradientUnits="userSpaceOnUse">
<stop stop-color="#FFDE39"/>
<stop offset="0.0935256" stop-color="#FFC63C"/>
<stop offset="0.2863" stop-color="#FE9843"/>
<stop offset="0.4154" stop-color="#FE7D4B"/>
<stop offset="0.6521" stop-color="#FE4F59"/>
<stop offset="1" stop-color="#ED327F"/>
</linearGradient>
<linearGradient id="paint49_linear" x1="86.3579" y1="136.552" x2="95.2771" y2="159.179" gradientUnits="userSpaceOnUse">
<stop stop-color="#FFDE39"/>
<stop offset="0.0935256" stop-color="#FFC63C"/>
<stop offset="0.2863" stop-color="#FE9843"/>
<stop offset="0.4154" stop-color="#FE7D4B"/>
<stop offset="0.6521" stop-color="#FE4F59"/>
<stop offset="1" stop-color="#ED327F"/>
</linearGradient>
<linearGradient id="paint50_linear" x1="84.426" y1="136.765" x2="93.1973" y2="159.017" gradientUnits="userSpaceOnUse">
<stop stop-color="#FFDE39"/>
<stop offset="0.0935256" stop-color="#FFC63C"/>
<stop offset="0.2863" stop-color="#FE9843"/>
<stop offset="0.4154" stop-color="#FE7D4B"/>
<stop offset="0.6521" stop-color="#FE4F59"/>
<stop offset="1" stop-color="#ED327F"/>
</linearGradient>
<linearGradient id="paint51_linear" x1="53.2109" y1="73.0758" x2="31.8579" y2="72.2603" gradientUnits="userSpaceOnUse">
<stop stop-color="#AA72B0"/>
<stop offset="1" stop-color="#E9ADEF"/>
</linearGradient>
<linearGradient id="paint52_linear" x1="68.4505" y1="68.3723" x2="41.1" y2="76.2768" gradientUnits="userSpaceOnUse">
<stop stop-color="#F1F2F2"/>
<stop offset="0.418" stop-color="#D6D7D7"/>
<stop offset="1" stop-color="#B5B5B5"/>
</linearGradient>
<linearGradient id="paint53_linear" x1="138.275" y1="72.4607" x2="134.797" y2="72.4607" gradientUnits="userSpaceOnUse">
<stop stop-color="#9D9E9F"/>
<stop offset="1" stop-color="#D1D3D4"/>
</linearGradient>
<linearGradient id="paint54_linear" x1="135.104" y1="72.4559" x2="133.353" y2="72.4559" gradientUnits="userSpaceOnUse">
<stop stop-color="#9D9E9F"/>
<stop offset="1" stop-color="#D1D3D4"/>
</linearGradient>
<linearGradient id="paint55_linear" x1="137.275" y1="68.9783" x2="134.463" y2="68.9783" gradientUnits="userSpaceOnUse">
<stop stop-color="#9D9E9F"/>
<stop offset="1" stop-color="#D1D3D4"/>
</linearGradient>
<linearGradient id="paint56_linear" x1="137.275" y1="75.9436" x2="134.463" y2="75.9436" gradientUnits="userSpaceOnUse">
<stop stop-color="#9D9E9F"/>
<stop offset="1" stop-color="#D1D3D4"/>
</linearGradient>
<linearGradient id="paint57_linear" x1="148.226" y1="72.0193" x2="132.905" y2="72.5017" gradientUnits="userSpaceOnUse">
<stop stop-color="#9D9E9F"/>
<stop offset="1" stop-color="#D1D3D4"/>
</linearGradient>
<linearGradient id="paint58_linear" x1="137.051" y1="72.4558" x2="134.227" y2="72.4558" gradientUnits="userSpaceOnUse">
<stop stop-color="#9D9E9F"/>
<stop offset="1" stop-color="#D1D3D4"/>
</linearGradient>
<linearGradient id="paint59_linear" x1="123.484" y1="72.0308" x2="108.684" y2="78.3362" gradientUnits="userSpaceOnUse">
<stop stop-color="#FDD7AD"/>
<stop offset="1" stop-color="#FD98AD"/>
</linearGradient>
<linearGradient id="paint60_linear" x1="117.051" y1="75.3828" x2="105.613" y2="64.023" gradientUnits="userSpaceOnUse">
<stop stop-color="#FDD7AD"/>
<stop offset="1" stop-color="#FD98AD"/>
</linearGradient>
<linearGradient id="paint61_linear" x1="108.579" y1="74.0076" x2="121.315" y2="70.5386" gradientUnits="userSpaceOnUse">
<stop stop-color="#FDD7AD"/>
<stop offset="1" stop-color="#FD98AD"/>
</linearGradient>
<linearGradient id="paint62_linear" x1="121.158" y1="75.5294" x2="121.158" y2="69.3823" gradientUnits="userSpaceOnUse">
<stop stop-color="#9D9E9F"/>
<stop offset="1" stop-color="#D1D3D4"/>
</linearGradient>
<linearGradient id="paint63_linear" x1="119.45" y1="75.6534" x2="119.45" y2="61.5864" gradientUnits="userSpaceOnUse">
<stop stop-color="#9D9E9F"/>
<stop offset="1" stop-color="#D1D3D4"/>
</linearGradient>
<linearGradient id="paint64_linear" x1="120.094" y1="97.8208" x2="120.094" y2="112.784" gradientUnits="userSpaceOnUse">
<stop stop-color="#FFDE39"/>
<stop offset="0.0935256" stop-color="#FFC63C"/>
<stop offset="0.2863" stop-color="#FE9843"/>
<stop offset="0.4154" stop-color="#FE7D4B"/>
<stop offset="0.6521" stop-color="#FE4F59"/>
<stop offset="1" stop-color="#ED327F"/>
</linearGradient>
<linearGradient id="paint65_linear" x1="108.533" y1="105.874" x2="126.95" y2="105.874" gradientUnits="userSpaceOnUse">
<stop stop-color="#9D9E9F"/>
<stop offset="1" stop-color="#D1D3D4"/>
</linearGradient>
<linearGradient id="paint66_linear" x1="110.257" y1="107.602" x2="102.694" y2="107.602" gradientUnits="userSpaceOnUse">
<stop stop-color="#FFDE39"/>
<stop offset="0.0935256" stop-color="#FFC63C"/>
<stop offset="0.2863" stop-color="#FE9843"/>
<stop offset="0.4154" stop-color="#FE7D4B"/>
<stop offset="0.6521" stop-color="#FE4F59"/>
<stop offset="1" stop-color="#ED327F"/>
</linearGradient>
<linearGradient id="paint67_linear" x1="120.094" y1="108.885" x2="120.094" y2="99.3445" gradientUnits="userSpaceOnUse">
<stop stop-color="#9D9E9F"/>
<stop offset="1" stop-color="#D1D3D4"/>
</linearGradient>
<linearGradient id="paint68_linear" x1="120.094" y1="97.341" x2="120.094" y2="103.787" gradientUnits="userSpaceOnUse">
<stop stop-color="#9D9E9F"/>
<stop offset="1" stop-color="#D1D3D4"/>
</linearGradient>
<linearGradient id="paint69_linear" x1="119.883" y1="97.3409" x2="119.883" y2="103.787" gradientUnits="userSpaceOnUse">
<stop stop-color="#9D9E9F"/>
<stop offset="1" stop-color="#D1D3D4"/>
</linearGradient>
<linearGradient id="paint70_linear" x1="119.883" y1="100.116" x2="119.883" y2="95.1099" gradientUnits="userSpaceOnUse">
<stop stop-color="#9D9E9F"/>
<stop offset="1" stop-color="#D1D3D4"/>
</linearGradient>
<linearGradient id="paint71_linear" x1="109.16" y1="109.275" x2="129.253" y2="109.275" gradientUnits="userSpaceOnUse">
<stop stop-color="#FFDE39"/>
<stop offset="0.0935256" stop-color="#FFC63C"/>
<stop offset="0.2863" stop-color="#FE9843"/>
<stop offset="0.4154" stop-color="#FE7D4B"/>
<stop offset="0.6521" stop-color="#FE4F59"/>
<stop offset="1" stop-color="#ED327F"/>
</linearGradient>
<linearGradient id="paint72_linear" x1="158.832" y1="138.358" x2="214.864" y2="138.358" gradientUnits="userSpaceOnUse">
<stop stop-color="#FC9E18"/>
<stop offset="0.3131" stop-color="#FCAF18"/>
<stop offset="1" stop-color="#FCD118"/>
</linearGradient>
<linearGradient id="paint73_linear" x1="176.438" y1="138.358" x2="147.066" y2="138.358" gradientUnits="userSpaceOnUse">
<stop stop-color="#FC9E18"/>
<stop offset="0.3131" stop-color="#FCAF18"/>
<stop offset="1" stop-color="#FCD118"/>
</linearGradient>
<linearGradient id="paint74_linear" x1="107.607" y1="138.233" x2="161.202" y2="138.233" gradientUnits="userSpaceOnUse">
<stop stop-color="#FFDE39"/>
<stop offset="0.0935256" stop-color="#FFC63C"/>
<stop offset="0.2863" stop-color="#FE9843"/>
<stop offset="0.4154" stop-color="#FE7D4B"/>
<stop offset="0.6521" stop-color="#FE4F59"/>
<stop offset="1" stop-color="#ED327F"/>
</linearGradient>
<linearGradient id="paint75_linear" x1="171.287" y1="145.589" x2="228.227" y2="145.594" gradientUnits="userSpaceOnUse">
<stop stop-color="#EE6EE4"/>
<stop offset="1" stop-color="#CEECFA"/>
</linearGradient>
<linearGradient id="paint76_linear" x1="174.753" y1="142.113" x2="174.755" y2="122.425" gradientUnits="userSpaceOnUse">
<stop stop-color="#EE6EE4"/>
<stop offset="1" stop-color="#CEECFA"/>
</linearGradient>
<linearGradient id="paint77_linear" x1="173.941" y1="145.589" x2="233.06" y2="145.595" gradientUnits="userSpaceOnUse">
<stop stop-color="#EE6EE4"/>
<stop offset="1" stop-color="#CEECFA"/>
</linearGradient>
<linearGradient id="paint78_linear" x1="188.306" y1="144.072" x2="188.308" y2="124.384" gradientUnits="userSpaceOnUse">
<stop stop-color="#EE6EE4"/>
<stop offset="1" stop-color="#CEECFA"/>
</linearGradient>
<linearGradient id="paint79_linear" x1="175.635" y1="136.823" x2="202.927" y2="136.826" gradientUnits="userSpaceOnUse">
<stop stop-color="#EE6EE4"/>
<stop offset="1" stop-color="#CEECFA"/>
</linearGradient>
<linearGradient id="paint80_linear" x1="175.634" y1="152.422" x2="202.926" y2="152.425" gradientUnits="userSpaceOnUse">
<stop stop-color="#EE6EE4"/>
<stop offset="1" stop-color="#CEECFA"/>
</linearGradient>
<linearGradient id="paint81_linear" x1="185.939" y1="153.347" x2="203.713" y2="151.402" gradientUnits="userSpaceOnUse">
<stop stop-color="#EE6EE4"/>
<stop offset="1" stop-color="#CEECFA"/>
</linearGradient>
<linearGradient id="paint82_linear" x1="191.362" y1="143.559" x2="203.558" y2="138.318" gradientUnits="userSpaceOnUse">
<stop stop-color="#EE6EE4"/>
<stop offset="1" stop-color="#CEECFA"/>
</linearGradient>
<linearGradient id="paint83_linear" x1="191.925" y1="145.595" x2="212.448" y2="136.447" gradientUnits="userSpaceOnUse">
<stop stop-color="#EE6EE4"/>
<stop offset="1" stop-color="#CEECFA"/>
</linearGradient>
<linearGradient id="paint84_linear" x1="171.361" y1="150.399" x2="171.362" y2="138.449" gradientUnits="userSpaceOnUse">
<stop stop-color="#E6E7E8"/>
<stop offset="1" stop-color="#BCBEC0"/>
</linearGradient>
<linearGradient id="paint85_linear" x1="175.403" y1="150.398" x2="175.404" y2="138.449" gradientUnits="userSpaceOnUse">
<stop stop-color="#E6E7E8"/>
<stop offset="1" stop-color="#BCBEC0"/>
</linearGradient>
<linearGradient id="paint86_linear" x1="169.997" y1="150.398" x2="169.998" y2="138.449" gradientUnits="userSpaceOnUse">
<stop stop-color="#E6E7E8"/>
<stop offset="1" stop-color="#BCBEC0"/>
</linearGradient>
<linearGradient id="paint87_linear" x1="174.101" y1="150.398" x2="174.102" y2="138.448" gradientUnits="userSpaceOnUse">
<stop stop-color="#E6E7E8"/>
<stop offset="1" stop-color="#BCBEC0"/>
</linearGradient>
<linearGradient id="paint88_linear" x1="168.827" y1="150.397" x2="168.828" y2="138.449" gradientUnits="userSpaceOnUse">
<stop stop-color="#E6E7E8"/>
<stop offset="1" stop-color="#BCBEC0"/>
</linearGradient>
<linearGradient id="paint89_linear" x1="176.653" y1="150.398" x2="176.654" y2="138.45" gradientUnits="userSpaceOnUse">
<stop stop-color="#E6E7E8"/>
<stop offset="1" stop-color="#BCBEC0"/>
</linearGradient>
<linearGradient id="paint90_linear" x1="171.256" y1="150.397" x2="171.257" y2="138.448" gradientUnits="userSpaceOnUse">
<stop stop-color="#E6E7E8"/>
<stop offset="1" stop-color="#BCBEC0"/>
</linearGradient>
<clipPath id="clip0">
<rect width="216" height="192" fill="white"/>
</clipPath>
</defs>
</svg>
