<?xml version="1.0" encoding="UTF-8"?>
<svg width="238px" height="166px" viewBox="0 0 238 166" version="1.1" xmlns="http://www.w3.org/2000/svg" xmlns:xlink="http://www.w3.org/1999/xlink">
    <title>Artboard</title>
    <g id="Artboard" stroke="none" stroke-width="1" fill="none" fill-rule="evenodd">
        <path d="M119,96.3529412 C188.61979,46.6859291 202.338586,38.6099784 235,17.8823529 L235,152 C235,158.627417 229.627417,164 223,164 L15,164 C8.372583,164 3,158.627417 3,152 L3,17.8823529 L3,17.8823529 C24.2256433,28.3044057 50.1350988,47.6289911 119,96.3529412 Z M223,3 C227.548243,3 231.50549,5.53035773 233.540801,9.26013449 C232.921387,9.08406006 232.20405,9.01988056 231.38656,9.09600359 C203.529132,11.6900313 166.066945,33.5733117 119,74.7458449 C67.1776256,34.99923 30.2286008,13.1159495 8.15292564,9.09600359 C6.54416254,8.80305034 5.36836668,8.85728783 4.5175608,9.15456331 C6.56908015,5.48293363 10.49458,3 15,3 L223,3 Z" id="Combined-Shape" fill="#FFFFFF"></path>
    </g>
</svg>