<svg width="276" height="280" viewBox="0 0 276 280" fill="none" xmlns="http://www.w3.org/2000/svg">
<g clip-path="url(#clip0)">
<path d="M65.5915 19.973C56.4169 33.0719 67.1663 54.3446 53.5756 64.1944C40.3272 73.8047 24.0662 58.0725 11.6052 66.3148C-6.91515 78.5586 -3.52603 134.648 23.5185 169.464C31.6661 179.929 38.4443 183.999 41.4569 195.867C47.927 221.312 25.1959 236.428 29.5094 249.014C39.2317 277.332 189.004 301.102 249.083 215.976C277.155 176.201 281.331 118.778 256.272 75.1727C211.016 -3.62534 86.1659 -9.43944 65.5915 19.973Z" fill="#F4F7FA"/>
<path d="M161 115.187C166.649 115.666 171.681 111.083 172.195 104.961C172.708 98.8395 168.532 93.47 162.883 92.9912C162.575 92.957 162.301 92.957 161.993 92.957C161.719 89.7763 161.24 86.6983 160.521 83.6886C160.795 83.586 161.069 83.4492 161.308 83.3124C166.478 80.6448 168.737 74.0099 166.341 68.4694C163.944 62.9289 157.851 60.5691 152.682 63.2367C152.408 63.3735 152.168 63.5445 151.894 63.6813C150.217 61.1505 148.334 58.7564 146.314 56.5334C146.485 56.294 146.691 56.0546 146.862 55.781C150.148 50.7193 149.019 43.7766 144.397 40.3223C139.741 36.8339 133.34 38.1335 130.053 43.1952C129.882 43.4688 129.745 43.7082 129.608 43.9818C126.972 42.7164 124.234 41.6562 121.426 40.8353C121.461 40.5275 121.529 40.2197 121.563 39.9119C122.077 33.79 123.207 26.8815 117.524 26.4711C104.412 25.5819 101.571 32.0458 101.057 38.1677C101.023 38.4755 101.023 38.7833 101.023 39.1253C98.0791 39.4673 95.2035 40.0487 92.4305 40.8353C92.3278 40.5617 92.2251 40.2539 92.1224 39.9803C89.7261 34.4398 90.1711 30.7462 84.7622 32.7982C72.9516 37.3127 71.0688 44.016 73.4309 49.5565C73.5678 49.8301 73.7048 50.1379 73.8417 50.3773C71.4796 52.2241 69.2202 54.2762 67.1319 56.4992C66.8923 56.294 66.6869 56.0888 66.4473 55.9178C61.7915 52.4293 55.3898 53.729 52.1034 58.7906C48.817 63.8523 49.9467 70.795 54.5682 74.2493C54.8078 74.4203 55.0475 74.5913 55.2871 74.7281C54.0889 77.5667 53.0619 80.5422 52.2746 83.6203C52.0007 83.586 51.6926 83.5177 51.4187 83.4834C45.7702 83.0046 40.7379 87.5875 40.2244 93.7094C39.7108 99.8313 43.8873 105.201 49.5359 105.68C49.844 105.714 50.1179 105.714 50.426 105.714C50.6998 108.894 51.1791 111.973 51.898 114.982C51.6241 115.085 51.3503 115.222 51.1106 115.358C45.9414 118.026 43.6819 124.661 46.0783 130.201C48.4746 135.742 54.5682 138.102 59.7375 135.434C60.0114 135.297 60.251 135.126 60.5249 134.99C62.2023 137.52 64.0851 139.914 66.1049 142.137C65.9338 142.377 65.7284 142.616 65.5572 142.89C62.2708 147.952 63.4005 154.894 68.022 158.348C72.6778 161.837 82.7424 160.23 85.9946 155.168C86.1658 154.894 82.674 154.928 82.8109 154.689C85.4469 155.954 88.1856 157.015 90.9927 157.835C90.9585 158.143 90.89 158.451 90.8558 158.759C90.3423 164.881 94.5188 170.25 100.167 170.729C105.816 171.208 110.848 166.625 111.362 160.503C111.396 160.195 111.396 159.888 111.396 159.546C114.34 159.203 117.216 158.622 119.989 157.835C120.091 158.109 120.194 158.417 120.297 158.69C122.693 164.231 128.787 166.591 133.956 163.923C139.125 161.256 141.385 154.621 138.988 149.08C138.851 148.807 138.714 148.499 138.577 148.259C140.939 146.412 143.199 144.36 145.287 142.137C145.527 142.343 145.732 142.548 145.972 142.719C150.628 146.207 157.029 144.908 160.316 139.846C163.602 134.784 162.472 127.842 157.851 124.387C157.611 124.216 157.372 124.045 157.132 123.909C158.33 121.07 159.357 118.094 160.145 115.016C160.418 115.119 160.692 115.187 161 115.187ZM102.769 139.709C82.1947 137.965 67.0635 118.539 68.9463 96.3087C70.8292 74.0783 89.0072 57.4226 109.582 59.1668C130.156 60.9111 145.287 80.337 143.404 102.567C141.521 124.798 123.309 141.419 102.769 139.709Z" fill="#BFC6D1"/>
<path d="M161.308 83.3467C166.478 80.6791 168.737 74.0442 166.341 68.5037C163.944 62.9632 157.851 60.6033 152.682 63.271C152.408 63.4078 152.168 63.5788 151.894 63.7156C150.217 61.1848 148.334 58.7907 146.314 56.5677C146.485 56.3283 146.691 56.0889 146.862 55.8153C150.148 50.7536 152.647 40.6986 147.683 37.7232C138.235 32.0801 133.305 38.1678 130.053 43.2295C129.882 43.5031 129.745 43.7425 129.608 44.0161C126.972 42.7506 124.233 41.6904 121.426 40.8696C121.461 40.5618 121.529 40.254 121.563 39.9462C121.837 36.6287 120.742 33.5165 118.756 31.2935C117.489 40.8696 116.291 50.4458 115.196 60.0561C132.86 64.5022 145.15 82.3549 143.438 102.533C142.001 119.634 130.909 133.416 116.531 138.068C116.565 139.949 116.599 141.795 116.599 143.677C116.565 148.738 116.223 153.834 115.88 158.93C117.284 158.656 118.653 158.314 120.023 157.904C120.125 158.178 120.228 158.485 120.331 158.759C122.727 164.299 128.033 167.685 137.55 163.205C142.822 160.743 141.419 154.689 139.022 149.149C138.885 148.875 138.748 148.567 138.612 148.328C140.974 146.481 143.233 144.429 145.321 142.206C145.561 142.411 145.766 142.616 146.006 142.787C150.662 146.276 161.069 144.326 164.355 139.23C167.642 134.169 162.541 127.91 157.885 124.422C157.645 124.251 157.406 124.08 157.166 123.943C158.364 121.104 159.391 118.129 160.179 115.051C160.453 115.085 160.761 115.153 161.035 115.187C166.683 115.666 171.715 111.083 172.229 104.961C172.742 98.8396 168.566 93.4701 162.917 92.9913C162.609 92.9571 162.335 92.9571 162.027 92.9571C161.753 89.7764 161.274 86.6984 160.555 83.6887C160.795 83.5861 161.035 83.4835 161.308 83.3467Z" fill="#BFC6D1"/>
<path d="M166.272 113.717C171.921 114.195 176.953 109.612 177.467 103.491C177.98 97.3686 173.804 91.9992 168.155 91.5203C167.847 91.4861 167.573 91.4861 167.265 91.4861C166.991 88.3055 166.512 85.2274 165.793 82.2178C166.067 82.1152 166.341 81.9784 166.58 81.8416C171.75 79.1739 174.009 72.539 171.613 66.9985C169.216 61.458 163.123 59.0982 157.954 61.7659C157.68 61.9027 157.44 62.0737 157.166 62.2105C155.489 59.6796 153.606 57.2856 151.586 55.0625C151.757 54.8231 151.963 54.5837 152.134 54.3101C155.42 49.2485 154.291 42.3057 149.669 38.8515C145.013 35.363 138.612 36.6626 135.325 41.7243C135.154 41.9979 135.017 42.2373 134.88 42.5109C132.244 41.2455 129.505 40.1853 126.698 39.3645C126.733 39.0567 126.801 38.7489 126.835 38.4411C127.349 32.3192 123.172 26.9497 117.524 26.4709C111.875 25.9921 106.843 30.5749 106.329 36.6968C106.295 37.0046 106.295 37.3125 106.295 37.6545C103.351 37.9965 100.475 38.5779 97.7025 39.3645C97.5998 39.0909 97.4971 38.7831 97.3944 38.5095C94.9981 32.969 88.9045 30.6091 83.7352 33.2768C78.5659 35.9444 76.3065 42.5793 78.7029 48.1198C78.8398 48.3934 78.9767 48.7012 79.1137 48.9406C76.7516 50.7875 74.4922 52.8395 72.4039 55.0625C72.1643 54.8573 71.9589 54.6521 71.7192 54.4811C67.0635 50.9927 60.6618 52.2923 57.3754 57.354C54.089 62.4157 55.2187 69.3584 59.8402 72.8126C60.0798 72.9836 60.3195 73.1546 60.5591 73.2914C59.3609 76.1301 58.3339 79.1055 57.5465 82.1836C57.2727 82.1494 56.9646 82.081 56.6907 82.0468C51.0422 81.568 46.0098 86.1509 45.4963 92.2728C44.9828 98.3947 49.1593 103.764 54.8079 104.243C55.116 104.277 55.3898 104.277 55.6979 104.277C55.9718 107.458 56.4511 110.536 57.17 113.546C56.8961 113.648 56.6222 113.785 56.3826 113.922C51.2133 116.589 48.9539 123.224 51.3503 128.765C53.7466 134.305 59.8402 136.665 65.0095 133.997C65.2833 133.861 65.523 133.69 65.7968 133.553C67.4743 136.084 69.3571 138.478 71.3769 140.701C71.2057 140.94 71.0003 141.18 70.8292 141.453C67.5427 146.515 68.6724 153.458 73.294 156.912C77.9497 160.4 84.3514 159.101 87.6378 154.039C87.809 153.765 87.9459 153.526 88.0829 153.252C90.7189 154.518 93.4575 155.578 96.2647 156.399C96.2305 156.707 96.162 157.014 96.1278 157.322C95.6143 163.444 99.7908 168.814 105.439 169.292C111.088 169.771 116.12 165.188 116.634 159.066C116.668 158.759 116.668 158.451 116.668 158.109C119.612 157.767 122.488 157.185 125.261 156.399C125.363 156.672 125.466 156.98 125.569 157.254C127.965 162.794 134.059 165.154 139.228 162.487C144.397 159.853 146.656 153.184 144.26 147.643C144.123 147.37 143.986 147.062 143.849 146.823C146.211 144.976 148.471 142.924 150.559 140.701C150.799 140.906 151.004 141.111 151.244 141.282C155.9 144.771 162.301 143.471 165.588 138.409C168.874 133.348 167.744 126.405 163.123 122.951C162.883 122.78 162.644 122.609 162.404 122.472C163.602 119.633 164.629 116.658 165.416 113.58C165.69 113.648 165.964 113.717 166.272 113.717ZM108.041 138.204C87.4667 136.46 72.3354 117.034 74.2183 94.8036C76.1011 72.5732 94.2791 55.9176 114.854 57.6618C135.428 59.406 150.559 78.8319 148.676 101.062C146.793 123.327 128.615 139.948 108.041 138.204Z" fill="#D8DEE8"/>
<path d="M52.6514 269.5L89.4867 210.846C89.6921 210.538 101.4 194.943 113.656 196.755C127.041 198.739 141.042 217.994 141.214 218.302L167.745 261.942L52.6514 269.5Z" fill="url(#paint0_linear)"/>
<path d="M100.339 209.718L110.78 223.022C112.184 224.8 115.915 224.971 118.106 223.364L128.205 215.942C129.746 214.813 132.245 214.54 134.059 215.292L141.18 218.302L114.443 174.354C114.067 173.739 112.731 173.807 112.355 174.423L89.4526 210.88L93.7661 208.863C96.0939 207.768 99.1407 208.179 100.339 209.718Z" fill="white"/>
<g opacity="0.3">
<path opacity="0.3" d="M141.179 218.302C141.008 217.994 128.65 200.996 116.018 197.303C112.731 207.905 99.072 213.685 98.0792 226.202C96.9837 240.395 113.792 243.474 112.389 254.589C111.978 257.872 110.027 261.702 104.96 266.046L167.676 261.942L141.179 218.302Z" fill="url(#paint1_linear)"/>
</g>
<path d="M100.339 209.718L110.78 223.022C112.184 224.8 115.915 224.971 118.106 223.364L128.205 215.942C129.746 214.813 132.245 214.54 134.059 215.292L141.18 218.302L114.443 174.354C114.067 173.739 112.731 173.807 112.355 174.423L89.4526 210.88L93.7661 208.863C96.0939 207.768 99.1407 208.179 100.339 209.718Z" fill="url(#paint2_linear)"/>
<g opacity="0.3">
<path opacity="0.3" d="M114.477 174.354C114.1 173.739 112.765 173.807 112.389 174.423L110.095 178.082C113.553 181.742 116.565 186.461 116.736 192.104C117.044 201.509 109.308 207.084 103.693 213.958L110.814 223.022C112.218 224.8 115.949 224.971 118.14 223.364L128.239 215.942C129.779 214.813 132.278 214.54 134.093 215.292L141.213 218.302L114.477 174.354Z" fill="url(#paint3_linear)"/>
</g>
<path d="M180.753 155.202C183.15 154.928 185.443 154.621 187.703 154.313V119.599C186.333 119.599 184.964 119.633 183.595 119.633C86.9533 120.01 67.8852 109.886 40.0876 125.516C36.4931 127.534 2.43068 147.336 0.479363 180.1C-1.06115 206.092 18.452 225.245 24.7852 231.469C58.3683 264.439 107.22 258.077 115.025 256.949C117.113 248.809 119.236 240.635 121.324 232.495C116.052 232.393 91.3352 231.435 71.6509 211.53C69.5284 209.376 55.1161 189.163 62.6817 173.807C71.1374 156.638 100.612 164.846 180.753 155.202Z" fill="url(#paint4_linear)"/>
<path d="M191.776 2.94143C198.383 -0.273419 204.682 0.581594 207.797 1.94962C211.495 3.55704 212.727 4.75406 215.979 5.36967C218.889 5.91688 221.867 2.39422 224.127 4.85666C224.264 5.02767 224.469 5.23287 224.675 5.57488C226.284 8.31092 224.366 11.6284 224.914 17.4083C225.188 20.3837 225.838 21.2045 226.42 26.8818C226.66 29.0365 226.592 29.3785 226.523 29.6179C225.53 33.4825 217.725 32.7985 212.179 31.1911C204.545 28.9681 202.08 25.1034 197.014 26.916C194.686 27.7368 192.906 29.3785 191.776 30.6439C192.358 21.4439 191.263 12.1414 191.776 2.94143Z" fill="url(#paint5_linear)"/>
<path d="M191.879 75.9252C191.708 75.9252 191.605 75.7884 191.605 75.6516V0.273604C191.605 0.102602 191.742 0 191.879 0C192.05 0 192.153 0.136802 192.153 0.273604V75.6174C192.153 75.7884 192.05 75.9252 191.879 75.9252Z" fill="#26264F"/>
<path d="M96.0591 266.662L154.325 131.638C154.633 130.954 173.05 95.4196 192.187 100.55C213.069 106.159 234.773 151.714 235.047 152.466L275.991 254.863L96.0591 266.662Z" fill="url(#paint6_linear)"/>
<path d="M171.373 129.723L187.702 161.392C189.859 165.599 195.747 166.249 199.136 162.692L214.883 146.139C217.314 143.608 221.182 143.129 223.99 145.01L235.047 152.466L193.487 48.4963C192.905 47.0598 190.817 47.0598 190.201 48.4963L154.324 131.638L161.137 127.26C164.731 124.935 169.49 126.063 171.373 129.723Z" fill="white"/>
<g opacity="0.3">
<path opacity="0.3" d="M235.047 152.432C234.773 151.748 215.568 111.425 195.918 101.952C190.818 126.337 169.387 138.922 167.847 167.993C166.101 201.031 192.427 209.102 190.27 234.923C189.619 242.516 186.573 251.305 178.665 261.224L275.991 254.828L235.047 152.432Z" fill="url(#paint7_linear)"/>
</g>
<path d="M171.373 129.723L187.702 161.392C189.859 165.599 195.747 166.249 199.136 162.692L214.883 146.139C217.314 143.608 221.182 143.129 223.99 145.01L235.047 152.466L193.487 48.4963C192.905 47.0598 190.817 47.0598 190.201 48.4963L154.324 131.638L161.137 127.26C164.731 124.935 169.49 126.063 171.373 129.723Z" fill="url(#paint8_linear)"/>
<g opacity="0.3">
<path opacity="0.3" d="M193.488 48.4963C192.906 47.0598 190.818 47.0598 190.202 48.4963L186.607 56.8412C191.982 65.5965 196.706 76.8143 197.014 89.9473C197.528 111.801 185.409 124.216 176.611 139.846L187.737 161.427C189.893 165.633 195.782 166.283 199.171 162.726L214.918 146.173C217.349 143.642 221.217 143.163 224.024 145.044L235.082 152.5L193.488 48.4963Z" fill="url(#paint9_linear)"/>
</g>
<path d="M53.8838 273.844C53.8838 273.844 52.7883 276.375 52.8226 276.82C52.891 277.675 53.5757 278.359 54.3973 278.29C56.7594 278.153 61.2782 277.811 63.6061 277.093C66.8925 276.067 55.6297 273.434 55.6297 273.434L53.8838 273.844Z" fill="url(#paint10_linear)"/>
<path d="M53.9526 270.082L54.1238 274.391C54.1238 274.391 54.7742 275.417 56.3832 274.118L57.2391 269.535L53.9526 270.082Z" fill="url(#paint11_linear)"/>
<path d="M62.1343 189.916C59.4984 191.352 57.9578 193.336 57.3074 194.191C52.3093 201.031 55.3903 208.452 55.1165 220.217C54.7741 236.531 48.5094 238.651 49.2283 254.144C49.5706 261.429 51.2481 267.277 52.5832 271.039C54.603 270.766 56.6227 270.492 58.6425 270.253C59.5668 260.232 62.0659 244.705 69.7 227.776C77.6764 210.06 86.714 200.962 83.1195 194.122C80.1412 188.377 69.3919 185.88 62.1343 189.916Z" fill="url(#paint12_linear)"/>
<path opacity="0.3" d="M83.1195 194.054C80.1412 188.377 69.3576 185.88 62.1343 189.881C61.8604 190.018 61.6208 190.189 61.3812 190.326C66.6531 199.287 66.7558 205.408 65.5577 209.581C64.3595 213.822 61.8262 215.942 61.2442 222.064C60.5938 228.904 63.3325 230.067 62.2713 235.608C60.9361 242.584 56.2461 242.448 54.9795 249.288C53.7471 255.786 57.4101 258.932 55.1164 263.139C54.2264 264.746 52.8228 265.875 51.248 266.696C51.6931 268.337 52.1724 269.774 52.5832 270.971C54.6029 270.697 56.6227 270.424 58.6425 270.15C59.5668 260.129 62.0659 244.602 69.6999 227.673C77.6764 210.025 86.714 200.928 83.1195 194.054Z" fill="url(#paint13_linear)"/>
<path d="M87.9805 275.52C87.9805 275.52 86.885 278.051 86.9192 278.495C86.9877 279.35 87.6724 280.034 88.494 279.966C90.8561 279.829 95.3749 279.487 97.7028 278.769C100.989 277.743 89.7264 275.109 89.7264 275.109L87.9805 275.52Z" fill="url(#paint14_linear)"/>
<path d="M87.0903 271.758L88.1858 276.17C88.1858 276.17 88.8363 277.196 90.4452 275.896L90.411 271.21L87.0903 271.758Z" fill="url(#paint15_linear)"/>
<path d="M71.7878 192.446C66.9267 197.44 73.0545 215.121 76.2382 224.219C76.5463 225.074 77.2994 227.263 77.7787 230.307C78.4292 234.582 78.0526 237.694 77.8814 240.088C77.8814 240.088 77.4706 246.244 78.9427 255.034C79.6616 259.274 81.4075 265.704 86.0975 273.091C87.9461 272.784 89.7605 272.442 91.6091 272.134C91.6776 264.165 91.883 251.237 92.6361 235.163C93.8685 208.931 96.0937 184.991 93.3892 184.444C92.4992 184.273 92.2938 186.872 89.5208 189.232C83.1876 194.704 75.5193 188.65 71.7878 192.446Z" fill="url(#paint16_linear)"/>
<path d="M76.3754 130.27C70.1449 130.646 49.2624 132.561 37.041 146.344C34.1654 149.593 27.0791 157.596 30.434 164.607C33.6861 171.379 45.839 175.449 60.2171 173.192C61.1757 171.96 62.1684 170.729 63.127 169.532C55.1848 168.711 49.6732 164.984 49.3309 161.119C49.0228 157.733 52.7542 154.997 54.6028 153.629C60.936 148.944 68.9467 149.046 71.6854 149.183C73.2601 142.856 74.8349 136.563 76.3754 130.27Z" fill="white"/>
<path d="M130.499 92.3757C132.724 95.8642 132.587 99.934 130.122 101.507C127.657 103.08 123.892 101.507 121.667 98.053C119.441 94.5645 119.578 90.4947 122.043 88.9215C124.474 87.3482 128.239 88.9215 130.499 92.3757Z" fill="url(#paint17_linear)"/>
<path d="M96.9839 116.624L121.255 91.7598C121.564 91.452 122.009 91.281 122.454 91.3494C124.405 91.623 129.506 92.9569 129.711 99.3524C129.745 99.8996 129.437 100.378 128.992 100.652L98.4902 117.889L96.9839 116.624Z" fill="url(#paint18_linear)"/>
<path d="M98.6272 116.624C99.0722 117.308 99.038 118.094 98.5587 118.402C98.0794 118.71 97.3263 118.402 96.9155 117.718C96.4705 117.034 96.5047 116.248 96.984 115.94C97.4632 115.666 98.1821 115.94 98.6272 116.624Z" fill="url(#paint19_linear)"/>
<path d="M119.544 111.733L115.196 108.45C115.196 108.45 117.353 107.8 116.6 104.62C115.847 101.439 117.935 102.055 118.003 104.62C118.072 107.185 118.757 108.963 118.757 108.963L121.393 110.878L119.544 111.733Z" fill="url(#paint20_linear)"/>
<path d="M94.485 124.148C95.4435 122.438 94.9643 120.523 94.8273 120.113C94.3823 118.369 94.2111 118.129 93.8688 117.753L93.3895 117.274C93.3895 117.274 93.3553 117.24 93.3211 117.24C93.013 117.035 91.7805 116.693 91.5409 116.693C90.7193 116.658 89.1103 119.668 88.2545 124.217C88.186 124.388 88.1176 124.559 88.0491 124.73C87.9122 125.038 87.8094 125.277 87.8094 125.277C87.6725 125.653 86.7824 126.987 85.8581 127.774C83.6672 129.62 78.6691 130.715 78.7033 131.536C78.7375 132.288 83.1537 132.801 87.5013 132.733C90.5824 132.664 95.7859 132.254 95.8886 131.16C95.9913 130.065 90.7535 129.586 91.3697 125.927C91.4724 125.516 93.8003 125.414 94.485 124.148Z" fill="url(#paint21_linear)"/>
<path d="M95.3405 116.385C94.9981 117.787 93.9711 119.121 93.5946 119.258C93.5603 119.292 93.2522 119.429 92.9441 119.702C92.9099 119.736 92.8757 119.771 92.8414 119.839C92.3279 120.66 93.4576 122.028 93.1153 122.336C92.8414 122.575 91.9856 121.959 91.8144 122.199C91.6432 122.404 92.3279 123.088 92.1225 123.327C91.9856 123.499 91.5405 123.191 91.164 123.464C90.9586 123.601 90.9928 123.738 90.7189 124.183C90.5478 124.422 90.3424 124.696 90.2054 124.867C89.5208 125.585 88.0829 125.551 87.9118 125.14C87.8775 125.038 87.946 124.969 87.946 124.661C87.946 124.661 87.946 124.354 87.8433 123.977C87.6722 123.43 87.0902 122.951 86.5082 122.267C85.447 121.036 85.31 120.181 85.2416 119.873C85.2416 119.771 85.2073 119.702 85.2073 119.634C85.1389 118.539 85.4812 117 86.1659 116.214C87.3298 114.846 88.8703 116.009 90.6847 114.812C92.773 113.444 92.3622 110.776 93.3207 110.707C94.4162 110.605 95.9909 113.786 95.3405 116.385Z" fill="#26264F"/>
<path d="M92.7048 121.891C92.4652 121.344 91.7806 121.652 91.6094 122.233C91.4725 122.849 91.8833 123.601 92.4995 123.635C93.0814 123.67 93.0129 122.644 92.7048 121.891Z" fill="url(#paint22_linear)"/>
<path d="M69.0149 131.98C71.7194 130.031 75.9986 129.654 84.5912 129.039C91.0271 128.594 97.018 128.834 100.612 129.005C108.384 129.347 111.259 129.962 116.189 128.697C119.681 127.808 123.652 126.816 124.816 123.84C126.082 120.557 123.617 115.735 118.619 112.007C119.646 111.186 120.639 110.365 121.666 109.544C123.515 109.955 129.369 111.494 133.511 116.966C137.105 121.72 138.886 128.663 136.558 134.545C134.504 139.846 129.882 142.445 122.933 146.378C115.162 150.79 113.484 149.457 110.232 152.774C107.767 155.305 106.535 160.572 104.173 171.037C102.838 176.92 101.913 181.879 99.7224 189.437C97.6342 196.653 96.881 197.645 96.0594 198.363C92.1568 201.92 88.0145 199.287 76.5121 200.928C69.1518 201.989 69.2203 203.288 62.7159 203.699C56.6908 204.109 50.3576 204.519 46.6262 200.313C43.4424 196.756 43.9559 191.694 44.0586 190.976C44.7091 185.572 48.6459 183.212 52.5143 178.39C55.9719 174.047 57.5467 168.951 60.6962 158.759C66.0366 141.385 63.5375 135.947 69.0149 131.98Z" fill="white"/>
<path opacity="0.3" d="M137.277 125.721C136.661 128.081 135.6 130.441 133.956 132.596C128.616 139.572 118.928 141.624 113.896 142.719C104.755 144.668 99.1752 143.163 97.4293 146.481C95.7861 149.627 100.1 152.158 99.6202 157.801C99.0383 164.607 92.3969 164.847 88.2889 173.465C84.0782 182.357 87.7754 189.061 83.5305 191.523C80.6549 193.199 78.6351 190.326 72.1992 189.745C60.4913 188.684 54.5347 197.029 48.9546 194.122C47.551 193.37 45.9078 191.762 44.915 187.864C44.47 188.855 44.1277 189.916 43.9907 191.147C43.888 191.865 43.4088 196.927 46.5582 200.484C50.2897 204.69 56.6229 204.246 62.648 203.869C69.1524 203.425 69.1181 202.159 76.4441 201.099C87.9466 199.458 92.1231 202.057 95.9915 198.534C96.8131 197.782 97.5662 196.824 99.6545 189.608C101.845 182.05 102.77 177.09 104.105 171.208C106.467 160.743 107.699 155.441 110.164 152.945C113.416 149.627 115.094 150.961 122.865 146.549C129.814 142.616 134.436 139.983 136.49 134.716C137.654 131.74 137.791 128.662 137.277 125.721Z" fill="url(#paint23_linear)"/>
<path d="M255.177 84.2363C240.867 59.9197 213.001 52.3956 211.563 52.3956C214.131 51.1985 216.698 50.0015 219.266 48.7703C210.913 48.3599 202.56 47.9153 194.207 47.5049C198.623 53.148 204.032 58.7569 208.482 64.3658C208.311 61.8349 208.071 59.5093 207.9 56.9784C211.7 57.6967 229.159 62.6215 239.84 79.6192C242.031 83.1077 250.521 95.1463 246.208 105.235C240.662 118.129 217.006 119.429 183.629 119.565C167.47 119.634 153.503 119.394 141.282 119.052C140.494 121.549 139.775 124.08 139.057 126.645C137.55 132.083 136.112 137.521 134.298 142.89C132.484 148.26 130.464 153.527 128.581 158.862C143.61 158.52 160.966 157.562 180.787 155.168C237.067 148.397 250.624 137.555 257.094 126.44C264.899 112.999 264.591 100.242 255.177 84.2363Z" fill="url(#paint24_linear)"/>
</g>
<defs>
<linearGradient id="paint0_linear" x1="95.3365" y1="241.89" x2="133.477" y2="285.332" gradientUnits="userSpaceOnUse">
<stop offset="0.00359712" stop-color="#E38DDD"/>
<stop offset="1" stop-color="#9571F6"/>
</linearGradient>
<linearGradient id="paint1_linear" x1="112.208" y1="229.593" x2="149.2" y2="271.729" gradientUnits="userSpaceOnUse">
<stop offset="0.00359712" stop-color="#E38DDD"/>
<stop offset="1" stop-color="#9571F6"/>
</linearGradient>
<linearGradient id="paint2_linear" x1="128.754" y1="250.105" x2="118.649" y2="223.302" gradientUnits="userSpaceOnUse">
<stop offset="0.00359712" stop-color="#E38DDD"/>
<stop offset="1" stop-color="#9571F6"/>
</linearGradient>
<linearGradient id="paint3_linear" x1="103.674" y1="199.19" x2="141.194" y2="199.19" gradientUnits="userSpaceOnUse">
<stop offset="0.00359712" stop-color="#E38DDD"/>
<stop offset="1" stop-color="#9571F6"/>
</linearGradient>
<linearGradient id="paint4_linear" x1="58.3889" y1="212.925" x2="166.33" y2="54.5289" gradientUnits="userSpaceOnUse">
<stop stop-color="#FFC444"/>
<stop offset="0.9964" stop-color="#F36F56"/>
</linearGradient>
<linearGradient id="paint5_linear" x1="230.958" y1="17.5982" x2="191.93" y2="15.6769" gradientUnits="userSpaceOnUse">
<stop stop-color="#FFC444"/>
<stop offset="0.9964" stop-color="#F36F56"/>
</linearGradient>
<linearGradient id="paint6_linear" x1="157.038" y1="194.604" x2="232.149" y2="280.157" gradientUnits="userSpaceOnUse">
<stop offset="0.00359712" stop-color="#E38DDD"/>
<stop offset="1" stop-color="#9571F6"/>
</linearGradient>
<linearGradient id="paint7_linear" x1="181.773" y1="173.065" x2="256.803" y2="258.525" gradientUnits="userSpaceOnUse">
<stop offset="0.00359712" stop-color="#E38DDD"/>
<stop offset="1" stop-color="#9571F6"/>
</linearGradient>
<linearGradient id="paint8_linear" x1="235.589" y1="182.925" x2="201.018" y2="130.767" gradientUnits="userSpaceOnUse">
<stop offset="0.00359712" stop-color="#E38DDD"/>
<stop offset="1" stop-color="#9571F6"/>
</linearGradient>
<linearGradient id="paint9_linear" x1="176.593" y1="106.204" x2="235.035" y2="106.204" gradientUnits="userSpaceOnUse">
<stop offset="0.00359712" stop-color="#E38DDD"/>
<stop offset="1" stop-color="#9571F6"/>
</linearGradient>
<linearGradient id="paint10_linear" x1="58.1403" y1="270.323" x2="59.1314" y2="287.98" gradientUnits="userSpaceOnUse">
<stop offset="0.003597" stop-color="#26264F"/>
<stop offset="1" stop-color="#444B8C"/>
</linearGradient>
<linearGradient id="paint11_linear" x1="57.0312" y1="282.83" x2="53.8599" y2="257.037" gradientUnits="userSpaceOnUse">
<stop stop-color="#FFC444"/>
<stop offset="0.9964" stop-color="#F36F56"/>
</linearGradient>
<linearGradient id="paint12_linear" x1="49.1755" y1="229.475" x2="83.9375" y2="229.475" gradientUnits="userSpaceOnUse">
<stop stop-color="#311944"/>
<stop offset="1" stop-color="#893976"/>
</linearGradient>
<linearGradient id="paint13_linear" x1="49.1754" y1="229.475" x2="83.9376" y2="229.475" gradientUnits="userSpaceOnUse">
<stop stop-color="#311944"/>
<stop offset="1" stop-color="#893976"/>
</linearGradient>
<linearGradient id="paint14_linear" x1="92.0514" y1="268.306" x2="93.0425" y2="285.963" gradientUnits="userSpaceOnUse">
<stop offset="0.003597" stop-color="#26264F"/>
<stop offset="1" stop-color="#444B8C"/>
</linearGradient>
<linearGradient id="paint15_linear" x1="89.6506" y1="278.819" x2="86.4791" y2="253.026" gradientUnits="userSpaceOnUse">
<stop stop-color="#FFC444"/>
<stop offset="0.9964" stop-color="#F36F56"/>
</linearGradient>
<linearGradient id="paint16_linear" x1="69.9956" y1="228.773" x2="94.6953" y2="228.773" gradientUnits="userSpaceOnUse">
<stop stop-color="#311944"/>
<stop offset="1" stop-color="#893976"/>
</linearGradient>
<linearGradient id="paint17_linear" x1="120.085" y1="95.2259" x2="132.065" y2="95.2259" gradientUnits="userSpaceOnUse">
<stop offset="0.003597" stop-color="#26264F"/>
<stop offset="1" stop-color="#444B8C"/>
</linearGradient>
<linearGradient id="paint18_linear" x1="96.9859" y1="104.609" x2="129.744" y2="104.609" gradientUnits="userSpaceOnUse">
<stop offset="0.003597" stop-color="#26264F"/>
<stop offset="1" stop-color="#444B8C"/>
</linearGradient>
<linearGradient id="paint19_linear" x1="96.6003" y1="117.189" x2="98.9404" y2="117.189" gradientUnits="userSpaceOnUse">
<stop offset="0.003597" stop-color="#26264F"/>
<stop offset="1" stop-color="#444B8C"/>
</linearGradient>
<linearGradient id="paint20_linear" x1="115.221" y1="107.077" x2="121.397" y2="107.077" gradientUnits="userSpaceOnUse">
<stop stop-color="#FFC444"/>
<stop offset="0.9964" stop-color="#F36F56"/>
</linearGradient>
<linearGradient id="paint21_linear" x1="98.8817" y1="116.084" x2="74.7413" y2="147.997" gradientUnits="userSpaceOnUse">
<stop stop-color="#FFC444"/>
<stop offset="0.9964" stop-color="#F36F56"/>
</linearGradient>
<linearGradient id="paint22_linear" x1="97.5297" y1="115.776" x2="76.6404" y2="143.39" gradientUnits="userSpaceOnUse">
<stop stop-color="#FFC444"/>
<stop offset="0.9964" stop-color="#F36F56"/>
</linearGradient>
<linearGradient id="paint23_linear" x1="136.932" y1="116.443" x2="83.3719" y2="178.395" gradientUnits="userSpaceOnUse">
<stop stop-color="#FF9085"/>
<stop offset="1" stop-color="#FB6FBB"/>
</linearGradient>
<linearGradient id="paint24_linear" x1="113.078" y1="248.918" x2="219.666" y2="92.5065" gradientUnits="userSpaceOnUse">
<stop stop-color="#FFC444"/>
<stop offset="0.9964" stop-color="#F36F56"/>
</linearGradient>
<clipPath id="clip0">
<rect width="275.957" height="280" fill="white"/>
</clipPath>
</defs>
</svg>
