<?xml version="1.0" encoding="UTF-8"?>
<svg width="295px" height="245px" viewBox="0 0 295 245" version="1.1" xmlns="http://www.w3.org/2000/svg" xmlns:xlink="http://www.w3.org/1999/xlink">
    <title>NX Final Shape</title>
    <g id="Page-1" stroke="none" stroke-width="1" fill="none" fill-rule="evenodd">
        <g id="A3-Copy-10" transform="translate(-103.000000, -128.000000)" fill="#FFFFFF">
            <g id="NX-Final-Shape" transform="translate(103.000000, 128.000000)">
                <polygon id="Path-23-Copy" points="55.4495074 216.891178 239.493168 79.891178 239.493168 21.891178 55.4083178 159.891178"></polygon>
                <path d="M249.263634,54.2156346 C249.263634,18.1832259 264.257712,0.167021465 294.245869,0.167021465 L294.245869,244.855569 C279.99237,242.728518 264.998291,235.976713 249.263634,224.600154 L249.263634,54.2156346 Z M45.2636335,14.5668913 L45.2641029,73.0877925 C45.1760966,73.0222029 45.0880623,72.9565924 45,72.8909609 L45.2636335,178.073727 C45.0878778,222.594955 30,244.855569 0,244.855569 L0,0.167021465 C15.6356976,-0.984194446 30.7235755,3.81576218 45.2636335,14.5668913 Z M55.261076,22.0155368 C80.3056964,40.7427308 141.639001,86.8823579 239.26099,160.434418 L239.266008,217.288936 C213.811266,198.566277 152.477623,152.983608 55.2650765,80.5409302 L55.261076,22.0155368 Z" id="Combined-Shape"></path>
            </g>
        </g>
    </g>
</svg>