<svg width="278" height="277" viewBox="0 0 278 277" fill="none" xmlns="http://www.w3.org/2000/svg">
<g clip-path="url(#clip0)">
<path d="M67.208 17.2852C57.8717 30.6281 68.8259 52.2597 54.9731 62.3006C41.5247 72.0719 24.9755 56.0672 12.2687 64.457C-6.53882 76.9239 -3.10089 134.002 24.4025 169.448C32.694 180.096 39.6035 184.274 42.6707 196.302C49.2432 222.18 26.1215 237.612 30.5368 250.415C40.4461 279.258 192.76 303.45 253.867 216.789C282.415 176.322 286.696 117.862 261.181 73.4871C215.106 -6.7388 88.1052 -12.6353 67.208 17.2852Z" fill="#F4F7FA"/>
<path d="M10.2129 33.4248V122.748C10.2129 125.713 12.7408 128.139 15.8079 128.139L199.703 129.184C202.534 129.184 204.86 126.926 204.86 124.062V38.6474L10.2129 33.4248Z" fill="url(#paint0_linear)"/>
<path d="M199.703 27.6294L15.8079 22.2383C12.7071 22.1372 10.2129 24.4621 10.2129 27.4609V36.6257L204.86 41.6798V32.9193C204.86 30.089 202.534 27.7304 199.703 27.6294Z" fill="#BFC8D6"/>
<path d="M55.9844 81.7084L66.2307 47.3066C81.7014 52.4955 92.8578 66.7482 92.9252 83.2584L55.9844 81.7084Z" fill="#BFC8D6"/>
<path d="M83.3867 85.3138C82.8138 93.1646 78.904 100.106 73.0393 104.823L56.9619 84.1682L83.3867 85.3138Z" fill="white"/>
<path d="M53.6584 80.4617C47.423 74.5989 39.9067 67.5231 33.9072 61.8288C39.2326 57.0779 46.3781 54.2476 54.2651 54.4161C56.6582 54.4834 58.9501 54.7867 61.1747 55.3595L53.6584 80.4617Z" fill="white"/>
<path d="M52.378 82.618L29.7618 98.3195C26.5935 93.7371 24.7397 88.245 24.7397 82.3485C24.7397 75.1042 27.571 68.5002 32.1886 63.5808C33.8401 65.1644 35.6939 66.8828 37.7162 68.8034C43.8169 74.5651 49.9512 80.3605 52.378 82.618Z" fill="white"/>
<path d="M53.0186 85.179L52.5805 111.124C43.9857 110.584 36.3346 106.44 31.2451 100.308L53.0186 85.179Z" fill="white"/>
<path d="M55.5124 86.3245L71.0504 106.271C66.534 109.304 61.04 111.09 55.1079 111.191L55.5124 86.3245Z" fill="white"/>
<path d="M191.479 66.1081L98.1157 64.2212V55.4944L191.479 57.5497V66.1081Z" fill="#BFC8D6"/>
<path d="M191.479 81.6073L98.1157 80.0237V71.2969L191.479 73.049V81.6073Z" fill="#BFC8D6"/>
<path d="M191.479 97.0728L98.1157 95.8599V87.0994L191.479 88.5145V97.0728Z" fill="#BFC8D6"/>
<path d="M191.479 112.539L98.1157 111.663V102.936L191.479 104.014V112.539Z" fill="#BFC8D6"/>
<path d="M23.0885 29.6172C23.0885 30.9313 21.9762 31.9758 20.5943 31.9421C19.2124 31.9084 18.1001 30.7965 18.1001 29.4824C18.1001 28.1684 19.2124 27.1238 20.5943 27.1575C21.9762 27.1912 23.0885 28.3031 23.0885 29.6172Z" fill="white"/>
<path d="M48.6367 158.026V257.896C48.6367 261.198 51.4342 263.826 54.9059 263.758L260.474 259.445C263.642 259.378 266.237 256.75 266.237 253.583V157.992L48.6367 158.026Z" fill="#EBEFF2"/>
<path d="M260.474 145.862L54.9059 145.357C51.4342 145.357 48.6367 148.019 48.6367 151.355V161.598L266.237 161.429V151.624C266.237 148.457 263.676 145.862 260.474 145.862Z" fill="#BFC8D6"/>
<path d="M63.0291 153.376C63.0291 154.859 61.782 156.038 60.2653 156.038C58.7148 156.038 57.5015 154.859 57.5015 153.376C57.5015 151.894 58.7486 150.714 60.2653 150.714C61.782 150.714 63.0291 151.894 63.0291 153.376Z" fill="white"/>
<path d="M91.8805 249.977L76.0391 250.281V175.715L91.8805 175.682V249.977Z" fill="white"/>
<path d="M91.8805 249.977L76.0391 250.281V214.868L91.8805 214.699V249.977Z" fill="#BFC8D6"/>
<path d="M113.721 249.573L98.0146 249.876V175.648L113.721 175.581V249.573Z" fill="white"/>
<path d="M113.721 249.573L98.0146 249.876V232.254L113.721 232.018V249.573Z" fill="#BFC8D6"/>
<path d="M135.36 249.169L119.822 249.472V175.581L135.36 175.513V249.169Z" fill="white"/>
<path d="M135.36 249.169L119.822 249.472V240.273L135.36 240.004V249.169Z" fill="#BFC8D6"/>
<path d="M156.83 248.764L141.427 249.068V175.479L156.83 175.446V248.764Z" fill="white"/>
<path d="M156.83 248.765L141.427 249.068V191.417L156.83 191.316V248.765Z" fill="#BFC8D6"/>
<path d="M178.132 248.394L162.83 248.663V175.412L178.132 175.345V248.394Z" fill="white"/>
<path d="M178.132 248.394L162.83 248.663V197.785L178.132 197.684V248.394Z" fill="#BFC8D6"/>
<path d="M199.231 247.989L184.064 248.259V175.345L199.231 175.277V247.989Z" fill="white"/>
<path d="M199.231 247.99L184.064 248.259V185.925L199.231 185.857V247.99Z" fill="#BFC8D6"/>
<path d="M220.129 247.619L205.13 247.888V175.244L220.129 175.21V247.619Z" fill="white"/>
<path d="M220.129 247.619L205.13 247.888V203.277L220.129 203.143V247.619Z" fill="#BFC8D6"/>
<path d="M240.891 247.214L225.993 247.484V175.176L240.891 175.109V247.214Z" fill="white"/>
<path d="M240.891 247.214L225.993 247.484V222.382L240.891 222.18V247.214Z" fill="#BFC8D6"/>
<path d="M165.189 99.162C156.426 92.3221 147.46 100.847 114.092 104.755C67.1408 110.281 49.4119 97.5784 36.8062 110.888C25.4475 122.849 37.7836 135.282 25.1442 160.923C14.2237 183.061 -2.52774 189.159 0.337198 198.391C4.07847 210.521 34.7839 205.669 38.2555 216.957C42.4012 230.468 1.58429 247.181 4.81998 260.422C7.68492 272.114 44.255 278.954 76.0389 269.351C126.158 254.256 148.37 203.142 156.695 183.97C158.279 180.298 185.918 115.335 165.189 99.162Z" fill="url(#paint1_linear)"/>
<path d="M174.155 34.7388L175.368 24.3947L255.553 10.3442L249.89 76.1827L248.677 86.5268L227.847 73.3187L186.053 136.529L130.102 94.5797L131.315 84.2019L192.457 48.5535L174.155 34.7388Z" fill="url(#paint2_linear)"/>
<path d="M175.368 24.3946L256.766 0L249.89 76.1826L229.06 62.9745L187.266 126.185L131.315 84.2018L193.67 38.2092L175.368 24.3946Z" fill="url(#paint3_linear)"/>
<path d="M189.423 60.043C189.49 59.6723 189.591 59.0995 189.895 58.4594C190.636 56.8757 191.782 56.3703 194.681 54.4834C197.175 52.8661 199.602 51.0803 199.602 51.0803C199.602 51.0803 201.051 51.3162 199.467 53.1357C197.883 54.9552 197.883 54.9552 197.883 54.9552C197.883 54.9552 196.198 56.7409 197.411 57.617C198.591 58.493 198.725 60.8853 197.242 62.0983L197.108 62.1994C196.265 62.907 195.153 63.2439 194.04 63.1428L190.67 62.8396L189.423 60.043Z" fill="url(#paint4_linear)"/>
<path d="M53.9284 168.336C53.9284 168.336 51.7039 166.82 48.6367 169.044C48.9401 169.347 49.5468 170.122 49.5468 170.122C49.5468 170.122 51.5354 168.201 53.1195 169.279C53.288 168.976 53.9284 168.336 53.9284 168.336Z" fill="url(#paint5_linear)"/>
<path d="M60.2985 175.513C59.7255 175.917 59.1526 176.288 58.6133 176.692C58.0066 175.513 57.3662 174.199 56.4561 172.986C55.2428 171.436 53.9283 170.155 52.6475 169.145C52.6812 169.044 52.7149 168.774 52.9508 168.504C53.2879 168.066 53.7597 167.932 53.8608 167.898C54.5687 168.37 55.3102 168.909 56.0517 169.549C58.074 171.368 59.3548 173.525 60.2985 175.513Z" fill="url(#paint6_linear)"/>
<path d="M59.928 175.985C60.1302 175.816 60.3324 175.614 60.2987 175.513C60.265 175.412 60.0291 175.479 59.8943 175.513C59.8268 175.513 59.7257 175.58 59.3887 175.816C58.9842 176.119 58.8157 176.322 58.7146 176.456C58.6472 176.524 58.5798 176.658 58.6135 176.692C58.6472 176.726 58.7483 176.692 58.9168 176.625C59.119 176.557 59.4898 176.355 59.928 175.985Z" fill="url(#paint7_linear)"/>
<path d="M64.8489 189.563C64.8489 189.563 65.7589 188.687 64.3096 186.969C63.9051 186.834 63.0962 187.508 63.0962 187.508L64.8489 189.563Z" fill="url(#paint8_linear)"/>
<path d="M47.1199 207.152L40.5811 204.591L47.558 193.843L64.1073 187.946L64.8825 189.563L48.5355 206.815C48.131 207.185 47.5917 207.32 47.1199 207.152Z" fill="url(#paint9_linear)"/>
<path opacity="0.3" d="M47.5243 193.809L64.0735 187.912L64.8488 189.53C63.4669 190.136 61.512 191.518 60.4671 192.259C55.9169 195.561 53.8609 195.494 51.2993 198.526C49.1759 201.053 49.614 202.232 47.8614 203.58C45.9739 205.029 43.446 205.13 41.0529 204.726L40.5811 204.524L47.5243 193.809Z" fill="url(#paint10_linear)"/>
<path d="M64.0736 187.946L42.2327 162.035L18.875 174.738L40.5811 204.591L64.0736 187.946Z" fill="url(#paint11_linear)"/>
<g opacity="0.2">
<path opacity="0.2" d="M42.2327 162.035L49.5804 170.762C49.3107 171.267 48.94 171.975 48.6029 172.885C44.9291 182.656 51.6027 192.326 50.3219 193.135C48.4007 194.348 34.0423 172.379 31.2785 173.862C29.9303 174.569 30.9077 180.938 33.6379 186.16C36.9072 192.394 41.626 195.022 41.1878 199.806C41.0193 201.424 40.3115 202.67 39.7722 203.479L18.875 174.772L42.2327 162.035Z" fill="url(#paint12_linear)"/>
</g>
<path d="M64.3433 186.969C64.5793 187.272 64.95 187.643 65.1186 188.283C65.1523 188.418 65.1523 188.553 65.186 188.654L65.0849 188.384C64.8826 187.98 64.4108 187.643 63.9726 187.71C63.4333 187.811 62.5233 188.451 62.0851 188.755C60.8043 189.631 52.7825 195.022 52.7825 195.022C52.1084 195.494 51.1983 195.359 50.6928 194.719L31.4808 169.684C31.346 169.482 31.2449 169.279 31.2112 169.044C31.1775 168.538 31.4134 168.1 31.8179 167.864L41.5924 161.698C42.1991 161.361 42.9069 161.53 43.345 162.035L64.3433 186.969Z" fill="url(#paint13_linear)"/>
<path d="M64.1074 186.699C64.3433 187.003 64.6804 187.306 64.9163 187.778C64.9837 187.912 65.0848 188.115 65.0848 188.216C65.0848 188.216 64.5793 187.238 63.7029 187.441C63.1636 187.575 62.2536 188.182 61.8154 188.485C60.5346 189.361 52.5128 194.752 52.5128 194.752C51.8387 195.224 50.9287 195.089 50.4231 194.449L30.3348 169.684C30.2 169.482 30.0989 169.279 30.0652 169.044C30.0315 168.538 30.2674 168.1 30.6719 167.864L41.3227 161.429C41.9294 161.092 42.6372 161.26 43.0754 161.766L64.1074 186.699Z" fill="url(#paint14_linear)"/>
<path opacity="0.1" d="M30.6382 167.864L41.289 161.429C41.8957 161.092 42.6035 161.26 43.0417 161.766L64.0737 186.699C64.3096 187.003 64.6467 187.306 64.8826 187.778C64.95 187.912 65.0511 188.115 65.0511 188.216C65.0511 188.216 64.5456 187.239 63.6692 187.441C63.6018 187.474 63.5007 187.508 63.3996 187.542C61.3099 185.251 59.3887 182.825 57.2316 180.567C53.0184 176.119 49.0412 171.369 43.6147 168.37C41.8957 167.426 39.1319 168.066 38.5589 169.212C38.1544 170.021 38.9971 170.93 38.4241 171.975C37.8174 173.087 36.5366 172.75 36.1995 173.626C35.8625 174.536 37.1096 175.378 38.1544 177.568C38.7274 178.781 38.9971 179.859 39.1319 180.567L30.3011 169.684C30.1663 169.482 30.0652 169.279 30.0315 169.044C29.9978 168.572 30.2337 168.1 30.6382 167.864Z" fill="url(#paint15_linear)"/>
<path d="M37.6485 181.948L39.5697 185.554L39.8056 185.891C40.0416 186.228 40.5472 186.295 40.8842 186.025L44.1199 183.532C44.457 183.263 44.5244 182.791 44.2547 182.454L43.9851 182.117L41.0527 179.354C40.8168 179.051 40.7494 178.68 40.4123 178.95L37.3789 181.275C37.0418 181.544 37.4126 181.645 37.6485 181.948Z" fill="url(#paint16_linear)"/>
<path d="M37.0085 182.083L39.6038 185.689C39.8397 186.025 40.3453 186.093 40.6823 185.823L43.918 183.33C44.2551 183.06 44.3225 182.589 44.0528 182.252L41.2553 178.815C41.0194 178.512 40.5475 178.478 40.2442 178.714L37.2107 181.039C36.8736 181.308 36.7725 181.78 37.0085 182.083Z" fill="url(#paint17_linear)"/>
<path d="M60.1304 170.762C60.1304 170.762 60.0967 173.02 59.4226 173.828C59.4226 173.828 57.9059 171.975 56.4566 173.02C56.4566 173.02 58.0407 174.57 57.8385 175.176C57.6363 175.783 55.1421 174.603 54.2657 172.683C53.3894 170.762 56.6251 168.37 57.8385 168.033C59.0519 167.696 60.1304 170.762 60.1304 170.762Z" fill="url(#paint18_linear)"/>
<path d="M36.6036 267.094C36.7384 266.252 37.2777 265.308 38.2215 264.904C39.5023 264.365 40.9516 265.039 41.6931 265.847C42.1313 266.319 42.4009 266.892 42.6031 270.632C42.8054 274.574 42.6031 275.113 42.1987 275.315C41.4235 275.72 40.1764 274.675 39.9067 274.439C38.9967 273.698 38.963 273.092 37.6485 270.194C36.7721 268.206 36.5025 267.835 36.6036 267.094Z" fill="url(#paint19_linear)"/>
<path d="M39.772 262.343L38.5586 266.319C39.2327 267.128 39.8057 267.33 40.2438 267.027L42.5695 263.522L39.772 262.343Z" fill="url(#paint20_linear)"/>
<path d="M81.7351 243.104C82.4429 242.666 83.5215 242.43 84.4652 242.868C85.7123 243.474 86.1505 245.024 86.0156 246.136C85.9482 246.776 85.6786 247.349 83.0159 249.944C80.1846 252.707 79.6117 252.875 79.2409 252.707C78.432 252.37 78.3983 250.752 78.3983 250.382C78.3646 249.202 78.8027 248.764 80.1172 245.9C80.9599 243.946 81.061 243.508 81.7351 243.104Z" fill="url(#paint21_linear)"/>
<path d="M87.7343 241.688L84.2627 243.98C84.2627 245.058 84.5997 245.53 85.139 245.597L89.1499 244.35L87.7343 241.688Z" fill="url(#paint22_linear)"/>
<path d="M38.4575 262.68C39.8057 263.32 41.1539 263.994 42.4684 264.634C51.2655 251.628 60.467 238.42 70.1404 225.01C80.7238 210.319 91.2735 196.201 101.756 182.656C103.845 184.24 112.036 190.81 113.485 201.828C115.103 214.093 107.654 226.897 94.7451 233.231C88.6782 235.826 86.1503 240.711 87.2288 243.003C88.2063 245.058 92.4869 246.001 97.3067 244.62C120.327 240.543 137.348 223.494 139.539 203.783C141.562 185.621 130.27 172.009 127.81 169.212C115.743 164.664 103.677 160.081 91.6105 155.532C84.465 162.305 79.8137 168.707 76.8814 173.323C71.0167 182.656 70.0055 188.047 61.6467 204.591C60.0288 207.792 59.0177 209.612 58.3436 210.892C53.5237 220.192 46.749 235.657 38.4575 262.68Z" fill="url(#paint23_linear)"/>
<path opacity="0.3" d="M60.4332 232.052C66.2979 220.967 62.0174 219.45 68.118 210.286C73.7131 201.828 78.1284 201.862 85.7795 191.316C91.9138 182.825 91.0712 180.062 94.5091 176.659C98.7897 172.481 110.991 169.583 130.135 174.738C130.607 172.885 127.473 170.998 127.877 169.212C115.811 164.664 103.744 160.081 91.6779 155.532C84.5324 162.305 79.8811 168.707 76.9488 173.323C71.0841 182.656 70.0729 188.047 61.714 204.591C57.3998 213.15 57.029 216.249 54.1304 221.91C49.3105 231.277 44.2548 244.957 38.5249 262.646C39.8731 263.286 41.2213 263.96 42.5358 264.601C42.8055 264.23 43.0414 263.826 43.311 263.455C43.0751 262.04 42.974 260.524 43.1088 258.873C43.884 248.427 53.0855 245.934 60.4332 232.052Z" fill="url(#paint24_linear)"/>
<path d="M56.4561 168.404C58.0402 168.976 59.6243 169.583 61.2085 170.156C62.7589 167.258 65.0509 162.912 67.6462 157.487C70.6122 151.287 72.2975 147.244 72.9716 145.795C75.6343 139.932 81.8023 132.149 97.273 124.062C97.1045 127.6 96.4978 133.362 94.1384 139.932C87.33 158.767 73.0727 164.327 75.3646 172.312C76.9825 177.973 85.9818 181.612 92.1498 180.5C95.8237 179.826 95.6888 177.973 101.486 175.581C105.733 173.828 109.542 173.39 116.923 172.582C127.675 171.402 126.9 172.413 128.821 171.605C133.337 169.684 143.449 137.304 143.449 137.304C145.303 131.374 148.471 123.253 154.268 114.021C160.133 110.416 169.503 103.677 177.727 92.3222C186.288 80.5292 189.76 69.0732 191.31 62.267C190.973 60.8181 190.603 59.403 190.265 57.9541C183.929 60.717 174.626 65.569 165.458 74.1273C158.347 80.7651 159.257 82.2139 154.605 85.3138C143.247 92.9624 133.203 87.4702 112.575 90.1994C102.497 91.5472 93.6665 94.3438 89.3523 96.2981C62.4556 108.327 57.5683 153.915 56.4561 168.404Z" fill="url(#paint25_linear)"/>
<path d="M56.355 168.235C57.9391 168.808 59.5233 169.414 61.1074 169.987C62.6578 167.09 64.9835 162.743 67.5788 157.352C70.5786 151.152 72.2638 147.143 72.9379 145.66C75.6343 139.797 81.8024 132.014 97.273 123.995C97.1045 127.533 96.4641 133.294 94.1047 139.865C87.2626 158.666 72.9716 164.226 75.2636 172.211C76.8814 177.872 85.8807 181.544 92.0487 180.432C95.7226 179.759 95.5878 177.905 101.419 175.547C105.666 173.795 109.474 173.39 116.856 172.582C127.608 171.436 126.832 172.447 128.754 171.638C133.27 169.718 143.449 137.371 143.449 137.371C145.303 131.441 148.505 123.321 154.336 114.122C160.201 110.551 169.571 103.812 177.862 92.4569C186.457 80.664 189.962 69.2079 191.513 62.4354C191.176 60.9866 190.839 59.5714 190.501 58.1226C184.165 60.8518 174.862 65.7038 165.661 74.2284C158.549 80.8324 159.459 82.2813 154.774 85.4149C143.382 93.0297 133.371 87.5039 112.744 90.2331C102.666 91.5472 93.8351 94.3438 89.5208 96.2644C62.4556 108.192 57.4673 153.747 56.355 168.235Z" fill="url(#paint26_linear)"/>
<path d="M131.113 81.7419C131.113 81.7419 129.933 85.5494 127.978 88.1438C126.226 90.4687 120.091 90.6372 118.777 90.9068C117.462 91.1763 120.327 93.7708 123.597 94.9501C126.832 96.1631 136.539 97.8815 138.595 97.0728C140.651 96.2641 137.517 95.5566 135.36 94.0403C133.203 92.5578 133.068 87.5373 134.012 85.5494C134.989 83.5614 131.113 81.7419 131.113 81.7419Z" fill="url(#paint27_linear)"/>
<path d="M137.618 81.4049C138.662 80.1919 138.595 77.6649 137.213 76.3508C136.202 75.3737 134.82 75.4074 133.809 75.4074C133.337 75.4074 130.101 75.5084 128.955 77.7323C128.585 78.4398 128.517 79.417 128.719 80.2256C128.821 80.63 129.057 81.1691 129.596 82.2136C130.068 83.1233 130.034 83.0896 130.202 83.3592C130.573 83.9994 131.281 85.1113 132.663 86.4591C132.798 86.0547 133 85.5156 133.303 84.9765C133.404 84.7744 133.876 83.932 134.517 83.2581C135.831 81.8767 136.809 82.3484 137.618 81.4049Z" fill="url(#paint28_linear)"/>
<path d="M130.843 85.0776C130.843 85.0776 132.124 87.6384 135.124 87.6721C137.786 87.7058 138.663 81.8093 137.079 80.3941C136.539 79.9224 135.427 79.6529 134.483 79.855C133.944 79.9561 133.742 80.1583 132.798 80.3267C131.955 80.4615 131.719 80.3604 131.45 80.5626C131.113 80.7985 130.843 81.4386 131.214 83.1907C130.742 82.6516 130.169 82.3821 129.697 82.5506C129.63 82.5842 129.427 82.6853 129.326 82.8538C128.922 83.5614 129.461 84.4711 130.843 85.0776Z" fill="url(#paint29_linear)"/>
<path d="M130.843 81.6406C130.843 81.6406 131.584 83.8981 132.124 84.4709C132.663 85.0774 133.977 85.6165 135.46 85.1111C136.943 84.6057 137.82 84.0666 137.82 84.0666C137.82 84.0666 137.853 86.998 137.483 87.3013C137.078 87.6045 134.348 88.6827 133.64 88.4469C132.932 88.211 131.449 86.4926 131.214 85.5491C130.978 84.6057 130.876 82.2808 130.876 82.2808L130.843 81.6406Z" fill="url(#paint30_linear)"/>
<path opacity="0.3" d="M108.699 165.068C98.1497 167.359 90.9031 174.839 88.7122 172.716C86.7573 170.83 90.9705 163.552 92.5209 160.822C100.239 147.378 107.789 146.3 109.609 138.348C111.295 131.003 107.25 121.366 101.082 118.806C91.139 114.695 74.9605 128.644 67.6128 142.83C62.8267 152.062 61.0403 162.676 60.3662 169.751C60.6359 169.852 60.8718 169.953 61.1414 170.021C62.6919 167.123 65.0175 162.777 67.6128 157.386C70.6126 151.186 72.2978 147.176 72.9719 145.694C75.6683 139.831 81.8364 132.048 97.307 124.028C97.1385 127.566 96.4981 133.328 94.1388 139.898C87.2966 158.7 73.0056 164.259 75.2976 172.245C76.9154 177.905 85.9147 181.578 92.0828 180.466C95.7566 179.792 95.6218 177.939 101.453 175.58C105.7 173.828 109.508 173.424 116.89 172.615C127.642 171.47 126.866 172.481 128.788 171.672C129.664 171.301 130.776 169.751 131.99 167.527C125.552 164.933 116.856 163.282 108.699 165.068Z" fill="url(#paint31_linear)"/>
</g>
<defs>
<linearGradient id="paint0_linear" x1="179.053" y1="137.681" x2="92.1065" y2="69.9213" gradientUnits="userSpaceOnUse">
<stop stop-color="white"/>
<stop offset="0.9964" stop-color="#EBEFF2"/>
</linearGradient>
<linearGradient id="paint1_linear" x1="118.637" y1="122.402" x2="7.01523" y2="275.805" gradientUnits="userSpaceOnUse">
<stop stop-color="#FF9085"/>
<stop offset="1" stop-color="#FB6FBB"/>
</linearGradient>
<linearGradient id="paint2_linear" x1="171.458" y1="-335.02" x2="208.979" y2="345.664" gradientUnits="userSpaceOnUse">
<stop stop-color="#AB316D"/>
<stop offset="1" stop-color="#792D3D"/>
</linearGradient>
<linearGradient id="paint3_linear" x1="224.339" y1="16.098" x2="168.251" y2="122.75" gradientUnits="userSpaceOnUse">
<stop stop-color="#FF9085"/>
<stop offset="1" stop-color="#FB6FBB"/>
</linearGradient>
<linearGradient id="paint4_linear" x1="203.305" y1="52.3424" x2="158.626" y2="87.4294" gradientUnits="userSpaceOnUse">
<stop stop-color="#FFC444"/>
<stop offset="0.9964" stop-color="#F36F56"/>
</linearGradient>
<linearGradient id="paint5_linear" x1="43.736" y1="176.053" x2="53.7756" y2="166.362" gradientUnits="userSpaceOnUse">
<stop stop-color="#FFC444"/>
<stop offset="0.9964" stop-color="#F36F56"/>
</linearGradient>
<linearGradient id="paint6_linear" x1="51.0112" y1="177.399" x2="58.1939" y2="170.466" gradientUnits="userSpaceOnUse">
<stop offset="0.0999605" stop-color="#311944"/>
<stop offset="0.267" stop-color="#371B47"/>
<stop offset="0.4803" stop-color="#462150"/>
<stop offset="0.7186" stop-color="#612A5F"/>
<stop offset="0.9736" stop-color="#853774"/>
<stop offset="1" stop-color="#893976"/>
</linearGradient>
<linearGradient id="paint7_linear" x1="59.1953" y1="175.993" x2="51.264" y2="172.841" gradientUnits="userSpaceOnUse">
<stop offset="0.0999605" stop-color="#311944"/>
<stop offset="0.267" stop-color="#371B47"/>
<stop offset="0.4803" stop-color="#462150"/>
<stop offset="0.7186" stop-color="#612A5F"/>
<stop offset="0.9736" stop-color="#853774"/>
<stop offset="1" stop-color="#893976"/>
</linearGradient>
<linearGradient id="paint8_linear" x1="57.3854" y1="192.957" x2="89.1086" y2="171.638" gradientUnits="userSpaceOnUse">
<stop offset="0.0999605" stop-color="#311944"/>
<stop offset="0.6853" stop-color="#6D2F66"/>
<stop offset="1" stop-color="#893976"/>
</linearGradient>
<linearGradient id="paint9_linear" x1="33.203" y1="189.054" x2="63.3169" y2="200.469" gradientUnits="userSpaceOnUse">
<stop stop-color="#311944"/>
<stop offset="1" stop-color="#893976"/>
</linearGradient>
<linearGradient id="paint10_linear" x1="66.0529" y1="194.491" x2="49.938" y2="197.139" gradientUnits="userSpaceOnUse">
<stop stop-color="#311944"/>
<stop offset="1" stop-color="#893976"/>
</linearGradient>
<linearGradient id="paint11_linear" x1="63.4796" y1="165.42" x2="30.3595" y2="189.381" gradientUnits="userSpaceOnUse">
<stop offset="0.0999605" stop-color="#311944"/>
<stop offset="0.6853" stop-color="#6D2F66"/>
<stop offset="1" stop-color="#893976"/>
</linearGradient>
<linearGradient id="paint12_linear" x1="50.651" y1="184.827" x2="19.3811" y2="178.035" gradientUnits="userSpaceOnUse">
<stop stop-color="#311944"/>
<stop offset="1" stop-color="#893976"/>
</linearGradient>
<linearGradient id="paint13_linear" x1="56.0239" y1="188.978" x2="49.3341" y2="180.385" gradientUnits="userSpaceOnUse">
<stop offset="0.0999605" stop-color="#311944"/>
<stop offset="0.6853" stop-color="#6D2F66"/>
<stop offset="1" stop-color="#893976"/>
</linearGradient>
<linearGradient id="paint14_linear" x1="20.4799" y1="197.256" x2="51.485" y2="175.498" gradientUnits="userSpaceOnUse">
<stop offset="0.0999605" stop-color="#311944"/>
<stop offset="0.267" stop-color="#371B47"/>
<stop offset="0.4803" stop-color="#462150"/>
<stop offset="0.7186" stop-color="#612A5F"/>
<stop offset="0.9736" stop-color="#853774"/>
<stop offset="1" stop-color="#893976"/>
</linearGradient>
<linearGradient id="paint15_linear" x1="12.5835" y1="201.746" x2="56.2315" y2="172.414" gradientUnits="userSpaceOnUse">
<stop stop-color="#311944"/>
<stop offset="1" stop-color="#893976"/>
</linearGradient>
<linearGradient id="paint16_linear" x1="27.7709" y1="177.349" x2="47.2495" y2="185.327" gradientUnits="userSpaceOnUse">
<stop stop-color="#FFC444"/>
<stop offset="0.9964" stop-color="#F36F56"/>
</linearGradient>
<linearGradient id="paint17_linear" x1="44.8954" y1="184.852" x2="27.2506" y2="174.59" gradientUnits="userSpaceOnUse">
<stop stop-color="#FFC444"/>
<stop offset="0.9964" stop-color="#F36F56"/>
</linearGradient>
<linearGradient id="paint18_linear" x1="59.9447" y1="171.963" x2="50.3629" y2="170.662" gradientUnits="userSpaceOnUse">
<stop stop-color="#FFC444"/>
<stop offset="0.9964" stop-color="#F36F56"/>
</linearGradient>
<linearGradient id="paint19_linear" x1="36.5242" y1="284.385" x2="46.353" y2="241.248" gradientUnits="userSpaceOnUse">
<stop stop-color="#AA80F9"/>
<stop offset="0.9964" stop-color="#6165D7"/>
</linearGradient>
<linearGradient id="paint20_linear" x1="38.9545" y1="267.067" x2="51.0928" y2="244.179" gradientUnits="userSpaceOnUse">
<stop stop-color="#FFC444"/>
<stop offset="0.9964" stop-color="#F36F56"/>
</linearGradient>
<linearGradient id="paint21_linear" x1="71.1886" y1="247.815" x2="115.442" y2="247.276" gradientUnits="userSpaceOnUse">
<stop stop-color="#AA80F9"/>
<stop offset="0.9964" stop-color="#6165D7"/>
</linearGradient>
<linearGradient id="paint22_linear" x1="78.911" y1="247.005" x2="102.809" y2="236.991" gradientUnits="userSpaceOnUse">
<stop stop-color="#FFC444"/>
<stop offset="0.9964" stop-color="#F36F56"/>
</linearGradient>
<linearGradient id="paint23_linear" x1="50.1672" y1="269.142" x2="140.815" y2="150.461" gradientUnits="userSpaceOnUse">
<stop stop-color="#444B8C"/>
<stop offset="0.9964" stop-color="#26264F"/>
</linearGradient>
<linearGradient id="paint24_linear" x1="37.8229" y1="259.713" x2="128.47" y2="141.032" gradientUnits="userSpaceOnUse">
<stop stop-color="#444B8C"/>
<stop offset="0.9964" stop-color="#26264F"/>
</linearGradient>
<linearGradient id="paint25_linear" x1="178.077" y1="68.963" x2="83.4255" y2="156.661" gradientUnits="userSpaceOnUse">
<stop stop-color="#AA80F9"/>
<stop offset="0.9964" stop-color="#6165D7"/>
</linearGradient>
<linearGradient id="paint26_linear" x1="178.177" y1="69.0788" x2="83.3399" y2="156.576" gradientUnits="userSpaceOnUse">
<stop stop-color="#AA80F9"/>
<stop offset="0.9964" stop-color="#6165D7"/>
</linearGradient>
<linearGradient id="paint27_linear" x1="132.622" y1="102.012" x2="124.2" y2="83.1971" gradientUnits="userSpaceOnUse">
<stop stop-color="#FFC444"/>
<stop offset="0.9964" stop-color="#F36F56"/>
</linearGradient>
<linearGradient id="paint28_linear" x1="126.765" y1="93.0868" x2="134.871" y2="76.3587" gradientUnits="userSpaceOnUse">
<stop stop-color="#444B8C"/>
<stop offset="0.9964" stop-color="#3E4177"/>
</linearGradient>
<linearGradient id="paint29_linear" x1="143.496" y1="90.6353" x2="127.041" y2="77.4662" gradientUnits="userSpaceOnUse">
<stop stop-color="#FFC444"/>
<stop offset="0.9964" stop-color="#F36F56"/>
</linearGradient>
<linearGradient id="paint30_linear" x1="141.758" y1="92.2998" x2="131.509" y2="82.2649" gradientUnits="userSpaceOnUse">
<stop stop-color="#444B8C"/>
<stop offset="0.9964" stop-color="#3E4177"/>
</linearGradient>
<linearGradient id="paint31_linear" x1="60.3428" y1="149.341" x2="131.925" y2="149.341" gradientUnits="userSpaceOnUse">
<stop stop-color="#AA80F9"/>
<stop offset="0.9964" stop-color="#6165D7"/>
</linearGradient>
<clipPath id="clip0">
<rect width="278" height="277" fill="white"/>
</clipPath>
</defs>
</svg>
